<svg width="100%" height="100%" viewBox="0 0 1400 810" version="1.1" xmlns="http://www.w3.org/2000/svg" xmlns:xlink="http://www.w3.org/1999/xlink" xml:space="preserve" xmlns:serif="http://www.serif.com/" style="fill-rule:evenodd;clip-rule:evenodd;stroke-linejoin:round;stroke-miterlimit:2;"><g><g><path d="M180.614,763.787l32.217,-183.543l-212.831,0l17.573,-103.487l263.599,-430.544l142.538,0l-75.174,430.544l67.364,0l-17.574,103.487l-68.34,0l-32.218,183.543l-117.154,0Zm-44.91,-287.03l95.677,0l40.028,-224.546l-135.705,224.546Z" style="fill:url(#_Linear1);fill-rule:nonzero;"/><path d="M673.64,771.597c-29.859,0.148 -59.434,-5.834 -86.89,-17.573c-27.336,-11.716 -48.977,-29.452 -64.923,-53.208c-15.946,-23.756 -25.383,-50.93 -28.312,-81.52c-2.941,-30.281 -1.791,-60.821 3.417,-90.795l50.767,-288.006c4.708,-26.514 12.916,-52.285 24.407,-76.639c11.838,-25.229 28.22,-48.065 48.326,-67.364c19.87,-19.453 43.672,-34.433 69.805,-43.933c25.328,-9.311 52.095,-14.103 79.08,-14.156l0.976,0c29.86,-0.148 59.434,5.834 86.89,17.573c27.336,11.716 48.977,29.452 64.923,53.208c15.946,23.756 25.384,50.93 28.312,81.52c2.941,30.281 1.791,60.821 -3.417,90.795l-50.767,288.006c-4.562,26.706 -12.775,52.658 -24.407,77.127c-12.067,25.219 -28.607,48.043 -48.814,67.364c-20.054,19.697 -44.23,34.703 -70.781,43.933c-25.248,8.92 -51.815,13.54 -78.592,13.668Zm0.976,-103.487c18.875,0 36.611,-6.02 53.208,-18.061c16.064,-11.41 28.993,-26.69 37.587,-44.421c8.279,-17.014 14.192,-35.08 17.574,-53.696l50.767,-288.006c1.958,-13.744 2.936,-27.61 2.929,-41.492c0.089,-13.481 -2.225,-26.871 -6.834,-39.54c-4.412,-12.181 -12.63,-22.624 -23.431,-29.777c-10.928,-7.443 -23.878,-11.362 -37.099,-11.227c-18.875,0 -36.611,6.02 -53.208,18.061c-16.064,11.41 -28.993,26.69 -37.587,44.421c-8.279,17.014 -14.192,35.08 -17.574,53.696l-50.767,288.006c-2.603,13.671 -3.749,27.58 -3.417,41.492c0.232,13.495 2.707,26.857 7.322,39.54c4.412,12.181 12.63,22.624 23.431,29.777c10.928,7.443 23.878,11.362 37.099,11.227Zm39.052,-217.713c-7.803,0.003 -15.497,-1.837 -22.455,-5.369c-6.874,-3.248 -12.033,-9.296 -14.156,-16.597c-2.283,-7.605 -2.619,-15.663 -0.976,-23.431c1.722,-8.364 5.036,-16.319 9.763,-23.431c4.788,-7.403 11.552,-13.322 19.526,-17.085c7.746,-3.814 16.26,-5.818 24.895,-5.858c7.861,0.013 15.59,2.029 22.455,5.858c6.845,3.528 11.962,9.703 14.156,17.085c2.283,7.605 2.619,15.663 0.976,23.431c-1.722,8.364 -5.036,16.319 -9.763,23.431c-4.718,7.345 -11.516,13.124 -19.526,16.597c-7.83,3.514 -16.312,5.344 -24.895,5.369Z" style="fill:url(#_Linear2);fill-rule:nonzero;"/><path d="M1156.9,763.787l32.217,-183.543l-212.831,0l17.573,-103.487l263.599,-430.544l142.538,0l-75.174,430.544l67.364,0l-17.574,103.487l-68.34,0l-32.217,183.543l-117.155,0Zm-44.91,-287.03l95.677,0l40.028,-224.546l-135.705,224.546Z" style="fill:url(#_Linear3);fill-rule:nonzero;"/></g><g><path d="M829.327,695.219c0.216,-0.216 7.292,7.446 7.486,11.459c0.331,6.879 -4.673,13.66 -5.693,28.037c-0.659,9.28 3.84,54.21 4,56.335c0.079,1.035 -5.121,1.044 -5.621,-0.068c-9.126,-20.282 -10.419,-26.921 -16.306,-15.723c-2.432,4.627 -7.505,16.485 -11.843,18.497c-14.44,6.695 -42.696,4.252 -44.856,1.942c-2.27,-2.427 -2.659,-22.743 -1.143,-26.309c2.266,-5.33 12.722,-11.041 13.502,-10.915c2.875,0.465 24.68,10.248 36.905,-8.437c5.762,-8.807 18.482,-30.822 22.966,-42.332c1.456,-3.736 0.33,-12.212 0.603,-12.486Z" style="fill:#5f2525;"/><path d="M798.585,689.98c-0.885,2.547 -7.232,27.208 -10.165,37.886c-4.718,17.183 -14.705,20.677 -19.803,31.486c-1.314,2.784 26.133,6.144 32.332,1.164c3.097,-2.487 17.381,-27.451 23.687,-39.732c3.157,-6.149 7.766,-21.131 5.623,-24.75c-8.567,-14.463 -31.043,-7.871 -31.674,-6.054Z" style="fill:#e2b299;"/><path d="M796.921,641.18c-1.052,0.496 -3.618,52.152 -3.559,54.812c0.016,0.743 10.288,3.682 20.897,4.023c9.565,0.307 21.453,-2.235 21.481,-2.614c0.697,-9.48 3.514,-39.5 4.216,-45.565c0.5,-4.321 -41.14,-11.55 -43.035,-10.656Z" style="fill:#393b8c;"/><path d="M928.817,327.185c4.106,47.18 27.475,281.471 27.845,282.604c0.632,1.93 38.406,13.601 37.92,11.412c-15.579,-70.007 -55.316,-257.654 -58.769,-291.262c-0.156,-1.523 -7.089,-3.832 -6.996,-2.754Z" style="fill:#5e0808;"/><path d="M961.159,688.072c-0.998,2.829 9.262,25.643 9.993,32.68c0.877,8.455 1.23,17.503 -0.896,25.864c-2.392,9.409 -6.748,21.893 -6.271,28.266c0.347,4.623 29.711,7.621 33.415,2.115c3.151,-4.682 5.936,-27.13 5.817,-33.906c-0.107,-6.075 -6.204,-52.647 -8.104,-57.036c-0.589,-1.361 -33.562,0.903 -33.954,2.017Z" style="fill:#e2b299;"/><path d="M1000.94,792.341c-3.177,-11.205 -4.209,12.747 -7.714,14.381c-12.56,5.858 -30.238,2.953 -31.368,-1.527c-2.539,-10.066 -1.607,-25.784 -1.075,-30.786c0.861,-8.094 7.941,-28.278 9.605,-28.374c1.7,-0.098 -5.995,13.771 -4.441,29.178c0.413,4.096 28.094,4.442 29.435,-1.159c2.252,-9.408 6.611,-16.445 4.877,-41.582c-0.577,-8.356 -1.141,-16.253 -0.349,-17.98c2.907,-6.34 4.866,54.153 4.471,77.498c-0.012,0.688 -3.242,1.051 -3.441,0.351Z" style="fill:#5f2525;"/><path d="M935.063,342.981c-2.395,2.739 -24.062,40.045 -25.52,48.502c-1.457,8.45 41.164,286.128 42.496,291.266c0.423,1.635 12.317,10.581 22.5,10.216c12.733,-0.455 22.471,-5.134 22.464,-6.103c-0.054,-8.019 -5.522,-39.486 -7.041,-48.997c-3.469,-21.722 -8.848,-54.871 -13.813,-84.119c-4.109,-24.209 -38.895,-213.271 -41.086,-210.765Z" style="fill:#393b8c;"/><path d="M939.408,327.904c-0.346,0.134 -2.734,5.017 -3.243,6.548c-1.942,5.836 -0.949,11.952 -0.037,18.059c8.41,56.366 18.89,113.783 34.843,174.871c9.423,36.079 23.029,95.039 23.153,95.038c3.406,-0.028 5.132,-4.34 4.176,-7.159c-2.499,-7.377 -11.69,-49.358 -15.273,-62.587c-1.507,-5.56 -14.66,-65.918 -16.826,-78.279c-2.21,-12.621 -26.447,-146.624 -26.793,-146.491Z" style="fill:#b00e0e;"/><path d="M867.089,37.321c-12.903,-7.848 -34.915,-7.136 -35.873,28.828c-0.514,19.338 17.93,48.027 20.129,56.502c0.474,1.826 13.416,92.037 -35.195,83.988c-26.113,-4.324 -34.587,-38.999 -18.973,-78.912c10.967,-28.033 9.494,-74.42 18.96,-97.621c10.554,-25.868 28.157,-30.111 37.511,-30.111c5.576,0 25.185,3.991 34.865,16.653c21.467,28.081 52.296,149.335 23.603,152.912c-41.159,5.131 -32.125,-124.392 -45.027,-132.239Z" style="fill:#170e0b;"/><path d="M840.756,99.54c1.564,5.246 5.873,18.644 7.087,26.054c0.28,1.711 5.278,1.623 8.444,1.324c9.447,-0.89 19.85,-3.077 24.375,-8.673c2.292,-2.837 9.68,-15.144 9.132,-15.387c-9.821,-4.378 -11.309,-20.468 -11.836,-19.871c-8.255,9.344 -10.34,14.647 -19.678,20.109c-9.644,5.64 -17.711,-4.185 -17.524,-3.556Z" style="fill:url(#_Linear4);"/><path d="M772.067,50.972c19.629,-12.217 29.409,-26.013 40.973,-29.765c3.555,-1.153 8.916,0.075 11.323,3.307c0.845,1.136 3.514,4.512 3.817,5.206c0.175,0.401 -0.024,1.18 -0.459,1.23c-2.591,0.3 -3.966,-1.057 -4.281,-1.385c-1.249,-1.301 -2.029,-2.926 -4.1,-3.337c-1.152,-0.229 -6.156,1.178 -7.082,1.737c-0.4,0.242 -0.926,0.818 -0.689,1.221c3.861,6.593 10.661,15.193 8.648,16.19c-6.191,3.069 -13.933,3.016 -15.77,2.982c-3.31,-0.059 -46.344,44.015 -45.692,47.388c0.134,0.688 14.099,6.92 18.612,8.81c14.889,6.236 44.519,19.058 53.45,19.553c3.064,0.17 13.992,0.129 15.998,0.115c1.975,-0.013 -18.541,36.981 -18.84,36.875c-7.525,-2.662 -26.41,-10.124 -32.692,-13.484c-18.414,-9.849 -31.777,-16.238 -52.157,-28.677c-10.326,-6.302 -26.004,-22.584 -22.879,-26.912c6.593,-9.128 28.753,-26.697 51.82,-41.054Z" style="fill:url(#_Linear5);"/><path d="M889.408,102.662c-5.918,7.861 -12.037,17.374 -21.745,21.083c-9.676,3.697 -19.618,-1.225 -20.221,-0.391c-24.697,34.197 -37.008,62.719 -34.527,83.06c2.444,20.039 14.5,39.932 13.173,43.459c-40.339,107.264 -33.446,195.616 -33.078,243.194c0.565,73.012 -8.882,146.313 -8.284,146.706c1.59,1.044 43.589,17.266 87.292,15.931c45.09,-1.377 91.903,-20.339 91.933,-20.869c0.045,-0.799 -29.978,-146.047 -35.142,-281.774c-2.91,-76.469 -5.246,-166.544 -11.084,-215.127c-2.549,-21.215 -7.37,-35.628 -8.514,-36.174c-1.174,-0.559 -8.438,2.608 -11.034,3.174c-3.851,0.839 -7.961,-3.345 -8.769,-2.272Z" style="fill:url(#_Linear6);"/><path d="M923.038,98.082c-2.121,-1.172 -9.907,-0.223 -13.495,2.652c-5.203,4.171 -8.349,21.223 -4.258,39.579c11.422,51.253 26.075,69.907 27.208,89.222c0.362,6.172 -1.41,59.472 -3.076,65.491c-1.256,4.538 -11.196,20.601 -12.29,22.297c-0.634,0.983 -0.633,2.265 -1.147,3.315c-1.71,3.486 -5.507,5.225 -7.905,8.095c-1.527,1.828 -2.54,5.048 -3.016,7.31c-0.539,2.559 -0.976,5.141 -1.318,7.734c-0.057,0.429 -0.245,1.067 0.125,1.293c0.321,0.197 0.678,-0.365 0.924,-0.651c0.673,-0.78 1.138,-1.753 1.583,-2.681c1.066,-2.225 2.724,-7.112 3.058,-9.554c-0.801,5.86 -2.66,8.886 -5.451,13.97c-1.36,2.477 -3.481,4.809 -3.329,7.846c0.265,5.265 8.041,-1.844 8.546,-2.316c5.879,-5.5 6.405,-11.46 9.792,-18.682c0.785,-1.673 -0.945,3.575 -1.519,5.332c-0.853,2.612 -1.674,5.244 -2.759,7.769c-1.991,4.636 -6.684,7.67 -10.393,10.678c-0.461,0.373 -3.026,1.856 -2.009,3.018c2.73,3.122 8.814,-3.414 10.13,-4.455c7.822,-6.192 10.356,-12.344 13.936,-19.969c-2.804,5.973 -5.289,12.902 -10.283,17.571c-2.571,2.404 -5.545,4.354 -8.098,6.776c-0.417,0.395 1.1,1.077 2.943,0.752c1.027,-0.181 6.7,-2.626 8.52,-3.927c6.197,-4.431 9.558,-11.2 13,-17.78c-2.389,4.567 -4.872,9.096 -7.653,13.435c-0.904,1.411 -3.956,3.533 -5.347,4.345c-0.341,0.199 -2.309,1.311 -2.314,2.08c-0.005,0.783 2.883,0.104 3.149,0.059c2.205,-0.37 3.703,-1.131 5.615,-2.34c4.693,-2.967 7.35,-7.139 10.599,-11.931c4.131,-6.091 6.609,-12.121 8.511,-15.921c4.593,-9.178 19.208,-70.824 20.016,-80.382c1.55,-18.325 -6.738,-36.244 -14.169,-65.803c-4.792,-19.063 -10.367,-51.717 -17.423,-70.197c-1.325,-3.471 -5.843,-11.507 -10.403,-14.03Z" style="fill:url(#_Linear7);"/><path d="M922.634,97.888c-2.317,-0.121 -6.47,-2.216 -24.453,7.045c-3.105,1.599 -5.338,3.648 -5.869,5.295c-1.477,4.581 -6.787,18.546 -4.308,38.238c1.098,8.716 11.544,41.275 14.071,49.484c2.04,6.629 3.62,13.394 5.666,20.021c7.904,25.591 9.47,27.189 16.24,50.92c3.632,12.731 2.248,32.582 2.726,32.085c4.214,-4.38 3.559,-12.664 4.709,-12.111c13.435,6.464 22.162,12.36 20.787,16.442c-0.091,0.269 -1.786,7.184 -4.406,15.493c-2.021,6.409 -2.52,7.142 -3.796,9.795c-0.771,1.602 -1.48,3.185 -2.374,4.941c-1.952,3.834 -2.505,4.687 -3.55,6.445c-0.352,0.591 9.631,55.526 17.62,90.664c0.515,2.267 11.498,7.999 12.34,6.529c0.516,-0.9 0.081,-5.101 0.151,-4.835c13.181,49.976 24.793,96.083 39.029,144.304c0.668,2.264 6.471,24.049 8.251,27.026c1.332,2.226 2.742,4.434 4.46,6.378c8.487,9.599 44.923,19.403 50.008,21.608c5.08,2.203 28.939,18.484 32.164,20.928c9.402,7.126 85.573,6.906 100.902,13.731c11.61,5.17 26.405,15.382 28.59,13.408c1.417,-1.28 -6.614,-64.034 -38.377,-118.82c-30.056,-51.841 -84.127,-97.527 -87.519,-102.057c-7.744,-10.34 -15.25,-22.954 -23.593,-35.109c-2.267,-3.304 -5.145,-23.177 -7.971,-31.786c-5.083,-15.484 -8.848,-24.27 -13.751,-36.14c-14.196,-34.372 -36.746,-67.944 -56.986,-100.876c-21.271,-34.61 -33.104,-60.909 -51.953,-98.885c-7.339,-14.786 -10.33,-31.195 -17.573,-46.046c-4.751,-9.742 -10.718,-14.088 -11.235,-14.115Z" style="fill:url(#_Linear8);"/><path d="M881.954,56.681c1.064,-2.419 5.78,-5.531 6.691,-4.434c0.914,1.1 0.917,7.753 -0.554,11.245c-1.115,2.647 -4.357,8.584 -7.558,6.842c-3.505,-1.907 0.093,-10.633 1.421,-13.653Z" style="fill:#f4d2c0;"/><path d="M867.072,24.498c-5.981,-4.511 -14.693,-3.268 -24.119,-0.452c-4.13,1.234 -8.912,4.089 -11.883,7.934c-5.299,6.859 -4.909,27.452 -2.049,44.134c1.566,9.138 9.647,22.048 14.312,26.165c14.028,12.382 37.014,-15.599 38.926,-30.602c1.304,-10.232 0.207,-15.866 -3.168,-33.86c-0.687,-3.661 -9.692,-11.565 -12.019,-13.319Z" style="fill:url(#_Linear9);"/><path d="M838.417,83.196c-0.972,-1.738 -0.912,-2.711 -0.693,-3.859c0.016,-0.087 0.437,-1.756 0.703,-2.79c0.33,-1.279 0.651,-2.193 1.776,-3.043c0.801,-0.604 2.753,1.283 3.736,1.151c1.453,-0.195 1.864,-3.223 5.714,-2.037c1.662,0.512 3.368,1.079 4.729,2.208c0.422,0.368 0.796,0.787 1.114,1.247c0.162,0.231 0.428,1.133 0.317,1.118c-0.047,-0.006 -4.577,6.575 -9.712,7.252c-5.544,0.732 -6.501,0.87 -7.684,-1.247Z" style="fill:#a42828;"/><path d="M796.994,46.559c-0.044,1.206 5.533,1.179 7.986,-0.063c1.872,-0.947 3.529,-2.29 5.136,-3.638c0.834,-0.698 1.938,-2.681 1.938,-2.681c0,0 -1.104,1.983 -1.938,2.681c-1.607,1.348 -3.264,2.691 -5.136,3.638c-2.453,1.242 11.88,1.212 15.378,-1.214c7.162,-4.968 6.916,-6.38 8.815,-5.899c2.539,0.644 6.351,4.263 10.058,3.547c1.009,-0.195 -1.492,-1.428 -2.341,-2.007c-4.12,-2.807 -4.317,-2.346 -8.293,-5.283c-0.509,-0.376 -1.744,-1.745 -2.608,-1.605c-0.908,0.147 -1.689,0.737 -2.495,1.179c-0.579,0.317 -1.651,1.095 -1.651,1.095c0,0 1.072,-0.778 1.651,-1.095c0.806,-0.442 1.587,-1.032 2.495,-1.179c0.864,-0.14 2.099,1.229 2.608,1.605c2.704,1.997 5.626,3.561 8.597,5.233c2.557,1.438 6.583,2.594 6.584,1.321c0.002,-0.978 -10.881,-9.442 -15.85,-11.837c-0.774,-0.373 -2.551,-0.079 -3.277,0.2c-1.349,0.52 -2.649,1.164 -3.945,1.806c1.296,-0.642 2.596,-1.286 3.945,-1.806c0.726,-0.279 2.503,-0.573 3.277,-0.2c5.643,2.72 17.269,12.286 21,9.229c1.496,-1.226 -2.867,-2.421 -4.729,-3.655c-2.654,-1.76 -5.819,-4.075 -8.513,-5.775c-1.906,-1.203 -3.954,-2.166 -5.952,-3.21c-0.945,-0.494 -2.876,-1.404 -2.876,-1.404c0,0 1.931,0.91 2.876,1.404c1.998,1.044 4.046,2.007 5.952,3.21c6.482,4.091 13.865,7.5 17.917,4.481c1.991,-1.484 -6.639,-4.155 -8.286,-4.882c-4.64,-2.048 -9.359,-5.411 -13.376,-8.493c-2.406,-1.847 -5.279,-4.698 -9.965,-2.876c-6.865,2.67 -7.916,1.884 -14.381,5.336c-2.383,1.272 -10.448,18.7 -10.601,22.837Z" style="fill:url(#_Linear10);"/></g></g><defs><linearGradient id="_Linear1" x1="0" y1="0" x2="1" y2="0" gradientUnits="userSpaceOnUse" gradientTransform="matrix(117.07,-729.48,729.48,117.07,635.886,768.496)"><stop offset="0" style="stop-color:#5b9689;stop-opacity:1"/><stop offset="1" style="stop-color:#267160;stop-opacity:1"/></linearGradient><linearGradient id="_Linear2" x1="0" y1="0" x2="1" y2="0" gradientUnits="userSpaceOnUse" gradientTransform="matrix(117.07,-729.48,729.48,117.07,635.886,768.496)"><stop offset="0" style="stop-color:#5b9689;stop-opacity:1"/><stop offset="1" style="stop-color:#267160;stop-opacity:1"/></linearGradient><linearGradient id="_Linear3" x1="0" y1="0" x2="1" y2="0" gradientUnits="userSpaceOnUse" gradientTransform="matrix(117.07,-729.48,729.48,117.07,635.886,768.496)"><stop offset="0" style="stop-color:#5b9689;stop-opacity:1"/><stop offset="1" style="stop-color:#267160;stop-opacity:1"/></linearGradient><linearGradient id="_Linear4" x1="0" y1="0" x2="1" y2="0" gradientUnits="userSpaceOnUse" gradientTransform="matrix(-8.20134,-22.8334,22.8334,-8.20134,870.413,122.496)"><stop offset="0" style="stop-color:#e2b299;stop-opacity:1"/><stop offset="1" style="stop-color:#e3ae92;stop-opacity:1"/></linearGradient><linearGradient id="_Linear5" x1="0" y1="0" x2="1" y2="0" gradientUnits="userSpaceOnUse" gradientTransform="matrix(-17.4155,26.738,-26.738,-17.4155,798.288,113.28)"><stop offset="0" style="stop-color:#e2b299;stop-opacity:1"/><stop offset="1" style="stop-color:#d69b7c;stop-opacity:1"/></linearGradient><linearGradient id="_Linear6" x1="0" y1="0" x2="1" y2="0" gradientUnits="userSpaceOnUse" gradientTransform="matrix(-96.278,-90.6985,90.6985,-96.278,909.426,284.186)"><stop offset="0" style="stop-color:#b00e0e;stop-opacity:1"/><stop offset="1" style="stop-color:#890000;stop-opacity:1"/></linearGradient><linearGradient id="_Linear7" x1="0" y1="0" x2="1" y2="0" gradientUnits="userSpaceOnUse" gradientTransform="matrix(32.4514,6.91351,-6.91351,32.4514,932.363,242.986)"><stop offset="0" style="stop-color:#e2b299;stop-opacity:0.98"/><stop offset="1" style="stop-color:#d99f81;stop-opacity:0.98"/></linearGradient><linearGradient id="_Linear8" x1="0" y1="0" x2="1" y2="0" gradientUnits="userSpaceOnUse" gradientTransform="matrix(340.459,535.833,-535.833,340.459,888.493,124.706)"><stop offset="0" style="stop-color:#fff;stop-opacity:0.8"/><stop offset="1" style="stop-color:#7d98ff;stop-opacity:0.8"/></linearGradient><linearGradient id="_Linear9" x1="0" y1="0" x2="1" y2="0" gradientUnits="userSpaceOnUse" gradientTransform="matrix(-52.3265,-2.0154,2.0154,-52.3265,880.003,61.8041)"><stop offset="0" style="stop-color:#f4d2c0;stop-opacity:1"/><stop offset="1" style="stop-color:#f1b697;stop-opacity:1"/></linearGradient><linearGradient id="_Linear10" x1="0" y1="0" x2="1" y2="0" gradientUnits="userSpaceOnUse" gradientTransform="matrix(26.4083,-17.6739,17.6739,26.4083,805.86,39.1856)"><stop offset="0" style="stop-color:#e2b299;stop-opacity:1"/><stop offset="1" style="stop-color:#dca78c;stop-opacity:1"/></linearGradient></defs></svg>