<svg width="100%" height="100%" viewBox="0 0 1075 620" version="1.1" xmlns="http://www.w3.org/2000/svg" xmlns:xlink="http://www.w3.org/1999/xlink" xml:space="preserve" xmlns:serif="http://www.serif.com/" style="fill-rule:evenodd;clip-rule:evenodd;stroke-linejoin:round;stroke-miterlimit:2;"><g><path d="M223.072,499.433l78.455,0l0,-80.081l47.32,0l0,-71.695l-47.32,0l0,-217.36l-70.661,0l-188.234,225.673l0,63.382l180.44,0l0,80.081Zm-84.76,-151.776l84.76,-101.4l0,101.4l-84.76,0Z" style="fill:#b9b5d5;fill-rule:nonzero;stroke:#b9b5d5;stroke-width:1px;"/><path d="M532.44,505.153c82.175,0 139.327,-62.348 139.327,-147.636l0,-85.825c0,-85.287 -57.152,-147.635 -139.327,-147.635c-83.214,0 -139.848,62.348 -139.848,147.635l0,85.825c0,85.288 56.634,147.635 139.848,147.635l0,0.001Zm0,-77.414c-36.939,0 -61.393,-26.008 -61.393,-70.221l0,-85.825c0,-44.213 24.454,-70.22 61.393,-70.22c35.899,0 60.872,26.007 60.872,70.22l0,85.825c0,44.213 -24.973,70.221 -60.872,70.221Z" style="fill:#b9b5d5;fill-rule:nonzero;stroke:#b9b5d5;stroke-width:1px;"/><path d="M552.44,484.153c82.175,0 139.327,-62.348 139.327,-147.636l0,-85.825c0,-85.287 -57.152,-147.635 -139.327,-147.635c-83.214,0 -139.848,62.348 -139.848,147.635l0,85.825c0,85.288 56.634,147.635 139.848,147.635l0,0.001Zm0,-77.414c-36.939,0 -61.393,-26.008 -61.393,-70.221l0,-85.825c0,-44.213 24.454,-70.22 61.393,-70.22c35.899,0 60.872,26.007 60.872,70.22l0,85.825c0,44.213 -24.973,70.221 -60.872,70.221Z" style="fill:none;fill-rule:nonzero;stroke:#504c80;stroke-width:2px;"/><g><path d="M553.15,439.311c1.365,5.609 1.88,6.718 4.524,10.075c2.227,2.827 4.919,4.218 11.112,7.293c21.993,10.92 77.147,12.179 91.921,19.343c18.354,8.899 49.915,9.634 64.767,7.009c13.864,-2.449 20.507,-4.513 20.515,-4.931c0.019,-0.95 -6.616,-1.552 -8.659,-2.078c-1.792,-0.462 -4.621,-1.692 -6.264,-2.524c-4.311,-2.182 -8.568,-4.469 -12.869,-6.671c-9.906,-5.071 -19.782,-10.345 -30.265,-14.168c-9.428,-3.437 -85.599,-22.662 -94.587,-24.489c-2.409,-0.489 -21.929,-2.374 -28.194,1.644c-2.017,1.294 -12.534,7.308 -12.001,9.497Z" style="fill:#a40505;stroke:#a40505;stroke-width:1px;stroke-linecap:round;stroke-miterlimit:1.5;"/><path d="M604.702,429.891c-0.831,-0.291 -12.756,-3.024 -12.723,-1.922c0.233,7.676 1.635,20.827 2.471,28.466c1.449,13.238 4.559,26.219 6.89,39.307c1.88,10.555 5.128,33.139 4.71,39.099c-0.64,9.116 -2.041,17.253 -4.71,24.021c-2.643,6.702 -14.422,15.388 -12.129,21.028c0.894,2.197 4.867,4.208 6.814,4.508c4.149,0.64 8.237,0.951 12.569,0c6.171,-1.355 17.142,-12.215 17.473,-14.584c0.5,-3.58 -0.678,-9.356 0,-12.927c0.475,-2.508 4.871,-6.088 5.935,-7.326c1.698,-1.978 0.659,-8.678 0,-11.944c-0.882,-4.372 -5.416,-15.778 -6.438,-22.439c-1.347,-8.781 -0.212,-42.843 0,-50.109c0.249,-8.522 -1.71,-28.439 -1.876,-29.605c-0.016,-0.11 -17.396,-5.016 -18.986,-5.573Z" style="fill:#6f928a;stroke:#6f928b;stroke-width:1px;stroke-linecap:round;stroke-miterlimit:1.5;"/><path d="M690.653,455.381c-0.006,-0.807 -31.024,-11.149 -31.057,-10.618c-0.318,5.204 3.136,24.292 3.875,27.011c3.158,11.617 7.077,33.241 7.647,37.651c1.986,15.382 4.496,24.269 0,38.45c-1.626,5.128 -10.662,19.248 -11.09,21.114c-1.032,4.501 2.892,9.061 7.36,9.338c2.034,0.126 6.825,0.117 8.939,0c1.844,-0.102 6.975,-1.181 8.494,-2.099c2.682,-1.622 5.875,-3.188 6.733,-7.502c0.813,-4.088 -1.88,-8.61 0.603,-12.4c1.668,-2.546 4.146,-4.359 5.016,-7.426c0.774,-2.729 0.289,-8.579 0,-10.44c-0.407,-2.617 -1.766,-9.543 -2.475,-11.922c-1.335,-4.476 -2.378,-8.624 -2.767,-13.257c-0.381,-4.524 -0.86,-12.925 -0.893,-16.993c-0.031,-3.886 0.54,-8.507 0.689,-12.382c0.173,-4.549 -1.028,-22.2 -1.074,-28.525Z" style="fill:#6f928a;stroke:#6f928b;stroke-width:1px;stroke-linecap:round;stroke-miterlimit:1.5;"/><path d="M613.261,59.877c-0.511,-3.532 17.433,-6.878 18.395,-6.612c6.658,1.837 13.623,14.133 18.489,21.36c3.566,5.297 3.022,21.995 4.386,29.386c0.439,2.384 -13.976,28.729 -14.381,30.609c-1.528,7.095 11.115,12.868 9.995,16.051c-1.339,3.805 -4.579,4.259 -8.413,6.947c-4.403,3.088 -10.545,-0.604 -12.63,-3.255c-1.598,-2.033 -5.186,-8.377 -4.976,-9.073c1.63,-5.406 4.649,-8.497 4.976,-12.502c0.39,-4.769 -1.615,-23.527 -3.497,-24.954c-2.465,-1.869 -5.554,-2.755 -7.793,-4.949c-1.607,-1.576 -4.75,-18.843 -4.551,-21.552c0.261,-3.549 0.447,-18.362 0,-21.456Z" style="fill:#c78f68;stroke:#3e281e;stroke-width:1px;stroke-linecap:round;stroke-miterlimit:1.5;"/><path d="M620.967,79.391c-0.87,0.41 -3.358,1.571 -1.94,2.837c0.179,0.159 1.739,0.819 1.94,0.85c2.161,0.332 3.082,0.297 5.323,-0.466c0.407,-0.138 1.184,-0.642 1.95,-1.656c0.209,-0.277 0.23,-0.594 -0.178,-0.723c-0.758,-0.238 -1.542,-0.39 -2.325,-0.526c-0.846,-0.146 -4.07,-0.646 -4.77,-0.316Z" style="fill:#b46c41;stroke:#c5765d;stroke-width:1px;stroke-linecap:round;stroke-miterlimit:1.5;"/><path d="M626.241,88.991l2.715,0c0.555,0 1.268,0.076 1.818,0c0.076,-0.01 -0.126,-0.605 -0.244,-0.76c-0.232,-0.303 -0.493,-0.59 -0.793,-0.826c-0.778,-0.612 -1.523,-0.965 -2.532,-1.009c-2.634,-0.114 -2.593,0.296 -5.248,0.401c-0.549,0.022 -1.444,-0.404 -1.98,0.03c-1.062,0.86 -1.31,2.418 -1.481,3.67c-0.059,0.428 0.039,0.889 0.52,1.046c0.822,0.268 1.63,-0.991 2.09,-1.318c1.455,-1.034 3.424,-1.234 5.135,-1.234Z" style="fill:#b84c3c;stroke:#b84c3c;stroke-width:1px;stroke-linecap:round;stroke-miterlimit:1.5;"/><path d="M513.04,92.444c-1.462,-0.697 1.392,-8.861 0,-7.759c-5.317,4.208 -12.075,11.567 -8.783,18.874c0.938,2.083 2.337,4.163 4.016,5.676c2.634,2.376 14.712,12.189 18.113,14.705c19.384,14.339 39.346,28.238 58.786,42.501c0.541,0.397 -6.559,7.63 -6.052,17.464c0.347,6.743 0.775,6.588 3.464,14.632c0.523,1.565 7.559,13.803 6.555,16.586c-3.862,10.701 -14.309,38.594 -15.815,44.589c-11.229,44.681 -23.129,176.188 -19.908,180.405c1.714,2.244 8.854,-7.954 19.908,-10.304c7.836,-1.667 21.006,-0.232 22.423,0c1.21,0.197 21.526,3.577 25.755,5.039c2.428,0.84 44.22,10.974 65.518,21.166c33.582,16.069 59.422,24.719 59.35,21.587c-0.077,-3.301 -23.078,-129.85 -26.323,-140.718c-1.049,-3.516 -2.652,-7.923 -4.219,-11.246c-4.123,-8.748 -32.767,-62.338 -33.61,-63.355c-0.719,-0.867 -1.666,-3.457 -1.179,-3.526c5.701,-0.808 18.249,6.108 19.716,6.243c1.238,0.115 -2.336,-24.187 -2.464,-36.776c-0.252,-24.936 1.812,-36.925 0,-61.786c-0.434,-5.962 -42.034,-25.738 -42.976,-24.108c-4.062,7.023 -9.801,12.652 -17.756,14.969c-2.876,0.838 -6.901,1.39 -9.713,0c-1.209,-0.597 -2.027,-1.654 -2.65,-2.806c-2.179,-4.033 -1.037,-8.396 -0.704,-12.702c0.13,-1.686 0.243,-3.376 0.25,-5.067c0.028,-6.357 -14.158,-16.579 -16.293,-17.55c-5.96,-2.709 -12.962,-3.648 -19.31,-4.713c-10.837,-1.818 -21.874,-2.652 -32.439,-5.822c-4.595,-1.379 -14.478,-5.589 -15.67,-7.718c-1.105,-1.972 1.89,-6.278 4.326,-9.422c1.494,-1.928 2.778,-3.419 2.778,-3.667c0,-0.462 -6.67,2.066 -7.104,2.225c-1.238,0.452 -10.521,2.615 -14.509,3.311c-4.167,0.727 -9.539,0.951 -13.481,-0.927Z" style="fill:#f93131;stroke:#f93131;stroke-width:1px;stroke-linecap:round;stroke-miterlimit:1.5;"/><path d="M608.866,60.968c-1.415,0.64 3.236,6.813 3.042,8.4c-0.175,1.422 -2.242,6.848 -2.606,8.311c-0.886,3.557 -1.295,6.712 -1.465,10.37c-0.186,4.035 3.204,13.569 -0.518,19.629c-5.155,8.394 -11.424,11.61 -14.657,15.858c-5.409,7.108 -10.69,14.916 -9.079,28.764c1.952,16.77 27.797,32.935 49.319,14.722c14.244,-12.054 -16.485,-13.944 -4.056,-28.266c5.813,-6.699 0.488,-24.902 0,-26.313c-0.371,-1.073 -0.909,-2.618 -3.046,-8.532c-0.362,-1.001 -4.788,-0.762 -5.515,-1.709c-1.571,-2.049 -2.013,-4.551 -2.853,-6.988c-0.651,-1.889 -1.72,-3.969 -2.204,-5.92c-0.911,-3.679 -1.018,-5.334 -0.815,-9.113c0.148,-2.753 1.71,-5.194 2.381,-7.803c0.356,-1.384 0.216,-3.268 -0.066,-4.643c-0.462,-2.247 -1.592,-7.966 -1.865,-8.007c-1.264,-0.19 -4.7,0.653 -5.997,1.24Z" style="fill:#613e2f;stroke:#5f3d2e;stroke-width:1px;stroke-linecap:round;stroke-miterlimit:1.5;"/><path d="M633.835,54.994c1.549,2.206 2.295,4.492 3.745,6.754c1.619,2.523 3.266,5.035 5.096,7.409c1.74,2.256 3.817,4.235 5.599,6.458c2.783,3.471 3.63,8.02 4.327,12.385c1.76,11.016 -2.175,22.393 -4.327,26.55c-1.865,3.604 -7.404,12.523 -8.671,14.73c-1.195,2.081 -1.577,4.551 -1.604,6.917c-0.037,3.371 1.799,6.393 3.892,8.884c1.826,2.171 13.011,15.796 14.033,16.884c2.57,2.736 4.403,7.223 2.248,13.384c-1.702,4.87 -4.786,11.186 -1.81,16.216c0.652,1.101 2.164,2.567 3.376,3.219c1.49,0.801 2.907,1.773 6.214,1.703c3.115,-0.065 6.381,-2.313 9.208,-3.502c3.146,-1.323 6.723,-1.078 10.029,-1.015c4.984,0.094 16.624,3.723 17.768,2.814c2.96,-2.351 1.263,-6.753 0.014,-9.52c-0.516,-1.144 -3.411,-5.569 -2.318,-10.759c0.921,-4.368 1.836,-17.752 1.966,-19.975c0.339,-5.834 1.197,-13.273 -2.602,-18.319c-2.775,-3.684 -7.146,-5.946 -10.63,-8.783c-1.899,-1.547 -4.019,-3.637 -4.651,-6.139c-1.23,-4.867 -0.54,-9.716 -0.668,-14.677c-0.351,-13.611 -1.046,-27.487 -3.528,-40.898c-1.41,-7.62 -4.083,-15.825 -9.814,-21.329c-2.804,-2.692 -8.77,-9.338 -23.269,-9.384c-16.28,-0.052 -22.573,3.162 -27.069,5.995c-1.206,0.76 -4.244,2.823 -4.167,2.866c2.314,1.287 16.539,9.604 17.613,11.132Z" style="fill:#613e2f;stroke:#5f3d2e;stroke-width:1px;stroke-linecap:round;stroke-miterlimit:1.5;"/><path d="M516.639,81.698c-2.852,1.573 -3.502,2.972 -4.881,6.46c-0.479,1.212 -0.673,2.542 0,3.492c1.178,1.661 3.128,1.844 4.881,2.1c2.398,0.35 6.359,0.365 9.508,0c3.404,-0.394 7.358,-1.433 10.916,-2.366c3.522,-0.922 7.797,-2.023 10.434,-3.226c2.033,-0.928 3.605,-2.642 5.386,-3.992c1.814,-1.373 3.626,-2.883 5.495,-4.25c2.186,-1.598 4.94,-3.779 7.62,-5.339c3.162,-1.84 7.767,-4.346 11.352,-5.702c3.257,-1.233 6.723,-1.872 10.159,-2.437c3.719,-0.611 8.207,-0.221 12.151,-1.231c4.197,-1.076 9.078,-4.352 13.032,-5.222c3.479,-0.766 7.665,0.398 10.689,0c2.585,-0.341 5.429,-1.203 7.449,-2.388c1.908,-1.12 4.236,-2.175 4.668,-4.721c0.506,-2.988 -5.589,-2.539 -8.375,-3.813c-2.784,-1.272 -5.94,-2.603 -8.346,-3.831c-2.089,-1.066 -4.404,-2.706 -6.085,-3.534c-1.272,-0.626 -2.603,-1.644 -4.005,-1.432c-3.187,0.482 -10.182,2.56 -15.118,4.324c-4.995,1.786 -10.08,4.222 -14.849,6.389c-4.635,2.107 -9.196,4.374 -13.765,6.618c-4.829,2.371 -11.014,5.533 -15.206,7.61c-3.306,1.637 -6.645,3.206 -9.947,4.851c-5.518,2.748 -19.473,9.605 -23.163,11.64Z" style="fill:#caa084;stroke:#caa084;stroke-width:1px;stroke-linecap:round;stroke-miterlimit:1.5;"/><path d="M679.45,259.018c-0.22,-1.743 2.128,-1.08 11.23,-1.375c8.553,-0.278 9.548,2.476 10.315,4.99c1.16,3.804 1.471,9.903 2.828,14.707c2.159,7.643 8.086,25.193 10.125,31.151c0.546,1.595 1.275,3.132 2.111,4.595c0.913,1.599 2.065,3.466 3.366,4.996c1.78,2.093 5.768,5.753 7.311,7.561c0.827,0.969 1.586,2.066 1.951,3.286c0.632,2.117 1.601,6.944 1.843,9.418c0.177,1.803 -0.005,4.053 -0.391,5.422c-0.307,1.088 -1.041,2.087 -1.925,2.793c-1.001,0.799 -2.865,1.765 -4.08,2.001c-1.069,0.208 -2.428,-0.252 -3.213,-0.585c-0.632,-0.269 -1.192,-0.857 -1.496,-1.416c-0.304,-0.559 -0.286,-1.284 -0.33,-1.937c-0.054,-0.824 0,-2.004 0,-3.006c0,-1.046 0.091,-2.185 0,-3.272c-0.139,-1.681 0.137,-4.743 -0.837,-6.813c-1.215,-2.583 -4.764,-5.83 -6.453,-8.686c-1.564,-2.646 -2.257,-5.73 -3.681,-8.454c-4.863,-9.301 -20.717,-38.125 -25.496,-47.354c-1.323,-2.554 -2.827,-5.24 -3.178,-8.022Z" style="fill:#caa084;stroke:#caa084;stroke-width:1px;stroke-linecap:round;stroke-miterlimit:1.5;"/></g><path d="M886.593,499.433l78.454,0l0,-80.081l47.321,0l0,-71.695l-47.321,0l0,-217.36l-70.661,0l-188.233,225.673l0,63.382l180.439,0l0,80.081l0.001,0Zm-84.76,-151.776l84.76,-101.4l0,101.4l-84.76,0Z" style="fill:#b9b5d5;fill-rule:nonzero;stroke:#b9b5d5;stroke-width:1px;"/><path d="M243.072,478.433l78.455,0l0,-80.081l47.32,0l0,-71.695l-47.32,0l0,-217.36l-70.661,0l-188.234,225.673l0,63.382l180.44,0l0,80.081Zm-84.76,-151.776l84.76,-101.4l0,101.4l-84.76,0Z" style="fill:none;fill-rule:nonzero;stroke:#504c80;stroke-width:2px;"/><path d="M906.593,478.433l78.454,0l0,-80.081l47.321,0l0,-71.695l-47.32,0l0,-217.36l-70.662,0l-188.233,225.673l0,63.382l180.44,0l0,80.081Zm-84.76,-151.776l84.76,-101.4l0,101.4l-84.76,0Z" style="fill:none;fill-rule:nonzero;stroke:#504c80;stroke-width:2px;"/></g></svg>