<svg width="100%" height="100%" viewBox="0 0 1004 601" version="1.1" xmlns="http://www.w3.org/2000/svg" xmlns:xlink="http://www.w3.org/1999/xlink" xml:space="preserve" xmlns:serif="http://www.serif.com/" style="fill-rule:evenodd;clip-rule:evenodd;stroke-linejoin:round;stroke-miterlimit:2;"><g><g><path d="M129.5,557.79l23.1,-131.6l-152.6,0l12.6,-74.2l189,-308.7l102.2,0l-53.9,308.7l48.3,0l-12.6,74.2l-49,0l-23.1,131.6l-84,0Zm-32.2,-205.8l68.6,0l28.7,-161l-97.3,161Z" style="fill:#5b9689;fill-rule:nonzero;"/><path d="M483,563.39c-21.409,0.106 -42.614,-4.183 -62.3,-12.6c-19.6,-8.4 -35.117,-21.117 -46.55,-38.15c-11.433,-17.033 -18.2,-36.517 -20.3,-58.45c-2.108,-21.712 -1.284,-43.608 2.45,-65.1l36.4,-206.5c3.376,-19.01 9.261,-37.489 17.5,-54.95c8.488,-18.09 20.234,-34.463 34.65,-48.3c14.246,-13.948 31.312,-24.689 50.05,-31.5c18.16,-6.676 37.352,-10.112 56.7,-10.15l0.7,0c21.409,-0.106 42.614,4.183 62.3,12.6c19.6,8.4 35.117,21.117 46.55,38.15c11.433,17.033 18.2,36.517 20.3,58.45c2.108,21.712 1.284,43.608 -2.45,65.1l-36.4,206.5c-3.271,19.148 -9.16,37.756 -17.5,55.3c-8.652,18.082 -20.511,34.447 -35,48.3c-14.379,14.123 -31.713,24.882 -50.75,31.5c-18.103,6.396 -37.151,9.708 -56.35,9.8Zm0.7,-74.2c13.533,0 26.25,-4.317 38.15,-12.95c11.518,-8.181 20.788,-19.137 26.95,-31.85c5.936,-12.199 10.175,-25.152 12.6,-38.5l36.4,-206.5c1.404,-9.854 2.106,-19.796 2.1,-29.75c0.064,-9.666 -1.595,-19.266 -4.9,-28.35c-3.163,-8.734 -9.055,-16.222 -16.8,-21.35c-7.835,-5.337 -17.12,-8.147 -26.6,-8.05c-13.533,0 -26.25,4.317 -38.15,12.95c-11.518,8.181 -20.788,19.137 -26.95,31.85c-5.936,12.199 -10.175,25.152 -12.6,38.5l-36.4,206.5c-1.867,9.802 -2.688,19.775 -2.45,29.75c0.166,9.676 1.941,19.256 5.25,28.35c3.163,8.734 9.055,16.222 16.8,21.35c7.835,5.337 17.12,8.147 26.6,8.05Zm28,-156.1c-5.595,0.001 -11.111,-1.318 -16.1,-3.85c-4.929,-2.329 -8.628,-6.665 -10.15,-11.9c-1.637,-5.453 -1.878,-11.23 -0.7,-16.8c1.235,-5.997 3.611,-11.701 7,-16.8c3.433,-5.308 8.283,-9.552 14,-12.25c5.554,-2.735 11.659,-4.171 17.85,-4.2c5.636,0.009 11.178,1.455 16.1,4.2c4.908,2.529 8.577,6.957 10.15,12.25c1.637,5.453 1.878,11.23 0.7,16.8c-1.235,5.997 -3.611,11.701 -7,16.8c-3.383,5.267 -8.257,9.41 -14,11.9c-5.614,2.52 -11.696,3.832 -17.85,3.85Z" style="fill:#5b9689;fill-rule:nonzero;"/><path d="M829.5,557.79l23.1,-131.6l-152.6,0l12.6,-74.2l189,-308.7l102.2,0l-53.9,308.7l48.3,0l-12.6,74.2l-49,0l-23.1,131.6l-84,0Zm-32.2,-205.8l68.6,0l28.7,-161l-97.3,161Z" style="fill:#5b9689;fill-rule:nonzero;"/></g><path d="M687.957,561.091c-0.467,-0.2 -0.878,0.517 -1.27,0.839c-0.603,0.513 -1.179,1.056 -1.726,1.628c-1.536,1.558 -3.069,3.12 -4.547,4.734c-1.537,1.573 -2.986,3.231 -4.338,4.966c-3.855,5.285 1.95,13.607 3.542,17.512c0.429,1.052 0.463,1.089 1.679,1.516c4.091,1.437 8.49,1.82 12.793,2.348c1.363,0.147 2.737,0.147 4.1,0c2.535,-0.26 4.995,-1.01 7.245,-2.206c4.075,-2.294 4.7,-8.594 5.572,-12.509c1.989,-8.932 3.377,-17.02 5.846,-21.723c0.114,-0.218 0.15,0.474 0.168,0.719c0.111,1.525 0.159,3.054 0.219,4.582c0.069,1.783 0.341,4.515 0.426,7.818c0.125,4.841 0.037,6.095 0.262,9.406c0.034,0.5 2.073,0.38 2.074,-0.024c0.011,-2.813 -0.152,-5.626 -0.182,-8.439c-0.019,-1.72 0.007,-3.441 0.037,-5.16c0.09,-5.093 0.194,-10.272 1.7,-15.183c1.438,-4.7 4.759,-8.905 4.99,-13.951c0.146,-3.186 -2.022,-6.6 -3.727,-9.1c-0.771,-1.302 -1.647,-2.54 -2.619,-3.7c-0.566,-0.592 -0.121,1.634 -0.186,2.451c-0.395,2.996 -0.997,5.962 -1.8,8.875c-2.005,8.962 -3.2,18.28 -7.93,26.3c-1.711,2.9 -4.464,6.848 -8.013,7.662c-1.773,0.373 -3.606,0.359 -5.373,-0.043c-2.656,-0.451 -5.215,-1.355 -7.565,-2.672c-0.426,-0.205 -1.635,-0.95 -1.212,-0.737c0.55,0.277 -0.072,-0.075 -0.533,-0.357c-0.248,-0.152 -1.118,-0.56 -1.253,-0.921c-0.251,-0.674 1.139,-3.058 1.216,-3.26c0.169,-0.444 0.838,-1.182 0.4,-1.368l0.005,-0.003Z" style="fill:#4e4e4e;"/><path d="M697.691,496.603c-0.316,2.353 -0.379,4.733 -0.188,7.1c0.222,3.536 0.235,7.083 0.036,10.621c-0.36,3.956 -0.952,7.887 -1.775,11.773c-1.121,5.545 -2.405,11.057 -3.481,16.611c-0.543,2.8 -0.819,5.657 -1.375,8.459c-1.079,5.448 -2.252,8.018 -4.329,13.548c-0.027,0.072 -0.516,0.786 -0.255,0.992c3.468,2.741 7.64,4.447 12.035,4.92c1.979,0.329 4.013,-0.002 5.786,-0.941c2.57,-1.548 4.867,-4.853 6.393,-7.294c2.578,-4.121 2.92,-5.984 4.321,-11.06c1.627,-5.9 2.075,-8.883 3.4,-15.01c0.524,-2.429 1.243,-4.821 1.621,-7.277c0.489,-3.182 -0.287,-6.015 -0.962,-9.05c-0.266,-0.683 -0.419,-1.405 -0.451,-2.138c0.976,-3.912 1.987,-5.135 3.814,-17.259c0.251,-1.705 -23.866,-8.334 -24.59,-3.995Z" style="fill:#e8c0a9;"/><path d="M624.492,512.559c0.331,-5.418 -24.906,-4.838 -23.832,0.875c2.747,15.779 2.543,31.931 -0.6,47.635c-0.734,3.821 -1.813,7.567 -3.223,11.193c-0.274,0.723 -1.139,1.779 -1.07,2.661c0.157,2.007 2.157,2.848 3.767,3.21c2.275,0.642 4.61,1.051 6.968,1.221c1.79,-0.066 3.542,-0.536 5.124,-1.376c1.617,-0.883 2.7,-2.9 3.795,-4.238c1.277,-1.559 2.78,-2.883 3.7,-4.731c1.077,-2.169 2.53,-7.088 3.308,-9.264c1.392,-3.89 2.9,-7.737 4.281,-11.63c0.889,-2.315 1.477,-4.735 1.752,-7.2c-0.061,-2.557 -0.387,-5.1 -0.973,-7.589c-0.746,-3.743 -1.668,-7.45 -2.336,-11.208c-0.667,-3.141 -0.889,-6.361 -0.658,-9.564l-0.003,0.005Z" style="fill:#e8c0a9;"/><path d="M597.437,570.973c-0.447,0.001 -0.867,0.216 -1.13,0.577c-5.222,5.877 -12.519,8.916 -12.519,13.68c0,3.589 3.5,7.249 5.389,10.713c0.159,0.459 0.366,0.901 0.616,1.318c0.554,0.505 1.227,0.863 1.956,1.038c2.721,1.014 5.552,1.704 8.434,2.055c2.303,0.219 4.621,0.244 6.928,0.074c1.914,-0.185 5.763,-0.793 7.687,-2.9c1.944,-2.127 2.614,-4.423 3.473,-7.23c1.405,-4.593 2.51,-9.292 3.91,-13.892c1.104,-3.372 2.377,-6.686 3.815,-9.93c0.334,-0.8 0.595,-1.626 0.915,-2.43c0.102,-0.276 0.226,-0.544 0.37,-0.8c0.1,-0.16 0.184,-0.486 0.361,-0.428c0.208,0.069 0.167,0.406 0.215,0.619c0.074,0.321 0.1,0.65 0.151,0.975c0.132,0.862 0.276,1.723 0.392,2.587c0.656,4.555 1.056,9.144 1.2,13.744c0.092,2.746 0.179,5.7 0.314,6.115c0.3,0.943 1.5,0.643 1.766,0.676c0.8,0.1 0.732,-1.681 0.552,-3.206c-0.646,-5.893 -0.932,-11.819 -0.855,-17.747c0.264,-4.231 1.347,-8.371 3.188,-12.19c0.691,-1.6 1.913,-3.685 1.594,-5.552c-0.476,-2.312 -1.323,-4.531 -2.509,-6.572c-0.301,-0.683 -0.659,-1.338 -1.071,-1.96c-1.367,-1.541 -2.901,-2.925 -4.573,-4.128c-0.1,-0.073 -0.1,0.242 -0.071,0.361c0.085,0.24 0.152,0.486 0.2,0.736c0.051,0.839 0.007,1.68 -0.131,2.509c-0.239,0.884 -1.714,5.015 -1.986,5.761c-0.723,1.985 -1.56,3.93 -2.2,5.945c-0.4,1.28 -0.562,2.625 -0.914,3.919c-1.827,6.72 -4.166,13.713 -8.675,19.14c-2.2,2.652 -6.1,4.864 -9.642,4.181c-2.385,-0.549 -4.604,-1.662 -6.471,-3.245c-0.645,-0.435 -1.238,-0.942 -1.769,-1.51c-0.317,-0.39 0.84,-2.071 0.926,-2.3c0.086,-0.229 0.392,-0.666 0.155,-0.7l0.009,-0.003Z" style="fill:#4e4e4e;"/><path d="M728.639,384.324c-0.005,0 6.439,-139.341 11.4,-119.445c3.144,12.621 3.717,12.362 6.5,25.047c3.264,15.425 5.554,31.041 6.855,46.754c1.994,21.7 4.688,51.716 2.928,55.323c-0.6,1.237 -1.453,1.631 -2.049,0.828c-3.453,-4.645 -0.545,-8.379 -6.328,-8.781c-8.035,-0.558 -5.9,0.943 -14.148,1.378c-2.714,0.143 -4.523,-1.27 -5.157,-1.1l-0.001,-0.004Z" style="fill:url(#_Linear1);"/><path d="M641,261.684c-2.322,5.642 -4.318,21.114 -5.085,25.733c-1.877,11.3 -3.291,22.687 -5.706,33.883c-6.548,30.365 -9.9,33.69 -16.85,62.43c-2.4,9.93 -4.349,26.352 -5.525,36.188c-1.623,13.575 -3.44,27.131 -4.7,40.745c-2.059,22.3 -2.561,43.962 -2.436,67.213c0.019,3.676 0.213,4.8 3.563,5.444c7.073,1.354 15.3,-0.161 22.276,-0.884c0.554,-0.058 4.007,0.143 4.066,-1.238c0.82,-19.116 2.518,-25.478 3.006,-27.756c3.938,-18.409 8.405,-30.644 9.37,-46.5c0.533,-8.765 -0.089,-17.572 0.353,-26.342c0.393,-7.8 6.915,-13.538 8.486,-20.95c1.329,-6.266 1.522,-12.736 2.829,-19.006c1.584,-7.6 4.362,-14.92 5.834,-22.541c0.731,-3.785 0.406,-7.7 0.75,-11.541c0.16,-1.8 -0.363,-5.147 1.441,-5.221c3.15,-0.129 3.989,4.931 5.48,7.71c2.107,3.925 3.988,7.967 5.9,11.991c3.607,7.6 7.091,15.254 10.652,22.873c7.859,16.817 8.419,16.592 13.083,35.182c0.452,1.8 -0.752,5.057 -0.708,6.806c0.1,3.782 0.723,7.536 0.884,11.315c0.843,19.754 -0.452,23.769 -2.114,44.418c-0.378,4.694 -0.677,16.645 -0.891,21.349c-0.346,7.607 11.911,10.9 17.29,10.318c0.059,-0.006 9.295,-2.681 9.618,-5.205c0.565,-4.418 -0.121,-8.95 0.566,-13.351c3.976,-25.482 11.9,-48.827 11.291,-74.893c-0.412,-17.735 -5.579,-35.085 -4.073,-52.859c0.687,-8.1 1.331,-16.256 3.094,-24.192c3.1,-13.968 7.7,-22.212 10.313,-36.159c3.435,-18.328 0.278,-37.631 -3.378,-55.607c-1.613,-7.934 -9.084,-2.863 -13.675,-0.746c-4.131,1.9 -8.107,4.2 -12.413,5.672c-10.027,3.417 -22.636,4.039 -33.112,4.991c-9.6,0.873 -19.3,0.858 -28.471,-2.633c-2.43,-0.926 -4.6,-3.733 -6.411,-5.335c-0.754,-0.666 -3.569,-3.809 -4.6,-1.3l0.003,-0.002Z" style="fill:url(#_Linear2);"/><path d="M654.5,18.526c-0.554,-3.83 24.236,-7.12 25.279,-6.831c3.284,0.906 10.864,6.7 12.264,27.861c1.677,25.366 -3.183,66.834 -3.423,67.946c-1.657,7.694 0.14,22.949 -4.018,25.864c-4.774,3.349 -27.63,-2.489 -29.891,-5.363c-1.733,-2.205 1.007,-19.259 1.362,-23.6c0.423,-5.171 13.082,-23.473 11.041,-25.021c-2.673,-2.027 -6.023,-2.988 -8.451,-5.367c-1.743,-1.709 -5.151,-20.434 -4.935,-23.371c0.283,-3.849 1.256,-28.76 0.772,-32.115l0,-0.003Z" style="fill:#db9c78;"/><path d="M656.971,31.84c-1.371,-0.206 -7.856,-6.8 -5.3,-0.683c5.753,13.775 -8.23,36.012 -9.632,47.425c-1.879,15.295 3.848,22.075 7.013,21.591c33.989,-5.2 23.9,-20.486 21.579,-26.9c-0.392,-1.086 -8.495,1.027 -9.283,0c-1.7,-2.222 -2.183,-4.936 -3.094,-7.578c-0.706,-2.049 -1.866,-4.305 -2.39,-6.42c-0.865,-3.351 -1.131,-6.828 -0.787,-10.271c0.16,-2.985 2.727,-4.77 3.028,-9.315c0.323,-4.874 -0.834,-7.805 -1.13,-7.85l-0.004,0.001Z" style="fill:#3e281e;"/><path d="M546.314,54.062c-2.9,1.737 -3.6,3.356 -5.132,7.4c-0.624,1.286 -0.684,2.775 -0.165,4.107c1.087,2 3.007,2.293 4.728,2.663c3.102,0.547 6.264,0.674 9.4,0.378c3.691,-0.501 7.337,-1.286 10.907,-2.35c3.579,-0.833 7.082,-1.964 10.472,-3.381c2.054,-1.01 3.69,-2.964 5.515,-4.481c1.858,-1.543 3.722,-3.247 5.635,-4.781c2.489,-2.128 5.088,-4.124 7.788,-5.977c3.659,-2.391 7.505,-4.483 11.5,-6.256c3.281,-1.209 6.691,-2.036 10.162,-2.463c3.707,-0.571 8.127,0.065 12.075,-0.966c4.2,-1.1 8.259,-7.225 12.211,-8.091c3.476,-0.763 8.486,3.238 11.5,2.89c2.644,-0.294 5.194,-1.151 7.479,-2.513c1.94,-1.242 4.292,-2.39 4.84,-5.368c0.641,-3.494 -5.408,-3.207 -8.1,-4.816c-2.692,-1.609 -5.752,-3.3 -8.074,-4.837c-2.016,-1.337 -4.228,-3.357 -5.851,-4.4c-1.229,-0.787 -2.5,-2.037 -3.894,-1.843c-3.174,0.441 -10.19,2.607 -15.155,4.486c-5.025,1.9 -10.169,4.566 -14.987,6.926c-4.684,2.294 -9.3,4.779 -13.926,7.237c-4.888,2.6 -11.154,6.071 -15.4,8.347c-3.347,1.795 -6.723,3.508 -10.066,5.311c-5.587,3.014 -19.712,10.525 -23.457,12.772l-0.005,0.006Z" style="fill:#e8c0a9;"/><path d="M657.625,127.673c6.4,4.1 -27.619,15.328 -34.485,10.213c-4.582,-3.414 -14.686,-9.323 -18.922,-11.8c-7.775,-4.542 -15.734,-8.785 -23.3,-13.665c-6.649,-4.289 -24.991,-18.232 -31.684,-23.73c-3.861,-3.172 -7.7,-6.382 -11.276,-9.877c-6.606,-6.464 -2.534,-16.525 2.736,-21.928c6.265,-6.424 14.131,-9.794 22.025,-13.732c3.107,-1.55 20.55,-10.4 21.255,-10.366c1.079,0.053 -0.91,0.28 -0.985,1.745c-0.096,0.99 0.098,1.987 0.557,2.87c1.351,2.742 2.966,5.346 4.823,7.775c1.41,1.332 3.077,2.361 4.9,3.024c2.42,0.842 4.785,-3.168 7.041,-2.75c0.541,0.1 -0.027,1.165 -0.345,1.612c-0.591,0.702 -1.292,1.305 -2.074,1.786c-2.242,1.634 -4.625,3.07 -6.854,4.723c-5.9,4.371 -11.005,8.585 -14.687,14.975c-0.463,0.8 -1.4,1.609 -1.192,2.513c0.424,1.152 1.269,2.102 2.364,2.656c4.8,3.04 15.442,7.022 20.13,8.846c12.107,4.712 24.244,8.6 36.612,12.494c3.44,1.083 6.6,3.54 10.2,3.591c4.228,0.06 8.4,-1.012 12.6,-1.463c1.125,-0.12 2.338,-0.786 3.375,-0.337c2.134,0.923 -2.13,9.435 -3.7,13.391c-4.04,10.192 -1.887,15.655 0.886,17.432l0,0.002Z" style="fill:url(#_Linear3);"/><path d="M738.791,258.604c3.049,40.684 -4.1,56.668 -6.577,71.493c-4.14,24.774 -4.917,24.611 -6.891,49.637c-0.906,11.493 -0.443,9.42 -1.2,17.774c-0.414,4.582 -5.191,5.021 -13.1,6.812c-5.833,1.306 -11.756,2.178 -17.718,2.606c-15.639,1.365 -30.591,-0.913 -45.981,-3.937c-11.716,-2.3 -25.482,-4.813 -36.11,-11.19c-0.386,-0.232 -1.269,-0.582 -1.224,-1.031c6.544,-64.986 19.038,-80.427 23,-118.27c0.982,-9.389 1.871,-19.042 2.64,-28.451c1.584,-19.372 1.782,-19.3 0.686,-36.389c-0.178,-2.779 -0.141,-7.324 -1.222,-10.011c-2.322,-5.775 -7.18,-7.58 -11.425,-13.358c-4.213,-5.67 -6.747,-12.412 -7.312,-19.453c-0.361,-6.552 0.329,-12.363 3.149,-18.211c2.157,-4.474 2.977,-6.168 7.49,-14.289c25.025,-45.035 22.256,-8.693 30.837,-4.518c6.839,3.328 13.044,4.627 20.006,3.776c10.981,-1.344 13.633,-3.725 23.9,-7.822c13.2,-5.27 21.271,-17.612 25.595,-17.023c2.489,0.307 4.94,0.873 7.312,1.688c2.222,0.701 4.312,1.765 6.187,3.149c1.144,0.918 1.641,2.436 2.363,3.713c5.608,9.92 -16.64,57.9 -17.228,60.548c-0.588,2.648 -3.83,8.246 -4.734,10.815c-1.914,5.443 -7.284,13.423 -4.218,19.159c3.39,6.343 4.291,5.94 9.529,16.189c9.837,19.249 11.439,25.726 12.253,36.594l-0.007,0Z" style="fill:url(#_Linear4);"/><path d="M721.234,186.662c-3.526,3.88 -16.438,13.102 -27.733,11.607c-25.186,-3.333 -19.068,-2.596 -25.263,-2.987c-6.7,-0.422 -14.924,3.529 -29.635,0.952c-6.131,-1.074 -10.689,-6.167 -14.934,-11.945c-4.213,-5.67 -6.747,-12.412 -7.312,-19.453c-0.361,-6.552 0.329,-12.363 3.149,-18.211c2.157,-4.474 2.977,-6.168 7.49,-14.289c25.025,-45.035 22.256,-8.693 30.837,-4.518c6.839,3.328 13.044,4.627 20.006,3.776c10.981,-1.344 13.633,-3.725 23.9,-7.822c13.2,-5.27 21.271,-17.612 25.595,-17.023c2.489,0.307 4.94,0.873 7.312,1.688c2.222,0.701 4.312,1.765 6.187,3.149c1.144,0.918 1.641,2.436 2.363,3.713c5.608,9.92 -16.64,57.9 -17.228,60.548c-0.588,2.648 -2.902,8.8 -4.734,10.815Z" style="fill:url(#_Linear5);"/><path d="M708.55,250.24c-8.885,6.865 -11.176,6.287 -20.6,9.75c-4.865,1.787 -8.122,9.325 -11.792,12.84c-2.456,2.352 -4.57,4.445 -2.88,4.725c1.8,0.3 5.606,-3.308 5.642,-2.662c0.069,1.252 -6.2,7.166 -7.294,8.839c-0.089,0.136 -2.586,6.659 -0.457,8.438c2.071,1.73 7.839,1.637 9.585,1.756c1.553,0.105 8.948,-2.448 9.948,-3.1c5.3,-3.462 11.413,-6.7 16.439,-10.5c5.552,-4.207 7.684,-10.74 11.621,-16.2c2.084,-2.893 8.017,-10.913 8,-12.029c-0.079,-5.272 -5.1,-7.982 -9.987,-8.4c-2.327,-0.2 -6.4,3.89 -8.22,6.555l-0.005,-0.012Z" style="fill:#e8c0a9;"/><path d="M718.565,151.02c2.519,8.332 5.7,16.583 7.458,25.124c0.826,4.017 1.2,8.122 2.07,12.129c1.382,6.328 3.025,12.6 4.694,18.856c0.262,0.982 1.767,3.493 1.342,4.707c-3.056,8.716 -8.368,16.6 -14.334,23.552c-2.834,3.3 -6.472,5.831 -9.491,8.965c-1.615,1.69 -3.085,3.512 -4.394,5.449c-0.46,0.674 -1.7,2.285 -0.879,2.285c3.708,0 4.005,-3.575 6.5,-0.879c2.584,2.787 4.275,9.142 5.449,12.479c0.74,2.1 0.089,5.592 2.638,6.02c4.719,0.793 12.3,-7.634 14.947,-10.241c7.318,-7.2 12.792,-15.236 18.668,-23.571c1.489,-2.112 3.6,-3.809 4.765,-6.114c2.54,-5.015 2.568,-16.913 2.853,-20.757l-0.542,-11.769l-2.6,-17.939l-3.871,-23.19l-1.816,-14.333l-2.8,-12.893l-3.3,-8.366l-4.1,-7.812l-5.573,-3.678l-11.292,13.467l-5.344,15.467l-1.045,13.042l-0.003,0Z" style="fill:url(#_Linear6);"/><path d="M654.5,18.527c5.735,0.592 17.167,-10.156 27.633,-1.118c8.7,7.516 9.033,29.416 7.323,46.052c-1.952,19 -9.2,49.383 -4.115,83.215c1.123,7.476 7.182,34.9 40.615,29.171c22.216,-3.806 27.582,-21.023 24.792,-39.9c-3.066,-20.74 -7.5,-39.213 -14.993,-67.7c-8.234,-31.309 -20,-51.183 -26.218,-57.152c-3.037,-2.921 -13.457,-10.505 -29.18,-10.555c-17.657,-0.056 -35.327,17.007 -25.857,17.987Z" style="fill:#3e281e;"/><path d="M659.9,61.096c1.87,0.3 10.971,-1.867 10.971,-1.867c0.582,-0.306 1.183,-0.573 1.8,-0.8c0.08,-0.024 0.143,0.655 0.095,0.86c-0.1,0.4 -2.75,2.665 -4.429,4.957c-0.782,1.067 -4.533,1.863 -5.474,1.025c-1.918,-1.706 -3.015,-2.906 -3.015,-2.906c0,0 -0.49,-1.351 0.052,-1.265l0,-0.004Z" style="fill:#d82929;"/><path d="M667.8,58.94l2.945,0c0.656,0.044 1.315,0.044 1.971,0c0.083,-0.011 -0.137,-0.656 -0.264,-0.824c-0.248,-0.335 -0.537,-0.637 -0.86,-0.9c-1.041,-0.805 -2.272,-1.33 -3.574,-1.524c-2.856,-0.124 -3.124,1.478 -4.2,1.659c-0.728,0.123 -2.228,-1.232 -2.809,-0.762c-1.152,0.933 -1.421,2.623 -1.606,3.98c-0.177,1.3 0.1,1.434 0.563,1.135c1.587,-1.034 1.768,-1.075 2.267,-1.43c1.679,-0.995 3.62,-1.461 5.567,-1.334Z" style="fill:#a42828;"/><path d="M662.083,48.54c-0.943,0.444 -3.641,1.7 -2.1,3.076c0.671,0.369 1.374,0.678 2.1,0.922c1.93,0.423 3.944,0.248 5.773,-0.5c0.854,-0.398 1.585,-1.02 2.114,-1.8c0.227,-0.3 0.25,-0.644 -0.193,-0.784c-0.827,-0.245 -1.669,-0.436 -2.521,-0.571c-0.918,-0.158 -4.414,-0.7 -5.173,-0.342l0,-0.001Z" style="fill:#b46c41;"/></g><defs><linearGradient id="_Linear1" x1="0" y1="0" x2="1" y2="0" gradientUnits="userSpaceOnUse" gradientTransform="matrix(38.4249,96.0171,-96.0171,38.4249,718.467,297.232)"><stop offset="0" style="stop-color:#340404;stop-opacity:1"/><stop offset="1" style="stop-color:#c61616;stop-opacity:1"/></linearGradient><linearGradient id="_Linear2" x1="0" y1="0" x2="1" y2="0" gradientUnits="userSpaceOnUse" gradientTransform="matrix(143.158,-242.156,242.156,143.158,600.726,529.312)"><stop offset="0" style="stop-color:#dedfeb;stop-opacity:1"/><stop offset="1" style="stop-color:#6f76b7;stop-opacity:1"/></linearGradient><linearGradient id="_Linear3" x1="0" y1="0" x2="1" y2="0" gradientUnits="userSpaceOnUse" gradientTransform="matrix(-34.9024,39.8207,-39.8207,-34.9024,610.784,69.1341)"><stop offset="0" style="stop-color:#b00e0e;stop-opacity:1"/><stop offset="1" style="stop-color:#800808;stop-opacity:1"/></linearGradient><linearGradient id="_Linear4" x1="0" y1="0" x2="1" y2="0" gradientUnits="userSpaceOnUse" gradientTransform="matrix(22.3373,-33.5649,33.5649,22.3373,658.829,230.197)"><stop offset="0" style="stop-color:#b00e0e;stop-opacity:1"/><stop offset="1" style="stop-color:#860909;stop-opacity:1"/></linearGradient><linearGradient id="_Linear5" x1="0" y1="0" x2="1" y2="0" gradientUnits="userSpaceOnUse" gradientTransform="matrix(40.4011,51.9426,-51.9426,40.4011,661.296,145.788)"><stop offset="0" style="stop-color:#b00e0e;stop-opacity:1"/><stop offset="1" style="stop-color:#860909;stop-opacity:1"/></linearGradient><linearGradient id="_Linear6" x1="0" y1="0" x2="1" y2="0" gradientUnits="userSpaceOnUse" gradientTransform="matrix(-27.3462,0.865038,-0.865038,-27.3462,760.642,213.191)"><stop offset="0" style="stop-color:#b00e0e;stop-opacity:1"/><stop offset="1" style="stop-color:#6e0707;stop-opacity:1"/></linearGradient></defs></svg>