<svg xmlns="http://www.w3.org/2000/svg" xmlns:xlink="http://www.w3.org/1999/xlink" width="1003.8" height="600.54" viewBox="0 0 1003.8 600.54"><defs><linearGradient id="a" x1="1.167" y1="-0.016" x2="0.869" y2="1.044" gradientUnits="objectBoundingBox"><stop offset="0" stop-color="#647db9"/><stop offset="1" stop-color="#d83949"/></linearGradient><linearGradient id="d" y1="0.301" x2="1" y2="1.022" gradientUnits="objectBoundingBox"><stop offset="0" stop-color="#b00e0e"/><stop offset="1" stop-color="#7f0e0e"/></linearGradient><linearGradient id="e" x1="0.425" y1="0.965" x2="0.414" y2="-0.017" gradientUnits="objectBoundingBox"><stop offset="0" stop-color="#d1d1d1"/><stop offset="1" stop-color="#939393"/></linearGradient><linearGradient id="f" x1="0.862" y1="0.604" x2="0" y2="0.732" xlink:href="#d"/><linearGradient id="g" x1="0.5" y1="0.366" x2="0.5" y2="1" xlink:href="#d"/><linearGradient id="h" x1="0.769" y1="0.234" x2="0.132" y2="0.97" xlink:href="#d"/></defs><g transform="translate(-35.6 -24.46)"><path d="M165.1,582.25l23.1-131.6H35.6l12.6-74.2,189-308.7H339.4l-53.9,308.7h48.3l-12.6,74.2h-49l-23.1,131.6Zm-32.2-205.8h68.6l28.7-161-97.3,161Z" fill="url(#a)"/><path d="M518.6,587.85a156.489,156.489,0,0,1-62.3-12.6q-29.4-12.6-46.55-38.15t-20.3-58.45a243.067,243.067,0,0,1,2.45-65.1l36.4-206.5a218.154,218.154,0,0,1,17.5-54.95,162.8,162.8,0,0,1,34.65-48.3A139.83,139.83,0,0,1,530.5,72.3a165.262,165.262,0,0,1,56.7-10.15h.7a156.489,156.489,0,0,1,62.3,12.6q29.4,12.6,46.55,38.15t20.3,58.45a243.067,243.067,0,0,1-2.45,65.1l-36.4,206.5a211.944,211.944,0,0,1-17.5,55.3,165.884,165.884,0,0,1-35,48.3,136.281,136.281,0,0,1-50.75,31.5,171.624,171.624,0,0,1-56.35,9.8Zm.7-74.2q20.3,0,38.15-12.95a84.012,84.012,0,0,0,26.95-31.85,148.742,148.742,0,0,0,12.6-38.5l36.4-206.5a210.1,210.1,0,0,0,2.1-29.75,81.348,81.348,0,0,0-4.9-28.35,43.283,43.283,0,0,0-16.8-21.35,46.407,46.407,0,0,0-26.6-8.05q-20.3,0-38.15,12.95a84.012,84.012,0,0,0-26.95,31.85,148.744,148.744,0,0,0-12.6,38.5l-36.4,206.5a141.028,141.028,0,0,0-2.45,29.75,87.291,87.291,0,0,0,5.25,28.35,43.283,43.283,0,0,0,16.8,21.35,46.408,46.408,0,0,0,26.6,8.05Zm28-156.1a35.549,35.549,0,0,1-16.1-3.85,19.041,19.041,0,0,1-10.15-11.9,33.976,33.976,0,0,1-.7-16.8,47.751,47.751,0,0,1,7-16.8,33.911,33.911,0,0,1,14-12.25,40.841,40.841,0,0,1,17.85-4.2,33.167,33.167,0,0,1,16.1,4.2,20.28,20.28,0,0,1,10.15,12.25,33.976,33.976,0,0,1,.7,16.8,47.751,47.751,0,0,1-7,16.8,31.562,31.562,0,0,1-14,11.9A43.914,43.914,0,0,1,547.3,357.55Z" fill="url(#a)"/><path d="M865.1,582.25l23.1-131.6H735.6l12.6-74.2,189-308.7h102.2l-53.9,308.7h48.3l-12.6,74.2h-49l-23.1,131.6Zm-32.2-205.8h68.6l28.7-161Z" fill="url(#a)"/><path d="M723.557,585.551c-.467-.2-.878.517-1.27.839a23.074,23.074,0,0,0-1.726,1.628c-1.536,1.558-3.069,3.12-4.547,4.734a59.027,59.027,0,0,0-4.338,4.966c-3.855,5.285,1.95,13.607,3.542,17.512.429,1.052.463,1.089,1.679,1.516,4.091,1.437,8.49,1.82,12.793,2.348a19.132,19.132,0,0,0,4.1,0,19.722,19.722,0,0,0,7.245-2.206c4.075-2.294,4.7-8.594,5.572-12.509,1.989-8.932,3.377-17.02,5.846-21.723.114-.218.15.474.168.719.111,1.525.159,3.054.219,4.582.069,1.783.341,4.515.426,7.818.125,4.841.037,6.095.262,9.406.034.5,2.073.38,2.074-.024.011-2.813-.152-5.626-.182-8.439-.019-1.72.007-3.441.037-5.16.09-5.093.194-10.272,1.7-15.183,1.438-4.7,4.759-8.905,4.99-13.951.146-3.186-2.022-6.6-3.727-9.1a27.861,27.861,0,0,0-2.619-3.7c-.566-.592-.121,1.634-.186,2.451a65.705,65.705,0,0,1-1.8,8.875c-2.005,8.962-3.2,18.28-7.93,26.3-1.711,2.9-4.464,6.848-8.013,7.662a12.563,12.563,0,0,1-5.373-.043,23.546,23.546,0,0,1-7.565-2.672c-.426-.205-1.635-.95-1.212-.737.55.277-.072-.075-.533-.357-.248-.152-1.118-.56-1.253-.921-.251-.674,1.139-3.058,1.216-3.26.169-.444.838-1.182.4-1.368Z" fill="#4e4e4e" fill-rule="evenodd"/><path d="M733.291,521.063a33.3,33.3,0,0,0-.188,7.1,89.392,89.392,0,0,1,.036,10.621,100.993,100.993,0,0,1-1.775,11.773c-1.121,5.545-2.405,11.057-3.481,16.611-.543,2.8-.819,5.657-1.375,8.459-1.079,5.448-2.252,8.018-4.329,13.548-.027.072-.516.786-.255.992a23.462,23.462,0,0,0,12.035,4.92,9.154,9.154,0,0,0,5.786-.941c2.57-1.548,4.867-4.853,6.393-7.294,2.578-4.121,2.92-5.984,4.321-11.06,1.627-5.9,2.075-8.883,3.4-15.01.524-2.429,1.243-4.821,1.621-7.277.489-3.182-.287-6.015-.962-9.05a6.7,6.7,0,0,1-.451-2.138c.976-3.912,1.987-5.135,3.814-17.259C758.132,523.353,734.015,516.724,733.291,521.063Z" fill="#e8c0a9" fill-rule="evenodd"/><path d="M660.092,537.019c.331-5.418-24.906-4.838-23.832.875a129.523,129.523,0,0,1-.6,47.635,64.387,64.387,0,0,1-3.223,11.193c-.274.723-1.139,1.779-1.07,2.661.157,2.007,2.157,2.848,3.767,3.21a34.843,34.843,0,0,0,6.968,1.221,11.852,11.852,0,0,0,5.124-1.376c1.617-.883,2.7-2.9,3.795-4.238,1.277-1.559,2.78-2.883,3.7-4.731,1.077-2.169,2.53-7.088,3.308-9.264,1.392-3.89,2.9-7.737,4.281-11.63a29.073,29.073,0,0,0,1.752-7.2,36.966,36.966,0,0,0-.973-7.589c-.746-3.743-1.668-7.45-2.336-11.208a34.2,34.2,0,0,1-.658-9.564Z" fill="#e8c0a9" fill-rule="evenodd"/><path d="M633.037,595.433a1.4,1.4,0,0,0-1.13.577c-5.222,5.877-12.519,8.916-12.519,13.68,0,3.589,3.5,7.249,5.389,10.713a7.035,7.035,0,0,0,.616,1.318,4.445,4.445,0,0,0,1.956,1.038,36.9,36.9,0,0,0,8.434,2.055,41.235,41.235,0,0,0,6.928.074c1.914-.185,5.763-.793,7.687-2.9,1.944-2.127,2.614-4.423,3.473-7.23,1.405-4.593,2.51-9.292,3.91-13.892a105.323,105.323,0,0,1,3.815-9.93c.334-.8.595-1.626.915-2.43a5.569,5.569,0,0,1,.37-.8c.1-.16.184-.486.361-.428.208.069.167.406.215.619.074.321.1.65.151.975.132.862.276,1.723.392,2.587a123.49,123.49,0,0,1,1.2,13.744c.092,2.746.179,5.7.314,6.115.3.943,1.5.643,1.766.676.8.1.732-1.681.552-3.206a145.465,145.465,0,0,1-.855-17.747,32.776,32.776,0,0,1,3.188-12.19c.691-1.6,1.913-3.685,1.594-5.552a21.851,21.851,0,0,0-2.509-6.572,13.121,13.121,0,0,0-1.071-1.96,27.862,27.862,0,0,0-4.573-4.128c-.1-.073-.1.242-.071.361a5.089,5.089,0,0,1,.2.736,11.167,11.167,0,0,1-.131,2.509c-.239.884-1.714,5.015-1.986,5.761-.723,1.985-1.56,3.93-2.2,5.945-.4,1.28-.562,2.625-.914,3.919-1.827,6.72-4.166,13.713-8.675,19.14-2.2,2.652-6.1,4.864-9.642,4.181a15.327,15.327,0,0,1-6.471-3.245,10.332,10.332,0,0,1-1.769-1.51c-.317-.39.84-2.071.926-2.3s.392-.666.155-.7Z" fill="#4e4e4e" fill-rule="evenodd"/><path d="M764.239,408.784c-.005,0,6.439-139.341,11.4-119.445,3.144,12.621,3.717,12.362,6.5,25.047a375.512,375.512,0,0,1,6.855,46.754c1.994,21.7,4.688,51.716,2.928,55.323-.6,1.237-1.453,1.631-2.049.828-3.453-4.645-.545-8.379-6.328-8.781-8.035-.558-5.9.943-14.148,1.378-2.714.143-4.523-1.27-5.157-1.1Z" fill-rule="evenodd" fill="url(#d)"/><path d="M676.6,286.144c-2.322,5.642-4.318,21.114-5.085,25.733-1.877,11.3-3.291,22.687-5.706,33.883-6.548,30.365-9.9,33.69-16.85,62.43-2.4,9.93-4.349,26.352-5.525,36.188-1.623,13.575-3.44,27.131-4.7,40.745-2.059,22.3-2.561,43.962-2.436,67.213.019,3.676.213,4.8,3.563,5.444,7.073,1.354,15.3-.161,22.276-.884.554-.058,4.007.143,4.066-1.238.82-19.116,2.518-25.478,3.006-27.756,3.938-18.409,8.405-30.644,9.37-46.5.533-8.765-.089-17.572.353-26.342.393-7.8,6.915-13.538,8.486-20.95,1.329-6.266,1.522-12.736,2.829-19.006,1.584-7.6,4.362-14.92,5.834-22.541.731-3.785.406-7.7.75-11.541.16-1.8-.363-5.147,1.441-5.221,3.15-.129,3.989,4.931,5.48,7.71,2.107,3.925,3.988,7.967,5.9,11.991,3.607,7.6,7.091,15.254,10.652,22.873,7.859,16.817,8.419,16.592,13.083,35.182.452,1.8-.752,5.057-.708,6.806.1,3.782.723,7.536.884,11.315.843,19.754-.452,23.769-2.114,44.418-.378,4.694-.677,16.645-.891,21.349-.346,7.607,11.911,10.9,17.29,10.318.059-.006,9.295-2.681,9.618-5.205.565-4.418-.121-8.95.566-13.351,3.976-25.482,11.9-48.827,11.291-74.893-.412-17.735-5.579-35.085-4.073-52.859.687-8.1,1.331-16.256,3.094-24.192,3.1-13.968,7.7-22.212,10.313-36.159,3.435-18.328.278-37.631-3.378-55.607-1.613-7.934-9.084-2.863-13.675-.746-4.131,1.9-8.107,4.2-12.413,5.672-10.027,3.417-22.636,4.039-33.112,4.991-9.6.873-19.3.858-28.471-2.633-2.43-.926-4.6-3.733-6.411-5.335-.754-.666-3.569-3.809-4.6-1.3Z" fill-rule="evenodd" fill="url(#e)"/><path d="M690.1,42.986c-.554-3.83,24.236-7.12,25.279-6.831,3.284.906,10.864,6.7,12.264,27.861,1.677,25.366-3.183,66.834-3.423,67.946-1.657,7.694.14,22.949-4.018,25.864-4.774,3.349-27.63-2.489-29.891-5.363-1.733-2.205,1.007-19.259,1.362-23.6.423-5.171,13.082-23.473,11.041-25.021-2.673-2.027-6.023-2.988-8.451-5.367-1.743-1.709-5.151-20.434-4.935-23.371.283-3.849,1.256-28.76.772-32.115Z" fill="#db9c78" fill-rule="evenodd"/><path d="M692.571,56.3c-1.371-.206-7.856-6.8-5.3-.683,5.753,13.775-8.23,36.012-9.632,47.425-1.879,15.295,3.848,22.075,7.013,21.591,33.989-5.2,23.9-20.486,21.579-26.9-.392-1.086-8.495,1.027-9.283,0-1.7-2.222-2.183-4.936-3.094-7.578-.706-2.049-1.866-4.305-2.39-6.42a29.392,29.392,0,0,1-.787-10.271c.16-2.985,2.727-4.77,3.028-9.315.323-4.874-.834-7.805-1.13-7.85Z" fill="#3e281e" stroke="#3e281e" stroke-linecap="round" stroke-linejoin="round" stroke-miterlimit="1.5" stroke-width="1.08" fill-rule="evenodd"/><path d="M581.914,78.522c-2.9,1.737-3.6,3.356-5.132,7.4a5.137,5.137,0,0,0-.165,4.107c1.087,2,3.007,2.293,4.728,2.663a35.121,35.121,0,0,0,9.4.378,72.187,72.187,0,0,0,10.907-2.35,65.8,65.8,0,0,0,10.472-3.381c2.054-1.01,3.69-2.964,5.515-4.481,1.858-1.543,3.722-3.247,5.635-4.781a92.721,92.721,0,0,1,7.788-5.977,81.235,81.235,0,0,1,11.5-6.256,45.418,45.418,0,0,1,10.162-2.463c3.707-.571,8.127.065,12.075-.966,4.2-1.1,8.259-7.225,12.211-8.091,3.476-.763,8.486,3.238,11.5,2.89a18.626,18.626,0,0,0,7.479-2.513c1.94-1.242,4.292-2.39,4.84-5.368.641-3.494-5.408-3.207-8.1-4.816s-5.752-3.3-8.074-4.837c-2.016-1.337-4.228-3.357-5.851-4.4-1.229-.787-2.5-2.037-3.894-1.843-3.174.441-10.19,2.607-15.155,4.486-5.025,1.9-10.169,4.566-14.987,6.926-4.684,2.294-9.3,4.779-13.926,7.237-4.888,2.6-11.154,6.071-15.4,8.347-3.347,1.795-6.723,3.508-10.066,5.311-5.587,3.014-19.712,10.525-23.457,12.772Z" fill="#e8c0a9" stroke="#e8c0a9" stroke-linecap="round" stroke-linejoin="round" stroke-miterlimit="1.5" stroke-width="1.09" fill-rule="evenodd"/><path d="M693.225,152.133c6.4,4.1-27.619,15.328-34.485,10.213-4.582-3.414-14.686-9.323-18.922-11.8-7.775-4.542-15.734-8.785-23.3-13.665-6.649-4.289-24.991-18.232-31.684-23.73-3.861-3.172-7.7-6.382-11.276-9.877-6.606-6.464-2.534-16.525,2.736-21.928,6.265-6.424,14.131-9.794,22.025-13.732,3.107-1.55,20.55-10.4,21.255-10.366,1.079.053-.91.28-.985,1.745a5.144,5.144,0,0,0,.557,2.87,47.022,47.022,0,0,0,4.823,7.775,14.211,14.211,0,0,0,4.9,3.024c2.42.842,4.785-3.168,7.041-2.75.541.1-.027,1.165-.345,1.612a8.589,8.589,0,0,1-2.074,1.786c-2.242,1.634-4.625,3.07-6.854,4.723-5.9,4.371-11.005,8.585-14.687,14.975-.463.8-1.4,1.609-1.192,2.513a4.854,4.854,0,0,0,2.364,2.656c4.8,3.04,15.442,7.022,20.13,8.846,12.107,4.712,24.244,8.6,36.612,12.494,3.44,1.083,6.6,3.54,10.2,3.591,4.228.06,8.4-1.012,12.6-1.463,1.125-.12,2.338-.786,3.375-.337,2.134.923-2.13,9.435-3.7,13.391-4.04,10.192-1.887,15.655.886,17.432Z" fill-rule="evenodd" fill="url(#f)"/><path d="M774.391,283.064c3.049,40.684-4.1,56.668-6.577,71.493-4.14,24.774-4.917,24.611-6.891,49.637-.906,11.493-.443,9.42-1.2,17.774-.414,4.582-5.191,5.021-13.1,6.812a120.623,120.623,0,0,1-17.718,2.606c-15.639,1.365-30.591-.913-45.981-3.937-11.716-2.3-25.482-4.813-36.11-11.19-.386-.232-1.006-.565-.9-1,4.229-18.231,6.022-30.542,10.238-48.776,1.234-5.334,3.659-16.735,6.679-31.77a341.97,341.97,0,0,0,5.759-37.751c.91-9.4,1.871-19.042,2.64-28.451,1.584-19.372,1.782-19.3.686-36.389-.178-2.779-.141-7.324-1.222-10.011-2.322-5.775-7.18-7.58-11.425-13.358a37.672,37.672,0,0,1-7.312-19.453c-.361-6.552.329-12.363,3.149-18.211,2.157-4.474,2.977-6.168,7.49-14.289,25.025-45.035,22.256-8.693,30.837-4.518,6.839,3.328,13.044,4.627,20.006,3.776,10.981-1.344,13.633-3.725,23.9-7.822,13.2-5.27,21.271-17.612,25.595-17.023a36.117,36.117,0,0,1,7.312,1.688,21.132,21.132,0,0,1,6.187,3.149c1.144.918,1.641,2.436,2.363,3.713,5.608,9.92-16.64,57.9-17.228,60.548s-3.83,8.246-4.734,10.815c-1.914,5.443-7.284,13.423-4.218,19.159,3.39,6.343,4.291,5.94,9.529,16.189,9.837,19.249,11.439,25.726,12.253,36.594Z" fill-rule="evenodd" fill="url(#g)"/><path d="M744.15,274.7c-8.885,6.865-11.176,6.287-20.6,9.75-4.865,1.787-8.122,9.325-11.792,12.84-2.456,2.352-4.57,4.445-2.88,4.725,1.8.3,5.606-3.308,5.642-2.662.069,1.252-6.2,7.166-7.294,8.839-.089.136-2.586,6.659-.457,8.438,2.071,1.73,7.839,1.637,9.585,1.756,1.553.105,8.948-2.448,9.948-3.1,5.3-3.462,11.413-6.7,16.439-10.5,5.552-4.207,7.684-10.74,11.621-16.2,2.084-2.893,8.017-10.913,8-12.029-.079-5.272-5.1-7.982-9.987-8.4-2.327-.2-6.4,3.89-8.22,6.555Z" fill="#e8c0a9" stroke="#e8c0a9" stroke-linecap="round" stroke-linejoin="round" stroke-miterlimit="1.5" stroke-width="1" fill-rule="evenodd"/><path d="M754.165,175.48c2.519,8.332,5.7,16.583,7.458,25.124.826,4.017,1.2,8.122,2.07,12.129,1.382,6.328,3.025,12.6,4.694,18.856.262.982,1.767,3.493,1.342,4.707-3.056,8.716-8.368,16.6-14.334,23.552-2.834,3.3-6.472,5.831-9.491,8.965a41.617,41.617,0,0,0-4.394,5.449c-.46.674-1.7,2.285-.879,2.285,3.708,0,4.005-3.575,6.5-.879,2.584,2.787,4.275,9.142,5.449,12.479.74,2.1.089,5.592,2.638,6.02,4.719.793,12.3-7.634,14.947-10.241,7.318-7.2,12.792-15.236,18.668-23.571,1.489-2.112,3.6-3.809,4.765-6.114,2.54-5.015,2.568-16.913,2.853-20.757l-.542-11.769-2.6-17.939-3.871-23.19-1.816-14.333-2.8-12.893-3.3-8.366-4.1-7.812-5.573-3.678-11.292,13.467-5.344,15.467-1.045,13.042Z" fill-rule="evenodd" fill="url(#h)"/><path d="M690.1,42.987c5.735.592,17.167-10.156,27.633-1.118,8.7,7.516,9.033,29.416,7.323,46.052-1.952,19-9.2,49.383-4.115,83.215,1.123,7.476,7.182,34.9,40.615,29.171,22.216-3.806,27.582-21.023,24.792-39.9-3.066-20.74-7.5-39.213-14.993-67.7-8.234-31.309-20-51.183-26.218-57.152C742.1,32.634,731.68,25.05,715.957,25,698.3,24.944,680.63,42.007,690.1,42.987Z" fill="#3e281e" stroke="#3e281e" stroke-linecap="round" stroke-linejoin="round" stroke-miterlimit="1.5" stroke-width="1.08" fill-rule="evenodd"/><path d="M695.5,85.556c1.87.3,10.971-1.867,10.971-1.867a14.941,14.941,0,0,1,1.8-.8c.08-.024.143.655.095.86-.1.4-2.75,2.665-4.429,4.957-.782,1.067-4.533,1.863-5.474,1.025-1.918-1.706-3.015-2.906-3.015-2.906s-.49-1.351.052-1.265Z" fill="#d82929" stroke="#d72828" stroke-linecap="round" stroke-linejoin="round" stroke-miterlimit="1.5" stroke-width="1.08" fill-rule="evenodd"/><path d="M703.4,83.4h2.945a14.817,14.817,0,0,0,1.971,0c.083-.011-.137-.656-.264-.824a5,5,0,0,0-.86-.9,7.691,7.691,0,0,0-3.574-1.524c-2.856-.124-3.124,1.478-4.2,1.659-.728.123-2.228-1.232-2.809-.762-1.152.933-1.421,2.623-1.606,3.98-.177,1.3.1,1.434.563,1.135,1.587-1.034,1.768-1.075,2.267-1.43A9.683,9.683,0,0,1,703.4,83.4Z" fill="#a42828" stroke="#a32929" stroke-linecap="round" stroke-linejoin="round" stroke-miterlimit="1.5" stroke-width="1.08" fill-rule="evenodd"/><path d="M697.683,73c-.943.444-3.641,1.7-2.1,3.076a12.867,12.867,0,0,0,2.1.922,9.743,9.743,0,0,0,5.773-.5,5.211,5.211,0,0,0,2.114-1.8c.227-.3.25-.644-.193-.784a19.688,19.688,0,0,0-2.521-.571c-.918-.158-4.414-.7-5.173-.342Z" fill="#b46c41" fill-rule="evenodd"/></g></svg>