<svg viewBox="0 0 1400 810" xmlns="http://www.w3.org/2000/svg" fill-rule="evenodd" clip-rule="evenodd" stroke-linejoin="round" stroke-miterlimit="2"><g fill-rule="nonzero"><path d="M180.614 763.787l32.217-183.543H0l17.573-103.487L281.172 46.213H423.71l-75.174 430.544H415.9l-17.574 103.487h-68.34l-32.218 183.543H180.614zm-44.91-287.03h95.677l40.028-224.546-135.705 224.546z" fill="url(#_Linear1)"/><path d="M673.64 771.597a218.276 218.276 0 01-86.89-17.573c-27.336-11.716-48.977-29.452-64.923-53.208-15.946-23.756-25.383-50.93-28.312-81.52a338.976 338.976 0 013.417-90.795l50.767-288.006a304.26 304.26 0 0124.407-76.639 227.084 227.084 0 0148.326-67.364 195.036 195.036 0 0169.805-43.933 230.506 230.506 0 0179.08-14.156h.976a218.273 218.273 0 0186.89 17.573c27.336 11.716 48.977 29.452 64.923 53.208 15.946 23.756 25.384 50.93 28.312 81.52a338.976 338.976 0 01-3.417 90.795l-50.767 288.006a295.563 295.563 0 01-24.407 77.127 231.378 231.378 0 01-48.814 67.364 190.09 190.09 0 01-70.781 43.933 239.367 239.367 0 01-78.592 13.668zm.976-103.487c18.875 0 36.611-6.02 53.208-18.061a117.176 117.176 0 0037.587-44.421 207.48 207.48 0 0017.574-53.696l50.767-288.006a293.145 293.145 0 002.929-41.492 113.466 113.466 0 00-6.834-39.54 60.387 60.387 0 00-23.431-29.777 64.737 64.737 0 00-37.099-11.227c-18.875 0-36.611 6.02-53.208 18.061a117.176 117.176 0 00-37.587 44.421 207.48 207.48 0 00-17.574 53.696l-50.767 288.006a196.742 196.742 0 00-3.417 41.492 121.755 121.755 0 007.322 39.54 60.387 60.387 0 0023.431 29.777 64.737 64.737 0 0037.099 11.227zm39.052-217.713a49.569 49.569 0 01-22.455-5.369 26.57 26.57 0 01-14.156-16.597 47.39 47.39 0 01-.976-23.431 66.586 66.586 0 019.763-23.431 47.293 47.293 0 0119.526-17.085 56.958 56.958 0 0124.895-5.858 46.257 46.257 0 0122.455 5.858 28.3 28.3 0 0114.156 17.085 47.39 47.39 0 01.976 23.431 66.586 66.586 0 01-9.763 23.431 44.026 44.026 0 01-19.526 16.597 61.24 61.24 0 01-24.895 5.369z" fill="url(#_Linear2)"/><path d="M1156.9 763.787l32.217-183.543H976.286l17.573-103.487 263.599-430.544h142.538l-75.174 430.544h67.364l-17.574 103.487h-68.34l-32.217 183.543H1156.9zm-44.91-287.03h95.677l40.028-224.546-135.705 224.546z" fill="url(#_Linear3)"/></g><path d="M829.327 695.219c.216-.216 7.292 7.446 7.486 11.459.331 6.879-4.673 13.66-5.693 28.037-.659 9.28 3.84 54.21 4 56.335.079 1.035-5.121 1.044-5.621-.068-9.126-20.282-10.419-26.921-16.306-15.723-2.432 4.627-7.505 16.485-11.843 18.497-14.44 6.695-42.696 4.252-44.856 1.942-2.27-2.427-2.659-22.743-1.143-26.309 2.266-5.33 12.722-11.041 13.502-10.915 2.875.465 24.68 10.248 36.905-8.437 5.762-8.807 18.482-30.822 22.966-42.332 1.456-3.736.33-12.212.603-12.486z" fill="#822000"/><path d="M798.585 689.98c-.885 2.547-7.232 27.208-10.165 37.886-4.718 17.183-14.705 20.677-19.803 31.486-1.314 2.784 26.133 6.144 32.332 1.164 3.097-2.487 17.381-27.451 23.687-39.732 3.157-6.149 7.766-21.131 5.623-24.75-8.567-14.463-31.043-7.871-31.674-6.054z" fill="#e2b299"/><path d="M796.921 641.18c-1.052.496-3.618 52.152-3.559 54.812.016.743 10.288 3.682 20.897 4.023 9.565.307 21.453-2.235 21.481-2.614.697-9.48 3.514-39.5 4.216-45.565.5-4.321-41.14-11.55-43.035-10.656z" fill="#393b8c"/><path d="M928.817 327.185c4.106 47.18 27.475 281.471 27.845 282.604.632 1.93 38.406 13.601 37.92 11.412-15.579-70.007-55.316-257.654-58.769-291.262-.156-1.523-7.089-3.832-6.996-2.754z" fill="#5e0808"/><path d="M961.159 688.072c-.998 2.829 9.262 25.643 9.993 32.68.877 8.455 1.23 17.503-.896 25.864-2.392 9.409-6.748 21.893-6.271 28.266.347 4.623 29.711 7.621 33.415 2.115 3.151-4.682 5.936-27.13 5.817-33.906-.107-6.075-6.204-52.647-8.104-57.036-.589-1.361-33.562.903-33.954 2.017z" fill="#e2b299"/><path d="M1000.94 792.341c-3.177-11.205-4.209 12.747-7.714 14.381-12.56 5.858-30.238 2.953-31.368-1.527-2.539-10.066-1.607-25.784-1.075-30.786.861-8.094 7.941-28.278 9.605-28.374 1.7-.098-5.995 13.771-4.441 29.178.413 4.096 28.094 4.442 29.435-1.159 2.252-9.408 6.611-16.445 4.877-41.582-.577-8.356-1.141-16.253-.349-17.98 2.907-6.34 4.866 54.153 4.471 77.498-.012.688-3.242 1.051-3.441.351z" fill="#822000"/><path d="M935.063 342.981c-2.395 2.739-24.062 40.045-25.52 48.502-1.457 8.45 41.164 286.128 42.496 291.266.423 1.635 12.317 10.581 22.5 10.216 12.733-.455 22.471-5.134 22.464-6.103-.054-8.019-5.522-39.486-7.041-48.997-3.469-21.722-8.848-54.871-13.813-84.119-4.109-24.209-38.895-213.271-41.086-210.765z" fill="#393b8c"/><path d="M939.408 327.904c-.346.134-2.734 5.017-3.243 6.548-1.942 5.836-.949 11.952-.037 18.059 8.41 56.366 18.89 113.783 34.843 174.871 9.423 36.079 23.029 95.039 23.153 95.038 3.406-.028 5.132-4.34 4.176-7.159-2.499-7.377-11.69-49.358-15.273-62.587-1.507-5.56-14.66-65.918-16.826-78.279-2.21-12.621-26.447-146.624-26.793-146.491z" fill="#b00e0e"/><path d="M867.089 37.321c-12.903-7.848-34.915-7.136-35.873 28.828-.514 19.338 17.93 48.027 20.129 56.502.474 1.826 13.416 92.037-35.195 83.988-26.113-4.324-34.587-38.999-18.973-78.912 10.967-28.033 9.494-74.42 18.96-97.621C826.691 4.238 844.294-.005 853.648-.005c5.576 0 25.185 3.991 34.865 16.653 21.467 28.081 52.296 149.335 23.603 152.912-41.159 5.131-32.125-124.392-45.027-132.239z" fill="#303030"/><path d="M840.756 99.54c1.564 5.246 5.873 18.644 7.087 26.054.28 1.711 5.278 1.623 8.444 1.324 9.447-.89 19.85-3.077 24.375-8.673 2.292-2.837 9.68-15.144 9.132-15.387-9.821-4.378-11.309-20.468-11.836-19.871-8.255 9.344-10.34 14.647-19.678 20.109-9.644 5.64-17.711-4.185-17.524-3.556z" fill="url(#_Linear4)"/><path d="M772.067 50.972c19.629-12.217 29.409-26.013 40.973-29.765 3.555-1.153 8.916.075 11.323 3.307.845 1.136 3.514 4.512 3.817 5.206.175.401-.024 1.18-.459 1.23-2.591.3-3.966-1.057-4.281-1.385-1.249-1.301-2.029-2.926-4.1-3.337-1.152-.229-6.156 1.178-7.082 1.737-.4.242-.926.818-.689 1.221 3.861 6.593 10.661 15.193 8.648 16.19-6.191 3.069-13.933 3.016-15.77 2.982-3.31-.059-46.344 44.015-45.692 47.388.134.688 14.099 6.92 18.612 8.81 14.889 6.236 44.519 19.058 53.45 19.553 3.064.17 13.992.129 15.998.115 1.975-.013-18.541 36.981-18.84 36.875-7.525-2.662-26.41-10.124-32.692-13.484-18.414-9.849-31.777-16.238-52.157-28.677-10.326-6.302-26.004-22.584-22.879-26.912 6.593-9.128 28.753-26.697 51.82-41.054z" fill="url(#_Linear5)"/><path d="M889.408 102.662c-5.918 7.861-12.037 17.374-21.745 21.083-9.676 3.697-19.618-1.225-20.221-.391-24.697 34.197-37.008 62.719-34.527 83.06 2.444 20.039 14.5 39.932 13.173 43.459-40.339 107.264-33.446 195.616-33.078 243.194.565 73.012-8.882 146.313-8.284 146.706 1.59 1.044 43.589 17.266 87.292 15.931 45.09-1.377 91.903-20.339 91.933-20.869.045-.799-29.978-146.047-35.142-281.774-2.91-76.469-5.246-166.544-11.084-215.127-2.549-21.215-7.37-35.628-8.514-36.174-1.174-.559-8.438 2.608-11.034 3.174-3.851.839-7.961-3.345-8.769-2.272z" fill="url(#_Linear6)"/><path d="M923.038 98.082c-2.121-1.172-9.907-.223-13.495 2.652-5.203 4.171-8.349 21.223-4.258 39.579 11.422 51.253 26.075 69.907 27.208 89.222.362 6.172-1.41 59.472-3.076 65.491-1.256 4.538-11.196 20.601-12.29 22.297-.634.983-.633 2.265-1.147 3.315-1.71 3.486-5.507 5.225-7.905 8.095-1.527 1.828-2.54 5.048-3.016 7.31a102.67 102.67 0 00-1.318 7.734c-.057.429-.245 1.067.125 1.293.321.197.678-.365.924-.651.673-.78 1.138-1.753 1.583-2.681 1.066-2.225 2.724-7.112 3.058-9.554-.801 5.86-2.66 8.886-5.451 13.97-1.36 2.477-3.481 4.809-3.329 7.846.265 5.265 8.041-1.844 8.546-2.316 5.879-5.5 6.405-11.46 9.792-18.682.785-1.673-.945 3.575-1.519 5.332-.853 2.612-1.674 5.244-2.759 7.769-1.991 4.636-6.684 7.67-10.393 10.678-.461.373-3.026 1.856-2.009 3.018 2.73 3.122 8.814-3.414 10.13-4.455 7.822-6.192 10.356-12.344 13.936-19.969-2.804 5.973-5.289 12.902-10.283 17.571-2.571 2.404-5.545 4.354-8.098 6.776-.417.395 1.1 1.077 2.943.752 1.027-.181 6.7-2.626 8.52-3.927 6.197-4.431 9.558-11.2 13-17.78-2.389 4.567-4.872 9.096-7.653 13.435-.904 1.411-3.956 3.533-5.347 4.345-.341.199-2.309 1.311-2.314 2.08-.005.783 2.883.104 3.149.059 2.205-.37 3.703-1.131 5.615-2.34 4.693-2.967 7.35-7.139 10.599-11.931 4.131-6.091 6.609-12.121 8.511-15.921 4.593-9.178 19.208-70.824 20.016-80.382 1.55-18.325-6.738-36.244-14.169-65.803-4.792-19.063-10.367-51.717-17.423-70.197-1.325-3.471-5.843-11.507-10.403-14.03z" fill="url(#_Linear7)"/><path d="M922.634 97.888c-2.317-.121-6.47-2.216-24.453 7.045-3.105 1.599-5.338 3.648-5.869 5.295-1.477 4.581-6.787 18.546-4.308 38.238 1.098 8.716 11.544 41.275 14.071 49.484 2.04 6.629 3.62 13.394 5.666 20.021 7.904 25.591 9.47 27.189 16.24 50.92 3.632 12.731 2.248 32.582 2.726 32.085 4.214-4.38 3.559-12.664 4.709-12.111 13.435 6.464 22.162 12.36 20.787 16.442-.091.269-1.786 7.184-4.406 15.493-2.021 6.409-2.52 7.142-3.796 9.795-.771 1.602-1.48 3.185-2.374 4.941-1.952 3.834-2.505 4.687-3.55 6.445-.352.591 9.631 55.526 17.62 90.664.515 2.267 11.498 7.999 12.34 6.529.516-.9.081-5.101.151-4.835 13.181 49.976 24.793 96.083 39.029 144.304.668 2.264 6.471 24.049 8.251 27.026 1.332 2.226 2.742 4.434 4.46 6.378 8.487 9.599 44.923 19.403 50.008 21.608 5.08 2.203 28.939 18.484 32.164 20.928 9.402 7.126 85.573 6.906 100.902 13.731 11.61 5.17 26.405 15.382 28.59 13.408 1.417-1.28-6.614-64.034-38.377-118.82-30.056-51.841-84.127-97.527-87.519-102.057-7.744-10.34-15.25-22.954-23.593-35.109-2.267-3.304-5.145-23.177-7.971-31.786-5.083-15.484-8.848-24.27-13.751-36.14-14.196-34.372-36.746-67.944-56.986-100.876-21.271-34.61-33.104-60.909-51.953-98.885-7.339-14.786-10.33-31.195-17.573-46.046-4.751-9.742-10.718-14.088-11.235-14.115z" fill="url(#_Linear8)"/><path d="M881.954 56.681c1.064-2.419 5.78-5.531 6.691-4.434.914 1.1.917 7.753-.554 11.245-1.115 2.647-4.357 8.584-7.558 6.842-3.505-1.907.093-10.633 1.421-13.653z" fill="#f4d2c0"/><path d="M867.072 24.498c-5.981-4.511-14.693-3.268-24.119-.452-4.13 1.234-8.912 4.089-11.883 7.934-5.299 6.859-4.909 27.452-2.049 44.134 1.566 9.138 9.647 22.048 14.312 26.165 14.028 12.382 37.014-15.599 38.926-30.602 1.304-10.232.207-15.866-3.168-33.86-.687-3.661-9.692-11.565-12.019-13.319z" fill="url(#_Linear9)"/><path d="M838.417 83.196c-.972-1.738-.912-2.711-.693-3.859a233.7 233.7 0 01.703-2.79c.33-1.279.651-2.193 1.776-3.043.801-.604 2.753 1.283 3.736 1.151 1.453-.195 1.864-3.223 5.714-2.037 1.662.512 3.368 1.079 4.729 2.208.422.368.796.787 1.114 1.247.162.231.428 1.133.317 1.118-.047-.006-4.577 6.575-9.712 7.252-5.544.732-6.501.87-7.684-1.247z" fill="#a42828"/><path d="M796.994 46.559c-.044 1.206 5.533 1.179 7.986-.063 1.872-.947 3.529-2.29 5.136-3.638.834-.698 1.938-2.681 1.938-2.681s-1.104 1.983-1.938 2.681c-1.607 1.348-3.264 2.691-5.136 3.638-2.453 1.242 11.88 1.212 15.378-1.214 7.162-4.968 6.916-6.38 8.815-5.899 2.539.644 6.351 4.263 10.058 3.547 1.009-.195-1.492-1.428-2.341-2.007-4.12-2.807-4.317-2.346-8.293-5.283-.509-.376-1.744-1.745-2.608-1.605-.908.147-1.689.737-2.495 1.179-.579.317-1.651 1.095-1.651 1.095s1.072-.778 1.651-1.095c.806-.442 1.587-1.032 2.495-1.179.864-.14 2.099 1.229 2.608 1.605 2.704 1.997 5.626 3.561 8.597 5.233 2.557 1.438 6.583 2.594 6.584 1.321.002-.978-10.881-9.442-15.85-11.837-.774-.373-2.551-.079-3.277.2-1.349.52-2.649 1.164-3.945 1.806 1.296-.642 2.596-1.286 3.945-1.806.726-.279 2.503-.573 3.277-.2 5.643 2.72 17.269 12.286 21 9.229 1.496-1.226-2.867-2.421-4.729-3.655-2.654-1.76-5.819-4.075-8.513-5.775-1.906-1.203-3.954-2.166-5.952-3.21-.945-.494-2.876-1.404-2.876-1.404s1.931.91 2.876 1.404c1.998 1.044 4.046 2.007 5.952 3.21 6.482 4.091 13.865 7.5 17.917 4.481 1.991-1.484-6.639-4.155-8.286-4.882-4.64-2.048-9.359-5.411-13.376-8.493-2.406-1.847-5.279-4.698-9.965-2.876-6.865 2.67-7.916 1.884-14.381 5.336-2.383 1.272-10.448 18.7-10.601 22.837z" fill="url(#_Linear10)"/><defs><linearGradient id="_Linear1" x1="0" y1="0" x2="1" y2="0" gradientUnits="userSpaceOnUse" gradientTransform="scale(738.81) rotate(-80.883 1.04 .015)"><stop offset="0" stop-color="#5b9689"/><stop offset="1" stop-color="#267160"/></linearGradient><linearGradient id="_Linear2" x1="0" y1="0" x2="1" y2="0" gradientUnits="userSpaceOnUse" gradientTransform="scale(738.81) rotate(-80.883 1.04 .015)"><stop offset="0" stop-color="#5b9689"/><stop offset="1" stop-color="#267160"/></linearGradient><linearGradient id="_Linear3" x1="0" y1="0" x2="1" y2="0" gradientUnits="userSpaceOnUse" gradientTransform="scale(738.81) rotate(-80.883 1.04 .015)"><stop offset="0" stop-color="#5b9689"/><stop offset="1" stop-color="#267160"/></linearGradient><linearGradient id="_Linear4" x1="0" y1="0" x2="1" y2="0" gradientUnits="userSpaceOnUse" gradientTransform="rotate(-109.757 478.286 -244.862) scale(24.26162)"><stop offset="0" stop-color="#e2b299"/><stop offset="1" stop-color="#e3ae92"/></linearGradient><linearGradient id="_Linear5" x1="0" y1="0" x2="1" y2="0" gradientUnits="userSpaceOnUse" gradientTransform="scale(-31.9096) rotate(-56.922 -15.783 21.3)"><stop offset="0" stop-color="#e2b299"/><stop offset="1" stop-color="#d69b7c"/></linearGradient><linearGradient id="_Linear6" x1="0" y1="0" x2="1" y2="0" gradientUnits="userSpaceOnUse" gradientTransform="rotate(-136.709 511.102 -38.357) scale(132.2712)"><stop offset="0" stop-color="#b00e0e"/><stop offset="1" stop-color="#890000"/></linearGradient><linearGradient id="_Linear7" x1="0" y1="0" x2="1" y2="0" gradientUnits="userSpaceOnUse" gradientTransform="rotate(12.027 -687.172 4547.029) scale(33.17966)"><stop offset="0" stop-color="#e2b299" stop-opacity=".98"/><stop offset="1" stop-color="#d99f81" stop-opacity=".98"/></linearGradient><linearGradient id="_Linear8" x1="0" y1="0" x2="1" y2="0" gradientUnits="userSpaceOnUse" gradientTransform="rotate(57.569 330.754 870.955) scale(634.846)"><stop offset="0" stop-color="#fff" stop-opacity=".6"/><stop offset="1" stop-color="#7d98ff" stop-opacity=".7"/></linearGradient><linearGradient id="_Linear9" x1="0" y1="0" x2="1" y2="0" gradientUnits="userSpaceOnUse" gradientTransform="rotate(-177.794 440.596 22.432) scale(52.3653)"><stop offset="0" stop-color="#f4d2c0"/><stop offset="1" stop-color="#f1b697"/></linearGradient><linearGradient id="_Linear10" x1="0" y1="0" x2="1" y2="0" gradientUnits="userSpaceOnUse" gradientTransform="rotate(-33.793 467.432 -1306.913) scale(31.7768)"><stop offset="0" stop-color="#e2b299"/><stop offset="1" stop-color="#dca78c"/></linearGradient></defs></svg>