<svg width="100%" height="100%" viewBox="0 0 1075 585" version="1.1" xmlns="http://www.w3.org/2000/svg"><g><g><ellipse cx="540.895" cy="506.723" rx="527.5" ry="38.521" style="fill:#f2f2f2;fill-opacity:0.3;"/><path d="M520.678,111.022c-85.944,0 -147.651,55.14 -147.651,183.798c0,145.813 61.707,184.411 147.651,184.411c85.944,0 151.327,-42.274 151.327,-184.411c0,-151.939 -65.383,-183.798 -151.327,-183.798Zm0.565,319.809c-59.527,0 -90.626,-34.923 -90.626,-135.916c0,-89.112 32.372,-136.105 91.899,-136.105c59.527,0 91.899,30.868 91.899,136.105c0,98.447 -33.645,135.916 -93.172,135.916Z" style="fill:#d2d2d2;fill-rule:nonzero;"/><path d="M321.563,377.529l-35.534,0l0,-104.639c0,-11.496 -9.46,-20.956 -20.956,-20.956l-8.326,0c0,0 0,0 0,0c-11.496,0 -20.956,9.46 -20.956,20.956l0,104.639l-100.23,0c0,0 0,0 0,0c-6.563,0 -11.963,-5.4 -11.963,-11.963c0,-1.948 0.475,-3.866 1.385,-5.589l106.083,-200.78c1.594,-3.017 2.427,-6.378 2.427,-9.789c0,-8.094 -4.689,-15.494 -12.008,-18.95l-6.262,-2.957c-10.04,-4.741 -22.195,-0.722 -27.429,9.07l-129.382,242.033c-2.203,4.121 -3.356,8.723 -3.356,13.396c0,15.588 12.828,28.416 28.416,28.416l152.319,0l0,66.167c0,13.78 11.339,25.119 25.119,25.119l0,0c13.78,0 25.119,-11.339 25.119,-25.119l0,-66.167l35.534,0c11.764,0 21.443,-9.68 21.443,-21.443c0,-11.764 -9.679,-21.444 -21.443,-21.444Z" style="fill:#d2d2d2;fill-rule:nonzero;"/><path d="M979.56,377.529l-35.534,0l0,-104.639c0,-11.496 -9.46,-20.956 -20.956,-20.956l-8.327,0c0,0 0,0 0,0c-11.496,0 -20.956,9.46 -20.956,20.956l0,104.639l-100.23,0c0,0 0,0 0,0c-6.562,0 -11.963,-5.4 -11.963,-11.963c0,-1.948 0.476,-3.866 1.386,-5.589l106.082,-200.78c1.594,-3.017 2.427,-6.378 2.427,-9.789c0,-8.094 -4.689,-15.494 -12.007,-18.95l-6.263,-2.957c-10.04,-4.741 -22.194,-0.722 -27.429,9.07l-129.381,242.033c-2.203,4.121 -3.356,8.723 -3.356,13.396c0,15.588 12.827,28.416 28.416,28.416l152.318,0l0,66.167c0,13.78 11.34,25.119 25.119,25.119c13.78,0 25.119,-11.339 25.119,-25.119l0,-66.167l35.535,0c11.763,0 21.443,-9.68 21.443,-21.443c0,-11.764 -9.68,-21.443 -21.443,-21.444Z" style="fill:#d2d2d2;fill-rule:nonzero;"/><path d="M331.366,365.276l-35.534,0l0,-104.639c0,0 0,0 0,0c0,-11.496 -9.46,-20.956 -20.956,-20.956l-8.327,0c-11.496,0 -20.955,9.46 -20.955,20.956l0,104.639l-100.231,0c0,0 0,0 0,0c-6.562,0 -11.963,-5.4 -11.963,-11.963c0,-1.948 0.476,-3.867 1.386,-5.589l106.082,-200.78c1.594,-3.017 2.427,-6.378 2.427,-9.79c0,-8.093 -4.689,-15.493 -12.007,-18.949l-6.262,-2.957c-10.041,-4.741 -22.195,-0.722 -27.43,9.07l-129.381,242.032c-2.203,4.122 -3.356,8.723 -3.356,13.397c0,15.588 12.827,28.415 28.416,28.415l152.319,0l0,66.168c0,13.78 11.339,25.119 25.119,25.119l0,0c13.779,0 25.119,-11.339 25.119,-25.119l0,-66.168l35.534,0c11.763,0 21.443,-9.679 21.443,-21.443c0,0 0,0 0,0c0,-11.763 -9.68,-21.443 -21.443,-21.443Z" style="fill:none;fill-rule:nonzero;stroke:#3f3d56;stroke-width:1px;"/><path d="M997.94,365.276l-35.535,0l0,-104.639c0,-11.496 -9.459,-20.956 -20.956,-20.956l-8.326,0c-11.496,0 -20.956,9.46 -20.956,20.956l0,104.639l-100.23,0c0,0 0,0 0,0c-6.563,0 -11.963,-5.4 -11.963,-11.963c0,-1.948 0.476,-3.867 1.386,-5.589l106.082,-200.78c1.594,-3.017 2.427,-6.378 2.427,-9.79c0,-8.093 -4.689,-15.493 -12.007,-18.949l-6.263,-2.957c-10.04,-4.741 -22.195,-0.722 -27.429,9.07l-129.382,242.032c-2.203,4.122 -3.355,8.723 -3.355,13.397c0,15.588 12.827,28.415 28.415,28.415l152.319,0l0,66.168c0,13.78 11.339,25.119 25.119,25.119c13.78,0 25.119,-11.339 25.119,-25.119l0,-66.168l35.535,0c11.763,0 21.443,-9.679 21.443,-21.443c0,-11.763 -9.68,-21.443 -21.443,-21.443Z" style="fill:none;fill-rule:nonzero;stroke:#3f3d56;stroke-width:1px;"/><path d="M540.283,99.995c-85.944,0 -147.651,55.139 -147.651,183.798c0,145.813 61.707,184.41 147.651,184.41c85.944,0 151.327,-42.273 151.327,-184.41c0,-151.94 -65.383,-183.798 -151.327,-183.798Zm0.565,319.808c-59.527,0 -90.626,-34.923 -90.626,-135.916c0,-89.112 32.372,-136.105 91.899,-136.105c59.527,0 91.899,30.868 91.899,136.105c0,98.447 -33.645,135.916 -93.172,135.916l0,0Z" style="fill:none;fill-rule:nonzero;stroke:#3f3d56;stroke-width:1px;"/><path d="M1007.12,363.562c2.279,0.829 4.686,1.253 7.111,1.253c11.417,0 20.812,-9.395 20.812,-20.813c0,-11.417 -9.395,-20.812 -20.812,-20.812c-1.459,0 -2.913,0.153 -4.34,0.457l0.521,10.712l-5.068,-9.18c-4.972,2.336 -8.817,6.555 -10.683,11.722c-0.663,1.811 -1.067,3.707 -1.198,5.63c-0.655,9.247 4.943,17.868 13.657,21.031Z" style="fill:#57b894;fill-rule:nonzero;"/><path d="M1032.19,487.806c-1.789,-9.11 5.963,-17.187 13.621,-22.437c7.658,-5.249 16.605,-10.408 19.218,-19.317c3.755,-12.803 -7.43,-24.529 -16.136,-34.641c-6.459,-7.505 -12.005,-15.748 -16.523,-24.558c-1.812,-3.532 -3.476,-7.225 -3.953,-11.166c-0.686,-5.675 1.137,-11.323 2.974,-16.737c6.12,-18.034 12.663,-35.917 19.629,-53.65" style="fill:none;fill-rule:nonzero;stroke:#3f3d56;stroke-width:1px;"/><path d="M1007.97,360.804c2.279,0.829 4.686,1.253 7.111,1.253c11.417,0 20.812,-9.395 20.812,-20.813c0,-11.417 -9.395,-20.812 -20.812,-20.812c-1.459,0 -2.913,0.153 -4.339,0.457l0.52,10.712l-5.068,-9.18c-4.972,2.336 -8.817,6.556 -10.683,11.723c-0.663,1.81 -1.066,3.706 -1.197,5.629c-0.656,9.247 4.943,17.869 13.656,21.031Z" style="fill:none;fill-rule:nonzero;stroke:#3f3d56;stroke-width:1px;"/><path d="M1029.65,301.601c2.414,-6.659 8.07,-11.643 14.98,-13.198l1.714,10.184l3.177,-10.696c11.298,0.168 20.501,9.509 20.501,20.808c0,11.416 -9.394,20.81 -20.81,20.81c-11.416,0 -20.81,-9.394 -20.81,-20.81c0,-2.421 0.423,-4.823 1.248,-7.098l0,0Z" style="fill:#57b894;fill-rule:nonzero;"/><path d="M1030.79,297.924c2.414,-6.659 8.07,-11.643 14.98,-13.198l1.714,10.184l3.177,-10.696c11.298,0.168 20.501,9.508 20.501,20.808c0,11.416 -9.394,20.81 -20.81,20.81c-11.416,0 -20.81,-9.394 -20.81,-20.81c0,-2.421 0.423,-4.823 1.248,-7.098l0,0Z" style="fill:none;fill-rule:nonzero;stroke:#3f3d56;stroke-width:1px;"/><path d="M1045.24,411.617c2.275,0.825 4.676,1.247 7.096,1.247c11.416,0 20.81,-9.394 20.81,-20.81c0,-7.044 -3.577,-13.627 -9.487,-17.46l-2.441,8.22l-1.732,-10.304c-0.017,-0.008 -0.034,-0.015 -0.053,-0.02c-2.278,-0.828 -4.684,-1.252 -7.108,-1.252c-11.417,0 -20.811,9.395 -20.811,20.811c0,8.741 5.507,16.592 13.726,19.568l0,0Z" style="fill:#57b894;fill-rule:nonzero;"/><path d="M1046.23,407.892c2.275,0.826 4.676,1.248 7.096,1.248c11.416,0 20.81,-9.394 20.81,-20.81c0,-7.045 -3.577,-13.627 -9.487,-17.46l-2.441,8.219l-1.731,-10.304c-0.017,-0.008 -0.035,-0.015 -0.053,-0.02c-2.279,-0.828 -4.685,-1.252 -7.109,-1.252c-11.416,0 -20.811,9.395 -20.811,20.812c0,8.741 5.507,16.591 13.726,19.567l0,0Z" style="fill:none;fill-rule:nonzero;stroke:#3f3d56;stroke-width:1px;"/><path d="M1023.58,446.18c1.741,9.906 10.429,17.201 20.487,17.201c11.411,0 20.801,-9.391 20.801,-20.802c0,-11.411 -9.39,-20.801 -20.801,-20.801c-6.447,0 -12.541,2.997 -16.477,8.104l9.273,13.957l-12.67,-7.408c-0.982,3.154 -1.193,6.497 -0.613,9.749Z" style="fill:#57b894;fill-rule:nonzero;"/><path d="M1024.43,443.422c1.741,9.906 10.429,17.201 20.487,17.201c11.412,0 20.802,-9.39 20.802,-20.802c0,-11.411 -9.39,-20.801 -20.802,-20.801c-6.447,0 -12.541,2.997 -16.476,8.104l9.272,13.957l-12.67,-7.408c-0.982,3.154 -1.192,6.497 -0.613,9.749Z" style="fill:none;fill-rule:nonzero;stroke:#3f3d56;stroke-width:1px;"/><path d="M9.259,414.261c1.498,0.545 3.079,0.823 4.673,0.823c7.501,0 13.674,-6.172 13.674,-13.674c0,-7.501 -6.173,-13.674 -13.674,-13.674c-0.959,0 -1.914,0.101 -2.852,0.3l0.343,7.039l-3.33,-6.032c-3.267,1.535 -5.793,4.307 -7.019,7.702c-0.436,1.189 -0.701,2.435 -0.787,3.699c-0.431,6.075 3.248,11.739 8.972,13.817Z" style="fill:#57b894;fill-rule:nonzero;"/><path d="M25.736,495.892c-1.176,-5.986 3.918,-11.292 8.949,-14.742c5.031,-3.449 10.91,-6.838 12.626,-12.691c2.467,-8.412 -4.881,-16.117 -10.601,-22.76c-4.244,-4.931 -7.888,-10.347 -10.856,-16.135c-1.291,-2.274 -2.17,-4.757 -2.597,-7.336c-0.451,-3.729 0.747,-7.44 1.954,-10.997c4.02,-11.849 8.319,-23.598 12.896,-35.249" style="fill:none;fill-rule:nonzero;stroke:#3f3d56;stroke-width:1px;"/><path d="M9.823,412.449c1.497,0.545 3.078,0.823 4.672,0.823c7.501,0 13.674,-6.172 13.674,-13.674c0,-7.501 -6.173,-13.674 -13.674,-13.674c-0.959,0 -1.914,0.101 -2.851,0.3l0.342,7.039l-3.33,-6.032c-3.267,1.535 -5.793,4.307 -7.019,7.702c-0.436,1.189 -0.701,2.435 -0.787,3.699c-0.43,6.075 3.248,11.739 8.973,13.817Z" style="fill:none;fill-rule:nonzero;stroke:#3f3d56;stroke-width:1px;"/><path d="M24.064,373.552c1.586,-4.375 5.302,-7.65 9.843,-8.671l1.125,6.691l2.088,-7.028c7.423,0.11 13.47,6.247 13.47,13.671c0,7.501 -6.172,13.673 -13.673,13.673c-7.501,0 -13.673,-6.172 -13.673,-13.673c0,-1.59 0.278,-3.168 0.82,-4.663Z" style="fill:#57b894;fill-rule:nonzero;"/><path d="M24.815,371.136c1.586,-4.375 5.302,-7.65 9.842,-8.671l1.126,6.69l2.088,-7.027c7.423,0.11 13.469,6.247 13.469,13.671c0,7.501 -6.172,13.673 -13.672,13.673c-7.501,0 -13.673,-6.172 -13.673,-13.673c0,-1.59 0.278,-3.168 0.82,-4.663Z" style="fill:none;fill-rule:nonzero;stroke:#3f3d56;stroke-width:1px;"/><path d="M34.31,445.834c1.494,0.542 3.072,0.82 4.662,0.82c7.5,0 13.672,-6.172 13.672,-13.673c0,-4.628 -2.35,-8.953 -6.233,-11.471l-1.604,5.4l-1.137,-6.77c-0.011,-0.005 -0.023,-0.01 -0.035,-0.013c-1.498,-0.545 -3.079,-0.823 -4.673,-0.823c-7.501,0 -13.673,6.172 -13.673,13.673c0,5.744 3.619,10.903 9.021,12.857Z" style="fill:#57b894;fill-rule:nonzero;"/><path d="M34.96,443.387c1.495,0.542 3.073,0.82 4.663,0.82c7.5,0 13.672,-6.172 13.672,-13.673c0,-4.628 -2.35,-8.953 -6.233,-11.471l-1.604,5.4l-1.137,-6.77c-0.012,-0.005 -0.023,-0.01 -0.035,-0.013c-1.495,-0.542 -3.073,-0.82 -4.663,-0.82c-7.501,0 -13.673,6.172 -13.673,13.673c0,5.74 3.614,10.897 9.01,12.854Z" style="fill:none;fill-rule:nonzero;stroke:#3f3d56;stroke-width:1px;"/><path d="M20.074,468.543c1.144,6.508 6.852,11.301 13.461,11.301c7.497,0 13.666,-6.17 13.666,-13.667c0,-7.497 -6.169,-13.667 -13.666,-13.667c-4.236,0 -8.24,1.97 -10.826,5.325l6.092,9.17l-8.324,-4.867c-0.645,2.071 -0.784,4.268 -0.403,6.405Z" style="fill:#57b894;fill-rule:nonzero;"/><path d="M20.637,466.731c1.144,6.508 6.853,11.301 13.461,11.301c7.497,0 13.667,-6.17 13.667,-13.667c0,-7.497 -6.17,-13.667 -13.667,-13.667c-4.236,0 -8.24,1.97 -10.826,5.325l6.092,9.17l-8.324,-4.867c-0.645,2.071 -0.784,4.268 -0.403,6.405Z" style="fill:none;fill-rule:nonzero;stroke:#3f3d56;stroke-width:1px;"/></g><g><rect x="715.223" y="519.62" width="11.296" height="9.562" style="fill:#de8e68;"/><path d="M727.581,527.689l0,9.562l-26.875,0l0,-3.48l13.979,-6.082l12.896,0Z" style="fill:#3c3c3c;fill-rule:nonzero;"/><rect x="539.645" y="402.314" width="11.296" height="9.562" style="fill:#de8e68;"/><path d="M552.004,410.382l0,9.563l-26.868,0l0,-3.473l13.978,-6.09l12.89,0Z" style="fill:#3c3c3c;fill-rule:nonzero;"/><path d="M714.831,282.491c0.571,5.432 12.571,239.653 12.571,239.653l-12.571,0l-61.127,-220.534l61.127,-19.119Z" style="fill:#198c5f;fill-rule:nonzero;"/><path d="M721.286,256.686c0,31.808 -11.695,60.429 -35.368,60.429c-32.499,0 -75.524,-20.718 -87.364,-32.412c-2.955,8.739 -44.87,118.813 -44.87,118.813l-17.359,0c0,0 11.123,-128.163 31.975,-161.034c6.859,-9.138 62.839,-6.853 91.122,0c28.282,6.853 61.864,14.204 61.864,14.204Z" style="fill:#57b88f;fill-rule:nonzero;"/><path d="M637.342,71.354c0.406,-2.025 2.285,-3.439 4.343,-3.268c2.543,0.18 6.7,6.9 6.7,12.339c0,5.438 -1.534,7.484 -1.069,11.435c0.465,3.951 10.525,57.527 10.525,60.794c2.537,0.18 11.615,-1.089 11.615,-1.089l-6.355,25.593l-18.501,0l-11.953,-103.082l4.695,-2.722Z" style="fill:#d37c59;fill-rule:nonzero;"/><path d="M655.085,80.478l-3.898,15.751c0,0 -38.455,-4.469 -42.652,-5.505c-4.197,-1.036 2.125,-27.08 6.435,-26.018c4.309,1.063 40.115,15.772 40.115,15.772Z" style="fill:#3c3c3c;fill-rule:nonzero;"/><path d="M690.32,127.075c49.194,0 37.062,127.094 31.318,131.849c-5.745,4.754 -66.904,-11.289 -71.985,-18.368c-5.08,-7.079 4.589,-113.481 40.667,-113.481Z" style="fill:#fed385;fill-rule:nonzero;"/><path d="M672.763,159.341c-2.703,0.917 -18.554,7.099 -18.554,7.099c-0.266,-3.187 -12.451,-66.406 -13.202,-70.277c1.538,-3.864 2.299,-7.994 2.238,-12.152c0,-10.38 -4.216,-18.807 -9.416,-18.807c-5.2,0 -9.41,8.427 -9.41,18.807c-0.074,4.343 0.763,8.656 2.457,12.656c-0.584,7.903 -5.83,82.935 4.874,93.633c11.289,11.289 38.735,1.109 55.416,-6.475c3.573,-1.235 -1.295,-28.03 -14.403,-24.484Z" style="fill:#de8e68;fill-rule:nonzero;"/><path d="M660.992,86.984l-9.948,-2.641l-1.846,6.951l9.948,2.641l1.846,-6.951Z" style="fill:#3c3c3c;fill-rule:nonzero;"/><path d="M721.671,150.423c7.497,14.556 -22.193,40.78 -30.408,38.828c-8.214,-1.953 -21.462,-31.264 -18.985,-36.524c2.477,-5.259 42.101,-16.468 49.393,-2.304Z" style="fill:#fed892;fill-rule:nonzero;"/><path d="M693.335,139.393c0,2.464 -15.027,3.088 -15.027,0l0,-28.369l15.027,0l0,28.369Z" style="fill:#d37c59;fill-rule:nonzero;"/><ellipse cx="680.393" cy="95.771" rx="19.616" ry="31.722" style="fill:#dc8e6c;"/><path d="M665.697,74.754c-0.304,4.632 1.922,9.084 5.811,11.621c5.85,3.984 10.02,2.224 14.31,5.976c2.265,2.265 7.809,6.641 7.863,13.401c0,5 1.64,7.524 3.081,7.524c1.441,0 5.239,-0.996 7.683,-0.996c23.999,0 52.182,24.776 106.25,24.776c28.242,0 72.561,-7.126 72.561,-48.603c0,-22.399 -8.061,-49.466 -50.674,-49.466c-27.06,0 -46.019,13.281 -68.252,13.281c-28.555,0 -39.565,-10.339 -59.294,-10.339c-14.051,0 -45.674,8.141 -45.674,29.471c0,8.102 2.537,10.452 3.32,10.871c0.253,-0.89 1.8,-5.485 3.015,-7.517Z" style="fill:#3c3c3c;fill-rule:nonzero;"/><circle cx="691.662" cy="103.282" r="5.007" style="fill:#dc8e6c;"/></g></g></svg>