<svg version="1.1" xmlns="http://www.w3.org/2000/svg" viewBox="0 0 250 250" width="100%" height="100%" fill="#0091e2"><title>Docker</title><path d="M223.052,107.515c-0.556,-0.464 -5.565,-4.267 -16.325,-4.267c-2.783,0 -5.659,0.278 -8.442,0.742c-2.04,-14.192 -13.821,-21.056 -14.284,-21.427l-2.876,-1.67l-1.855,2.69c-2.319,3.618 -4.081,7.699 -5.102,11.873c-1.948,8.07 -0.742,15.677 3.34,22.17c-4.917,2.782 -12.894,3.432 -14.564,3.525l-131.717,0c-3.432,0 -6.215,2.782 -6.215,6.214c-0.185,11.502 1.763,23.005 5.751,33.857c4.545,11.873 11.317,20.686 20.036,26.066c9.832,6.029 25.88,9.461 43.968,9.461c8.162,0 16.325,-0.742 24.395,-2.226c11.224,-2.041 21.984,-5.937 31.909,-11.595c8.163,-4.731 15.491,-10.76 21.706,-17.81c10.482,-11.78 16.696,-24.952 21.242,-36.64l1.855,0c11.409,0 18.459,-4.545 22.355,-8.441c2.597,-2.411 4.545,-5.38 5.936,-8.719l0.835,-2.412l-1.948,-1.391Z"/><path d="M43.471,117.347l17.624,0c0.835,0 1.577,-0.649 1.577,-1.576l0,-15.769c0,-0.835 -0.649,-1.577 -1.577,-1.577l-17.624,0c-0.835,0 -1.577,0.649 -1.577,1.577l0,15.769c0.093,0.927 0.742,1.576 1.577,1.576"/><path d="M67.774,117.347l17.624,0c0.835,0 1.577,-0.649 1.577,-1.576l0,-15.769c0,-0.835 -0.649,-1.577 -1.577,-1.577l-17.624,0c-0.835,0 -1.577,0.649 -1.577,1.577l0,15.769c0.093,0.927 0.742,1.576 1.577,1.576"/><path d="M92.54,117.347l17.625,0c0.834,0 1.577,-0.649 1.577,-1.576l0,-15.769c0,-0.835 -0.65,-1.577 -1.577,-1.577l-17.625,0c-0.834,0 -1.576,0.649 -1.576,1.577l0,15.769c0,0.927 0.649,1.576 1.576,1.576"/><path d="M116.936,117.347l17.624,0c0.835,0 1.577,-0.649 1.577,-1.576l0,-15.769c0,-0.835 -0.649,-1.577 -1.577,-1.577l-17.624,0c-0.835,0 -1.577,0.649 -1.577,1.577l0,15.769c0,0.927 0.742,1.576 1.577,1.576"/><path d="M67.774,94.807l17.624,0c0.835,0 1.577,-0.742 1.577,-1.577l0,-15.769c0,-0.835 -0.649,-1.577 -1.577,-1.577l-17.624,0c-0.835,0 -1.577,0.65 -1.577,1.577l0,15.769c0.093,0.835 0.742,1.577 1.577,1.577"/><path d="M92.54,94.807l17.625,0c0.834,0 1.577,-0.742 1.577,-1.577l0,-15.769c0,-0.835 -0.65,-1.577 -1.577,-1.577l-17.625,0c-0.834,0 -1.576,0.65 -1.576,1.577l0,15.769c0,0.835 0.649,1.577 1.576,1.577"/><path d="M116.936,94.807l17.624,0c0.835,0 1.577,-0.742 1.577,-1.577l0,-15.769c0,-0.835 -0.742,-1.577 -1.577,-1.577l-17.624,0c-0.835,0 -1.577,0.65 -1.577,1.577l0,15.769c0,0.835 0.742,1.577 1.577,1.577"/><path d="M116.936,72.174l17.624,0c0.835,0 1.577,-0.649 1.577,-1.577l0,-15.769c0,-0.835 -0.742,-1.577 -1.577,-1.577l-17.624,0c-0.835,0 -1.577,0.649 -1.577,1.577l0,15.769c0,0.835 0.742,1.577 1.577,1.577"/><path d="M141.517,117.347l17.624,0c0.835,0 1.577,-0.649 1.577,-1.576l0,-15.769c0,-0.835 -0.649,-1.577 -1.577,-1.577l-17.624,0c-0.835,0 -1.577,0.649 -1.577,1.577l0,15.769c0.093,0.927 0.742,1.576 1.577,1.576"/></svg>