<svg viewBox="0 0 1600 1600" xmlns="http://www.w3.org/2000/svg" fill-rule="evenodd" clip-rule="evenodd" stroke-linejoin="round" stroke-miterlimit="2"><path d="M397.78 103.334c122.86-70.933 673.091-67.865 796.745 4.443 123.653 72.308 401.426 553.425 402.22 696.666.794 143.241-271.665 621.29-394.525 692.223-122.86 70.933-673.091 67.865-796.745-4.443C281.822 1419.915 4.049 938.798 3.255 795.557 2.461 652.316 274.92 174.267 397.78 103.334z" fill="#db0b2f" fill-opacity="0.75"/><g fill="#fff"><path d="M1239.99 933.427c7.203-11.023 4.101-19.973-6.922-19.973h-159.781c-11.023 0-25.82 8.95-33.023 19.973l-113.757 174.092c-7.203 11.023-4.101 19.973 6.922 19.973h159.781c11.023 0 25.82-8.95 33.023-19.973l113.757-174.092z"/><path d="M1236.52 1085.94c15.327-10.827 9.389-24.034-3.867-22.674H1079.1c-4.709 0-11.437 4.447-15.016 9.925l-126.888 194.188c-9.019 12.277 6.863 24.231 18.902 16.437 49.858-32.276 230.981-162.953 280.422-197.876z"/></g></svg>
