<svg version="1.1" xmlns="http://www.w3.org/2000/svg" viewBox="0 0 250 250" width="100%" height="100%"><title>Java</title><path d="M186.083,195.868c0,0 5.657,4.66 -6.229,8.265c-22.599,6.845 -94.06,8.914 -113.911,0.273c-7.136,-3.105 6.247,-7.413 10.456,-8.317c4.39,-0.952 6.899,-0.775 6.899,-0.775c-7.936,-5.591 -51.296,10.977 -22.025,15.722c79.827,12.946 145.518,-5.829 124.81,-15.168m-83.653,-60.781c0,0 -36.351,8.633 -12.874,11.769c9.913,1.326 29.675,1.026 48.081,-0.516c15.044,-1.269 30.148,-3.966 30.148,-3.966c0,0 -5.303,2.272 -9.141,4.891c-36.912,9.709 -108.221,5.192 -87.693,-4.738c17.363,-8.393 31.479,-7.44 31.479,-7.44m65.206,36.448c37.523,-19.499 20.175,-38.236 8.064,-35.712c-2.968,0.618 -4.291,1.153 -4.291,1.153c0,0 1.102,-1.726 3.205,-2.474c23.957,-8.421 42.382,24.841 -7.733,38.017c0,0 0.582,-0.52 0.755,-0.984" fill="#5382a1"/><path d="M145.012,25c0,0 20.782,20.787 -19.708,52.754c-32.471,25.642 -7.405,40.262 -0.015,56.967c-18.951,-17.101 -32.86,-32.153 -23.53,-46.164c13.695,-20.566 51.639,-30.536 43.253,-63.557" fill="#e76f00"/><path d="M106.117,224.371c36.017,2.306 91.326,-1.279 92.635,-18.321c0,0 -2.517,6.46 -29.766,11.591c-30.741,5.785 -68.657,5.11 -91.146,1.403c0.001,-0.001 4.604,3.809 28.277,5.327" fill="#5382a1"/><path d="M98.754,179.671c0,0 -7.643,4.444 5.439,5.949c15.848,1.807 23.949,1.549 41.413,-1.758c0,0 4.593,2.88 11.005,5.373c-39.152,16.781 -88.609,-0.971 -57.857,-9.564m-4.785,-21.897c0,0 -8.571,6.345 4.519,7.7c16.931,1.747 30.3,1.889 53.435,-2.566c0,0 3.201,3.244 8.233,5.018c-47.338,13.842 -100.064,1.093 -66.187,-10.152" fill="#5382a1"/><path d="M134.301,120.63c9.647,11.107 -2.533,21.102 -2.533,21.102c0,0 24.494,-12.645 13.244,-28.48c-10.506,-14.768 -18.563,-22.105 25.057,-47.402c0,-0.001 -68.47,17.1 -35.768,54.78" fill="#e76f00"/></svg>