<svg version="1.1" xmlns="http://www.w3.org/2000/svg" viewBox="0 0 250 250" width="100%" height="100%"><title>Jenkins</title><path d="M195.145,121.375c0,39.625 -31.404,71.747 -70.144,71.747c-38.739,0 -70.144,-32.122 -70.144,-71.747c0,-39.626 31.405,-71.749 70.144,-71.749c38.74,0 70.144,32.123 70.144,71.749" fill="#d33833"/><path d="M57.715,139.144c0,0 -5.078,-74.82 63.865,-76.958l-4.81,-8.017l-37.41,12.56l-10.689,12.291l-9.353,17.904l-5.344,20.843l1.603,13.896" fill="#ef3d3a"/><path d="M76.958,72.43c-12.307,12.592 -19.923,29.979 -19.923,49.213c0,19.23 7.616,36.618 19.923,49.208c12.313,12.59 29.282,20.359 48.042,20.359c18.76,0 35.731,-7.769 48.042,-20.359c12.306,-12.59 19.924,-29.978 19.924,-49.208c0,-19.234 -7.618,-36.621 -19.924,-49.213c-12.311,-12.588 -29.282,-20.356 -48.042,-20.358c-18.76,0.002 -35.729,7.77 -48.042,20.358Zm-3.115,101.467c-13.08,-13.376 -21.166,-31.863 -21.166,-52.254c0,-20.395 8.086,-38.88 21.166,-52.257c13.076,-13.38 31.177,-21.673 51.157,-21.67c19.98,-0.003 38.083,8.29 51.157,21.67c13.08,13.377 21.167,31.863 21.166,52.257c0.001,20.391 -8.086,38.878 -21.166,52.254c-13.074,13.379 -31.177,21.671 -51.157,21.671c-19.98,0 -38.081,-8.292 -51.157,-21.671" fill="#231f20"/><path d="M154.528,121.773l-10.689,1.603l-14.43,1.603l-9.353,0.267l-9.085,-0.267l-6.948,-2.138l-6.146,-6.68l-4.81,-13.628l-1.069,-2.94l-6.413,-2.137l-3.741,-6.146l-2.672,-8.819l2.939,-7.749l6.947,-2.405l5.612,2.673l2.673,5.878l3.206,-0.535l1.069,-1.335l-1.069,-6.146l-0.267,-7.75l1.603,-10.688l-0.063,-6.106l4.873,-7.789l8.551,-6.147l14.965,-6.413l16.567,2.405l14.429,10.422l6.681,10.688l4.276,7.75l1.068,19.239l-3.206,16.568l-5.879,14.697l-5.611,7.749" fill="#f0d6b7"/><path d="M145.442,168.001l-38.213,1.603l0,6.413l3.207,22.447l-1.603,1.871l-26.722,-9.086l-1.871,-3.207l-2.672,-30.195l-6.145,-18.171l-1.336,-4.275l21.376,-14.697l6.681,-2.673l5.879,7.215l5.077,4.543l5.879,1.87l2.672,0.802l3.207,13.895l2.404,2.94l6.147,-2.138l-4.276,8.284l23.248,10.955l-2.939,1.604" fill="#335061"/><path d="M82.111,74.742l6.947,-2.405l5.612,2.673l2.673,5.878l3.206,-0.535l0.802,-3.206l-1.603,-6.146l1.603,-14.697l-1.336,-8.017l4.809,-5.611l10.422,-8.284l-2.94,-4.008l-14.696,7.215l-6.147,4.81l-3.473,7.482l-5.345,7.215l-1.603,8.551l1.069,9.085" fill="#6d6b6d"/><path d="M93.067,49.624c0,0 4.008,-9.887 20.041,-14.697c16.033,-4.81 0.802,-3.474 0.802,-3.474l-17.369,6.681l-6.681,6.68l-2.939,5.344l6.146,-0.534" fill="#dcd9d8"/><path d="M85.05,72.872c0,0 -5.611,-18.706 15.766,-21.378l-0.801,-3.207l-14.697,3.475l-4.276,13.895l1.069,9.085l2.939,-1.87" fill="#dcd9d8"/><path d="M93.601,97.723l3.499,-3.39c0,0 1.579,0.183 1.846,2.054c0.267,1.871 1.069,18.705 12.559,27.791c1.048,0.829 -8.551,-1.337 -8.551,-1.337l-8.551,-13.36" fill="#f7e4cd"/><path d="M142.771,92.646c0,0 0.623,-8.1 2.804,-7.477c2.182,0.623 2.182,2.804 2.182,2.804c0,0 -5.298,3.427 -4.986,4.673" fill="#f7e4cd"/><path d="M164.949,62.985c0,0 -4.404,0.93 -4.81,4.81c-0.406,3.881 4.81,0.801 5.611,0.534" fill="#f7e4cd"/><path d="M132.616,63.253c0,0 -5.88,0.801 -5.88,4.542c0,3.741 6.681,3.474 8.552,1.871" fill="#f7e4cd"/><path d="M96.273,80.621c0,0 -10.154,-6.146 -11.223,-0.267c-1.069,5.879 -3.474,10.155 1.604,16.3l-3.474,-1.068l-3.207,-8.284l-1.068,-8.016l6.145,-6.414l6.948,0.534l4.008,3.207l0.267,4.008" fill="#f7e4cd"/><path d="M101.083,63.787c0,0 4.543,-23.515 27.524,-28.058c18.92,-3.74 28.859,0.801 32.6,5.077c0,0 -16.834,-20.041 -32.867,-13.896c-16.034,6.147 -27.791,17.37 -27.524,24.584c0.455,12.288 0.267,12.293 0.267,12.293" fill="#f7e4cd"/><path d="M163.079,43.477c0,0 -7.749,-0.267 -8.017,6.681c0,0 -0.001,1.069 0.534,2.138c0,0 6.147,-6.948 9.888,-3.207" fill="#f7e4cd"/><path d="M129.146,53.02c0,0 -1.334,-10.665 -10.426,-4.465c-5.879,4.008 -5.344,9.62 -4.276,10.689c1.069,1.069 0.778,3.221 1.592,1.744c0.813,-1.478 0.546,-6.287 3.485,-7.623c2.94,-1.336 7.759,-2.829 9.625,-0.345" fill="#f7e4cd"/><path d="M104.023,125.246l-25.118,11.223c0,0 10.421,41.419 5.076,54.246l-3.741,-1.336l-0.267,-15.766l-6.947,-29.928l-2.939,-8.284l26.186,-17.636l7.75,7.481" fill="#49728b"/><path d="M106.606,148.155l3.563,4.348l0,16.033l-4.276,0c0,0 -0.534,-11.223 -0.534,-12.559c0,-1.337 0.534,-6.147 0.534,-6.147" fill="#49728b"/><path d="M106.695,170.941l-12.025,0.534l3.474,2.405l8.551,1.336" fill="#49728b"/><path d="M147.847,168.268l9.887,-0.267l2.405,24.585l-10.155,1.335l-2.137,-25.653" fill="#335061"/><path d="M150.519,168.268l14.965,-0.801c0,0 6.145,-15.499 6.145,-16.3c0,-0.802 5.345,-22.447 5.345,-22.447l-12.025,-12.558l-2.405,-2.138l-6.413,6.413l0,24.851l-5.612,22.98" fill="#335061"/><path d="M157.199,166.398l-9.352,1.87l1.336,7.483c3.473,1.603 9.353,-2.673 9.353,-2.673" fill="#49728b"/><path d="M157.467,119.635l18.705,13.895l0.535,-6.413l-14.163,-13.093l-5.077,5.611" fill="#49728b"/><path d="M115.968,220.913l-5.532,-22.449l-2.752,-16.565l-0.455,-12.295l25.04,-1.333l15.578,-0.003l-1.416,28.061l2.405,21.644l-0.267,4.009l-20.308,1.603l-12.293,-2.672" fill="#fff"/><path d="M144.373,168.001c0,0 -1.336,27.791 2.672,47.565c0,0 -8.016,5.078 -19.774,6.413l22.446,-0.801l2.672,-1.604l-3.206,-43.823l-0.802,-9.354" fill="#dcd9d8"/><path d="M160.594,190.45l10.422,-2.939l19.773,-1.069l2.94,-9.085l-5.345,-15.766l-6.145,-0.802l-8.551,2.672l-8.204,4.006l-4.356,-0.799l-3.394,1.333" fill="#fff"/><path d="M160.406,185.103c0,0 6.947,-3.206 8.016,-2.939l-2.938,-14.697l3.473,-1.336c0,0 2.405,13.895 2.405,15.498c0,0 14.964,0.802 16.3,0.802c0,0 3.207,-6.146 2.405,-12.559l2.94,8.551l0.267,4.81l-4.276,6.413l-4.81,1.069l-8.016,-0.267l-2.672,-3.474l-9.353,1.336l-2.94,1.069" fill="#dcd9d8"/><path d="M149.905,166.134l-5.879,-14.965l-6.146,-8.818c0,0 1.336,-3.741 3.207,-3.741l6.146,0l5.879,2.138l-0.534,9.887l-2.673,15.499" fill="#fff"/><path d="M151.054,161.054c0,0 -7.483,-14.43 -7.483,-16.567c0,0 1.336,-3.207 3.207,-2.405c1.871,0.801 5.879,2.938 5.879,2.938l0,-5.076l-9.086,-1.871l-6.145,0.801l10.421,24.585l2.137,0.267" fill="#dcd9d8"/><path d="M118.374,125.784l-7.403,-0.805l-6.948,-2.138l0,2.405l3.395,3.744l10.688,4.81" fill="#fff"/><path d="M106.429,126.585c0,0 8.284,3.474 10.956,2.673l0.266,3.203l-7.481,-1.6l-4.543,-3.207l0.802,-1.069" fill="#dcd9d8"/><path d="M160.565,139.52c-4.534,-0.134 -8.63,-0.672 -12.217,-1.684c0.244,-1.47 -0.212,-2.913 0.154,-3.972c1,-0.72 2.675,-0.709 4.186,-0.878c-1.306,-0.642 -3.142,-0.896 -4.65,-0.525c-0.035,-1.021 -0.493,-1.653 -0.77,-2.451c2.549,-0.91 8.567,-6.875 11.952,-4.9c1.613,0.939 2.299,6.306 2.424,8.915c0.104,2.164 -0.197,4.348 -1.079,5.495" fill="#d33833"/><path d="M160.565,139.52c-4.534,-0.134 -8.63,-0.672 -12.217,-1.684c0.244,-1.47 -0.212,-2.913 0.154,-3.972c1,-0.72 2.675,-0.709 4.186,-0.878c-1.306,-0.642 -3.142,-0.896 -4.65,-0.525c-0.035,-1.021 -0.493,-1.653 -0.77,-2.451c2.549,-0.91 8.567,-6.875 11.952,-4.9c1.613,0.939 2.299,6.306 2.424,8.915c0.104,2.164 -0.197,4.348 -1.079,5.495Z" fill="none;fill-rule:nonzero;stroke:#d33833;stroke-width:1.6px"/><path d="M138.883,132.107c-0.012,0.344 -0.026,0.689 -0.04,1.035c-1.416,0.93 -3.701,0.919 -5.255,1.701c2.29,0.1 4.093,0.651 5.653,1.429c-0.034,0.864 -0.067,1.728 -0.101,2.592c-2.595,1.776 -4.965,4.422 -8.02,6.088c-1.445,0.787 -6.515,2.815 -8.052,2.457c-0.869,-0.202 -0.948,-1.282 -1.295,-2.299c-0.741,-2.178 -2.446,-5.645 -2.595,-8.924c-0.189,-4.141 -0.607,-11.082 3.856,-10.229c3.6,0.687 7.788,2.346 10.576,3.869c1.703,0.931 2.689,2.083 5.273,2.281" fill="#d33833"/><path d="M138.883,132.107c-0.012,0.344 -0.026,0.689 -0.04,1.035c-1.416,0.93 -3.701,0.919 -5.255,1.701c2.29,0.1 4.093,0.651 5.653,1.429c-0.034,0.864 -0.067,1.728 -0.101,2.592c-2.595,1.776 -4.965,4.422 -8.02,6.088c-1.445,0.787 -6.515,2.815 -8.052,2.457c-0.869,-0.202 -0.948,-1.282 -1.295,-2.299c-0.741,-2.178 -2.446,-5.645 -2.595,-8.924c-0.189,-4.141 -0.607,-11.082 3.856,-10.229c3.6,0.687 7.788,2.346 10.576,3.869c1.703,0.931 2.689,2.083 5.273,2.281Z" fill="none;fill-rule:nonzero;stroke:#d33833;stroke-width:1.6px"/><path d="M141.46,137.049c-0.396,-2.256 -0.853,-2.9 -0.676,-4.868c6.016,-4.011 7.146,6.89 0.676,4.868" fill="#d33833"/><path d="M141.46,137.049c-0.396,-2.256 -0.853,-2.9 -0.676,-4.868c6.016,-4.011 7.146,6.89 0.676,4.868Z" fill="none;fill-rule:nonzero;stroke:#d33833;stroke-width:1.6px"/><path d="M150.172,138.877c0,0 -1.871,-2.672 -0.535,-3.474c1.337,-0.802 2.673,0.001 3.475,-1.336c0.801,-1.336 0,-2.138 0.267,-3.741c0.266,-1.603 1.604,-1.871 2.939,-2.138c1.336,-0.267 5.078,-0.801 5.612,0.535l-1.604,-4.81l-3.206,-1.069l-10.155,5.879l-0.534,2.94l0,5.878" fill="#ef3d3a"/><path d="M122.114,147.696c-0.321,-4.171 -0.661,-8.335 -1.038,-12.501c-0.566,-6.221 1.494,-5.136 6.886,-5.136c0.824,0 5.071,0.982 5.375,1.604c1.458,2.976 -2.437,2.315 1.679,4.559c3.474,1.895 9.612,-1.15 8.208,-5.361c-0.786,-0.936 -4.093,-0.292 -5.279,-0.907c-2.087,-1.082 -4.175,-2.164 -6.263,-3.246c-2.656,-1.379 -8.794,-3.387 -11.626,-1.462c-7.175,4.88 0.453,17.072 3.012,22.163" fill="#ef3d3a"/><path d="M129.146,53.02c-7.283,-1.697 -10.902,3.047 -13.11,7.968c-1.971,-0.478 -1.187,-3.159 -0.689,-4.525c1.304,-3.585 6.557,-8.357 10.85,-7.71c1.847,0.278 4.347,1.967 2.949,4.267" fill="#231f20"/><path d="M164.632,61.313c0.115,0.005 0.231,0.009 0.346,0.014c1.645,3.419 3.07,7.041 5.146,10.059c-1.391,3.24 -10.532,6.106 -10.391,0.29c1.977,-0.865 5.39,-0.177 7.142,-1.281c-1.013,-2.781 -2.475,-5.148 -2.243,-9.082" fill="#231f20"/><path d="M132.875,61.402c1.561,2.863 2.07,5.871 4.289,8.035c1,0.974 2.944,2.161 1.98,4.87c-0.225,0.639 -1.871,2.063 -2.821,2.343c-3.47,1.024 -11.556,0.211 -8.818,-4.115c2.87,0.134 6.728,1.864 8.873,-0.22c-1.648,-2.633 -4.584,-7.843 -3.503,-10.913" fill="#231f20"/><path d="M163.329,90.498c-5.225,3.356 -11.051,7.006 -19.613,6.16c-1.829,-1.591 -2.527,-5.13 -0.749,-7.468c0.925,1.591 0.344,4.516 2.922,4.956c4.858,0.831 10.512,-2.972 14.006,-4.301c2.167,-3.653 -0.187,-4.997 -2.139,-7.348c-3.996,-4.817 -9.357,-10.788 -9.162,-17.999c1.616,-1.172 1.755,1.787 1.987,2.326c2.086,4.884 7.338,11.129 11.171,15.309c0.941,1.029 2.491,2.017 2.663,2.698c0.497,1.979 -1.293,4.35 -1.086,5.667" fill="#231f20"/><path d="M94.445,86.964c-1.638,-0.935 -2.028,-5.052 -3.951,-5.169c-2.748,-0.167 -2.247,5.341 -2.236,8.562c-1.891,-1.717 -2.224,-7.004 -0.834,-9.719c-1.584,-0.778 -2.291,0.858 -3.169,1.434c1.129,-8.201 11.996,-3.804 10.19,4.892" fill="#231f20"/><path d="M166.656,93.913c-2.432,4.629 -5.873,9.728 -13.01,9.876c-0.145,-1.495 -0.256,-3.77 0.008,-4.67c5.456,-0.525 8.825,-3.302 13.002,-5.206" fill="#231f20"/><path d="M132.463,96.914c4.552,2.394 12.918,2.651 19.105,2.47c0.332,1.356 0.324,3.03 0.337,4.683c-7.953,0.397 -17.357,-1.571 -19.442,-7.153" fill="#231f20"/><path d="M131.598,101.378c3.148,7.903 13.967,6.993 23.09,6.775c-0.401,1.026 -1.272,2.238 -2.354,2.677c-2.924,1.19 -10.987,2.092 -15.046,-0.063c-2.574,-1.369 -4.228,-4.461 -5.639,-6.273c-0.681,-0.876 -4.072,-3.112 -0.051,-3.116" fill="#231f20"/><path d="M162.949,144.974c-3.694,6.327 -7.228,12.825 -11.611,18.405c1.838,-5.402 2.624,-14.444 2.902,-21.337c3.843,-1.799 7.135,0.404 8.709,2.932" fill="#81b0c4"/><path d="M182.827,167.713c-4.135,0.828 -7.041,4.847 -11.076,4.589c2.217,-3.125 6.103,-4.443 11.076,-4.589" fill="#231f20"/><path d="M184.652,174.185c-3.371,0.356 -7.33,0.902 -10.75,0.621c1.619,-2.472 7.855,-1.619 10.75,-0.621" fill="#231f20"/><path d="M185.82,179.766c-3.789,0.082 -8.498,0.006 -12.099,-0.296c2.13,-2.288 9.642,-0.849 12.099,0.296" fill="#231f20"/><path d="M155.821,195.036c0.544,4.758 2.43,9.579 2.194,14.79c-2.095,0.707 -3.299,1.324 -6.105,1.321c-0.198,-4.429 -0.791,-11.199 -0.613,-15.42c1.38,0.091 3.415,-0.986 4.524,-0.691" fill="#dcd9d8"/><path d="M149.713,124.914c-1.902,1.242 -3.522,2.792 -5.349,4.118c-4.052,0.201 -6.263,-0.28 -9.239,-2.607c0.049,-0.186 0.348,-0.103 0.359,-0.332c4.337,1.932 9.85,-0.788 14.229,-1.179" fill="#f0d6b7"/><path d="M126.946,154.478c1.192,-5.164 5.861,-7.838 10.1,-10.682c4.377,5.554 7.038,12.697 9.969,19.59c-6.925,-2.088 -14,-5.475 -20.069,-8.908" fill="#81b0c4"/><path d="M151.297,195.727c-0.178,4.221 0.415,10.991 0.613,15.42c2.806,0.003 4.01,-0.614 6.105,-1.321c0.236,-5.211 -1.65,-10.032 -2.194,-14.79c-1.109,-0.295 -3.144,0.782 -4.524,0.691Zm-43.702,-24.009c1.851,17.014 4.531,31.316 9.448,46.381c10.911,3.313 24.065,3.602 33.71,0.613c-1.771,-8.504 -0.997,-18.856 -2.032,-27.93c-0.78,-6.82 -0.382,-13.683 -1.452,-20.641c-11.686,-2.431 -28.205,-0.568 -39.674,1.577Zm42.437,-1.47c-0.098,7.307 0.328,14.514 0.885,21.831c2.806,-0.422 4.71,-0.703 7.317,-1.274c-0.846,-7.044 -0.742,-14.969 -2.467,-21.199c-1.992,0.019 -3.747,-0.024 -5.735,0.642Zm14.234,-1.178c-1.332,-0.305 -2.882,-0.012 -4.154,0.013c0.598,5.956 2.049,12.529 2.559,18.781c2.002,0.063 3.071,-0.882 4.718,-1.199c0.088,-5.488 -0.479,-13.05 -3.123,-17.595Zm21.551,19.691c4.173,-1.013 6.797,-6.124 5.63,-11.372c-0.784,-3.527 -2.178,-10.169 -3.671,-12.426c-1.103,-1.669 -4.094,-3.854 -6.482,-2.325c-3.885,2.488 -10.729,3.21 -13.562,6.221c1.421,4.73 1.862,11.227 2.448,17.22c4.853,0.302 10.824,-1.336 14.861,0.402c-2.818,0.913 -6.475,0.92 -8.909,2.251c1.99,0.961 6.648,0.766 9.685,0.029Zm-38.802,-25.375c-2.931,-6.893 -5.592,-14.036 -9.969,-19.59c-4.239,2.844 -8.908,5.518 -10.1,10.682c6.069,3.433 13.144,6.82 20.069,8.908Zm7.225,-21.344c-0.278,6.893 -1.064,15.935 -2.902,21.337c4.383,-5.58 7.917,-12.078 11.611,-18.405c-1.574,-2.528 -4.866,-4.731 -8.709,-2.932Zm-8.19,-2.91c-1.66,-0.179 -3.07,1.908 -5.229,1.006c-0.494,0.546 -0.944,1.139 -1.448,1.673c4.768,5.746 6.935,13.899 10.618,20.652c1.976,-6.487 1.748,-13.594 2.183,-20.674c-2.715,0.172 -4.221,-2.455 -6.124,-2.657Zm-5.266,-6.951c-0.177,1.968 0.28,2.612 0.676,4.868c6.47,2.022 5.34,-8.879 -0.676,-4.868Zm-7.174,-2.355c-2.788,-1.523 -6.976,-3.182 -10.576,-3.869c-4.463,-0.854 -4.045,6.088 -3.856,10.229c0.149,3.279 1.854,6.746 2.595,8.924c0.347,1.017 0.426,2.097 1.295,2.299c1.537,0.358 6.607,-1.67 8.052,-2.457c3.055,-1.666 5.425,-4.312 8.02,-6.088c0.034,-0.864 0.067,-1.728 0.101,-2.592c-1.56,-0.778 -3.363,-1.329 -5.653,-1.429c1.554,-0.782 3.839,-0.771 5.255,-1.701c0.014,-0.346 0.028,-0.691 0.04,-1.035c-2.584,-0.198 -3.57,-1.35 -5.273,-2.281Zm-26.626,-4.836c-2.314,2.348 6.489,5.55 9.292,5.723c-0.016,-1.487 0.847,-2.888 0.673,-3.954c-3.329,-0.585 -7.703,-0.199 -9.965,-1.769Zm28.5,1.103c-0.011,0.229 -0.31,0.146 -0.359,0.332c2.976,2.327 5.187,2.808 9.239,2.607c1.827,-1.326 3.447,-2.876 5.349,-4.118c-4.379,0.391 -9.892,3.111 -14.229,1.179Zm26.16,7.932c-0.125,-2.609 -0.811,-7.976 -2.424,-8.915c-3.385,-1.976 -9.403,3.99 -11.952,4.9c0.277,0.798 0.735,1.43 0.77,2.451c1.508,-0.371 3.344,-0.117 4.65,0.525c-1.511,0.169 -3.186,0.158 -4.186,0.878c-0.366,1.059 0.09,2.502 -0.154,3.972c3.587,1.012 7.683,1.55 12.217,1.684c0.882,-1.147 1.183,-3.331 1.079,-5.495Zm-58.555,-6.764c-0.726,-0.517 -5.641,-6.912 -6.315,-6.647c-8.893,3.507 -17.209,9.572 -24.639,15.308c7.084,15.202 9.944,33.828 10.45,51.78c8.116,3.796 15.245,9.268 26.258,9.84c-1.274,-9.017 -2.438,-17.062 -3.161,-25.551c-2.767,-1.167 -6.738,0.052 -9.327,-0.362c-0.022,-3.121 3.955,-1.367 4.286,-3.465c0.25,-1.588 -2.188,-1.708 -1.394,-4.208c2.024,0.736 3.087,2.362 5.246,2.972c1.973,-4.316 -0.027,-11.953 0.257,-15.56c0.054,-0.677 0.338,-3.752 1.856,-3.213c1.342,0.478 -0.077,8.178 0.07,11.593c0.134,3.145 -0.38,6.189 0.894,8.164c10.642,-1.449 21.457,-2.385 32.972,-2.701c-2.534,-1.087 -5.543,-2.116 -8.842,-3.975c-1.789,-1.009 -7.427,-3.107 -7.943,-4.806c-0.824,-2.707 2.16,-4.149 2.671,-6.47c-5.372,2.93 -6.42,-2.808 -7.691,-6.873c-1.151,-3.682 -1.807,-6.433 -2.089,-8.556c-4.628,-2.206 -9.576,-4.441 -13.559,-7.27Zm53.854,-5.873c7.41,-3.593 8.746,13.428 5.841,18.912c0.449,1.635 1.993,2.261 2.623,3.731c-4.135,7.407 -8.727,14.322 -12.946,21.642c3.138,-1.954 7.621,-0.35 11.314,-1.812c1.35,-0.534 2.327,-3.624 3.349,-6.097c2.812,-6.802 5.764,-15.377 7.077,-21.868c0.296,-1.479 1.104,-4.702 0.923,-6.018c-0.323,-2.357 -3.521,-4.104 -5.147,-5.562c-2.997,-2.692 -4.884,-5.061 -8.01,-7.578c-1.267,1.871 -3.987,3.128 -5.024,4.65Zm-70.8,-65.71c-3.531,3.885 -2.792,11.164 -2.364,16.342c6.382,-4.014 14.852,0.318 14.773,7.146c3.046,-0.081 1.138,-3.805 0.587,-6.205c-1.802,-7.837 3.034,-16.351 0.219,-23.518c-5.466,0.415 -9.957,2.647 -13.215,6.235Zm25.263,-22.548c-7.993,2.266 -18.237,8.074 -21.521,15.254c2.543,-0.369 4.308,-1.652 6.817,-1.811c0.949,-0.061 2.191,0.398 3.281,0.127c2.171,-0.539 4.004,-5.408 5.642,-7.22c1.598,-1.769 3.517,-2.525 4.831,-4.138c0.844,-0.407 2.092,-0.379 2.14,-1.646c-0.366,-0.392 -0.751,-0.69 -1.19,-0.566Zm41.609,2.131c-8.297,-4.681 -22.339,-8.201 -31.164,-3.802c-7.121,3.551 -16.747,9.425 -20.029,16.869c3.066,7.184 -0.908,13.766 -1.161,21.06c-0.135,3.88 1.827,7.268 1.977,11.493c-1.049,1.731 -4.254,1.944 -6.473,1.825c-0.747,-3.737 -2.054,-7.938 -5.902,-8.359c-5.446,-0.596 -9.428,3.911 -9.675,8.621c-0.293,5.538 4.254,14.718 10.699,14.081c2.489,-0.246 3.101,-2.742 5.813,-2.716c1.47,2.933 -2.268,3.854 -2.652,5.952c-0.1,0.542 0.31,2.66 0.548,3.653c1.171,4.837 3.78,11.096 6.349,14.778c3.26,4.67 9.664,5.374 16.554,5.832c1.231,-2.651 5.764,-2.433 8.718,-1.74c-3.54,-1.402 -6.831,-4.801 -9.559,-7.809c-3.133,-3.452 -6.306,-7.155 -6.467,-11.667c5.921,8.214 10.812,15.387 21.578,19c8.147,2.732 17.661,-1.252 23.92,-5.648c2.597,-1.827 4.148,-4.725 5.994,-7.379c6.908,-9.936 10.131,-24.119 9.423,-37.866c-0.292,-5.669 -0.279,-11.319 -2.182,-15.134c-1.988,-3.988 -8.712,-7.556 -12.648,-3.948c-0.73,-3.879 3.273,-6.277 7.975,-4.882c-3.353,-4.326 -6.871,-9.525 -11.636,-12.214Zm15.456,127.918c6.483,-3.223 18.596,-8.675 22.661,0.012c1.5,3.202 3.259,8.614 4.036,11.92c1.097,4.663 -1.19,14.464 -5.983,16.029c-4.233,1.382 -9.173,1.297 -14.272,0.273c-0.601,-0.499 -1.269,-1.37 -1.737,-2.277c-3.641,-0.142 -7.05,0.195 -9.927,1.692c0.273,2.693 -1.548,3.125 -3.256,3.679c-1.266,5.019 2.532,11.574 1.623,16.15c-0.648,3.261 -4.66,3.765 -7.608,4.375c-0.096,1.812 0.129,3.324 0.33,4.857c-0.674,2.485 -3.698,3.899 -6.563,4.245c-9.427,1.134 -23.74,1.643 -32.807,-1.618c-2.53,-6.206 -4.523,-13.754 -6.631,-20.841c-8.843,0.944 -15.995,-3.816 -22.738,-6.934c-2.334,-1.083 -5.564,-1.679 -6.436,-3.537c-0.845,-1.799 -0.499,-5.247 -0.709,-8.504c-0.534,-8.319 -0.991,-16.343 -3.188,-24.86c-0.986,-3.822 -2.706,-7.195 -3.905,-10.878c-1.108,-3.413 -3.045,-7.632 -3.55,-11.035c-0.749,-5.045 4.001,-5.326 7.039,-7.512c4.695,-3.381 8.381,-5.25 13.466,-8.301c1.507,-0.904 6.049,-3.191 6.565,-4.244c1.028,-2.088 -1.763,-5.033 -2.508,-6.67c-1.18,-2.588 -1.796,-4.787 -1.965,-7.341c-4.266,-0.675 -7.5,-3.213 -9.453,-6.076c-3.231,-4.738 -5.472,-13.503 -2.677,-20.17c0.22,-0.526 1.313,-1.558 1.474,-2.365c0.319,-1.588 -0.598,-3.699 -0.655,-5.388c-0.294,-8.666 1.466,-16.133 7.3,-18.746c2.368,-9.435 10.845,-12.572 18.831,-17.261c2.985,-1.752 6.276,-2.872 9.674,-4.122c12.192,-4.487 30.898,-3.642 41.016,4.01c4.291,3.245 11.149,10.097 13.602,15.058c6.479,13.096 6.019,34.984 1.487,50.915c-0.609,2.139 -1.493,5.283 -2.727,7.852c-0.86,1.794 -3.533,5.384 -3.209,6.968c0.335,1.638 6.096,6.013 7.332,7.204c2.224,2.146 6.45,4.994 6.793,7.702c0.368,2.882 -1.27,6.825 -2.1,9.606c-2.773,9.28 -5.48,17.859 -8.625,26.133" fill="#231f20"/><path d="M125.22,98.936c0.351,-0.468 2.285,-1.179 4.991,0.123c0,0 -3.207,0.535 -2.94,5.881l-1.336,-0.268c0,0 -1.381,-4.847 -0.715,-5.736" fill="#f7e4cd"/><path d="M148.649,144.887c0,0.812 -0.658,1.47 -1.47,1.47c-0.812,0 -1.47,-0.658 -1.47,-1.47c0,-0.811 0.658,-1.47 1.47,-1.47c0.812,0 1.47,0.659 1.47,1.47" fill="#1d1919"/><path d="M150.118,151.701c0,0.812 -0.658,1.47 -1.47,1.47c-0.811,0 -1.469,-0.658 -1.469,-1.47c0,-0.811 0.658,-1.47 1.469,-1.47c0.812,0 1.47,0.659 1.47,1.47" fill="#1d1919"/></svg>