<svg width="100%" height="100%" viewBox="0 0 997 245" version="1.1" 
  xmlns="http://www.w3.org/2000/svg">
  <path fill="#9c9c9c" d="M51.84,130.456l-47.05,-65.356l-4.79,0l0,114.8l13.345,0l0,-81.267l36.27,49.274l4.791,0l36.1,-49.103l0,81.096l13.344,0l0,-114.8l-4.619,0l-47.391,65.356Z"/>
  <rect fill="#9c9c9c" x="133.9" y="65.1" width="13.567" height="114.8"/>
  <path fill="#9c9c9c" d="M230.237,65.1c-16.16,0 -29.794,5.555 -41.072,16.665c-11.11,10.941 -16.665,24.575 -16.665,40.735c0,16.16 5.555,29.794 16.665,40.904c11.278,10.941 24.912,16.496 41.072,16.496c19.694,0 36.864,-9.258 46.122,-23.903l-9.763,-7.743c-8.922,12.962 -20.873,19.526 -36.191,19.526c-12.625,0 -23.061,-4.376 -31.646,-12.961c-8.416,-8.585 -12.624,-19.358 -12.624,-32.319c0,-12.961 4.208,-23.734 12.624,-32.319c8.585,-8.585 19.021,-12.961 31.646,-12.961c15.318,0 27.269,6.564 36.191,19.526l9.763,-7.743c-9.427,-14.645 -26.428,-23.903 -46.122,-23.903Z"/>
  <path fill="#9c9c9c" d="M354.452,130.153c14.784,-4.348 24.003,-16.35 24.003,-31.831c0,-9.74 -3.305,-17.741 -10.088,-23.829c-6.61,-6.262 -15.481,-9.393 -26.613,-9.393l-40.354,0l0,114.8l13.567,0l0,-48.181l24.526,0l35.657,48.181l15.829,0l-36.527,-49.747Zm-13.22,-52.877c14.611,0 23.134,8.697 23.134,21.22c0,12.698 -8.349,21.047 -23.134,21.047l-26.265,0l0,-42.267l26.265,0Z"/>
  <circle fill="#dd4222" cx="449.97" cy="122.436" r="57.4"/>
  <path fill="#fff" d="M493.97,130.872l-16.2,0l12.2,-28.4l-36.6,36.6l16.2,0l-12.1,28.4l36.5,-36.6Z"/>
  <path fill="#9c9c9c" d="M523.582,65.1l0,114.8l13.567,0l0,-50.79l48.355,0l0,-12.35l-48.355,0l0,-39.484l58.269,0l0,-12.176l-71.836,0Z"/>
  <path fill="#9c9c9c" d="M611.6,65.1l0,114.8l68.01,0l0,-12.176l-54.443,0l0,-102.624l-13.567,0Z"/>
  <path fill="#9c9c9c" d="M797.643,179.9l-48.931,-114.8l-4.962,0l-48.931,114.8l14.029,0l9.752,-22.926l55.09,0l9.752,22.926l14.201,0Zm-74.081,-34.902l22.583,-55.432l22.584,55.432l-45.167,0Z"/>
  <path fill="#9c9c9c" d="M848.698,65.1c-9.258,0 -17.17,2.693 -23.735,8.08c-6.564,5.218 -9.763,12.288 -9.763,20.872c0,14.14 9.427,22.22 25.081,29.795l12.457,5.891c13.298,6.228 18.516,10.1 18.516,19.526c0,11.278 -9.09,18.516 -22.388,18.516c-12.288,0 -22.724,-6.396 -30.972,-19.021l-9.763,7.238c8.753,14.813 23.566,23.903 40.903,23.903c10.437,0 19.021,-2.862 25.755,-8.585c6.733,-5.723 10.099,-13.129 10.099,-22.387c0,-14.14 -8.416,-22.725 -25.922,-30.973l-12.288,-5.891c-6.565,-3.199 -8.585,-4.04 -12.625,-7.238c-3.871,-3.199 -5.218,-6.565 -5.218,-11.447c0,-10.268 8.753,-16.159 19.694,-16.159c10.773,0 19.19,4.713 25.418,13.971l9.595,-7.238c-7.238,-11.278 -20.031,-18.853 -34.844,-18.853Z"/>
  <path fill="#9c9c9c" d="M983.425,65.1l0,47.312l-64.358,0l0,-47.312l-13.567,0l0,114.8l13.567,0l0,-55.313l64.358,0l0,55.313l13.567,0l0,-114.8l-13.567,0Z"/>
</svg>