<svg width="100%" height="100%" viewBox="0 0 1210 186" xmlns="http://www.w3.org/2000/svg">
  <circle cx="552.059" cy="93" r="92.313" fill="#dd4222"/>
  <path d="M622.537,108.012l-26.008,0l19.586,-45.595l-58.758,58.759l26.008,0l-19.426,45.595l58.598,-58.759Z" fill="#fff"/>
  <path d="M64.7,96.199l-55.796,-71.587l-8.792,0l0,134.376l26.975,0l0,-70.588l33.212,41.793l8.803,0l33.21,-41.793l0,70.588l26.975,0l0,-134.376l-8.791,0l-55.796,71.587Z" fill="#5f9580"/>
  <rect x="154.712" y="27.012" width="26.975" height="131.975" fill="#5f9580"/>
  <path d="M269.687,24.613c-19.8,0 -36.4,6.593 -49.993,19.78c-13.588,12.997 -20.382,29.201 -20.382,48.607c0,19.406 6.794,35.61 20.182,48.807c13.593,12.987 30.193,19.581 49.993,19.581c25.4,0 47,-12.188 58.4,-32.778l-20.4,-14.404c-9.4,14.804 -22,22.207 -37.8,22.207c-12.4,0 -22.6,-4.002 -30.6,-12.004c-8,-8.202 -12,-18.605 -12,-31.209c0,-12.804 4,-23.207 12,-31.409c8,-8.203 18.2,-12.203 30.6,-12.203c15.8,0 28.4,7.401 37.8,22.206l20.4,-14.404c-11.8,-20.59 -33.2,-32.777 -58.2,-32.777Z" fill="#5f9580"/>
  <path d="M419.909,106.993c14.387,-7.192 23.178,-20.582 23.178,-37.393c0,-12.808 -4.395,-23.008 -13.387,-30.8c-8.792,-7.792 -20.191,-11.787 -34.199,-11.787l-49.589,0l0,131.975l26.975,0l0,-46.6l19.812,0l34.203,46.6l30.385,0l-37.378,-51.995Zm-24.408,-56.205c12.207,0 20.011,7.605 20.011,18.812c0,11.408 -7.404,19.013 -20.011,19.013l-22.614,0l0,-37.825l22.614,0Z" fill="#5f9580"/>
  <path d="M662.713,27.013l0,131.975l26.975,0l0,-50.2l49,0l0,-24.375l-49,0l0,-33.025l59.799,0l0,-24.375l-86.774,0Z" fill="#5f9580"/>
  <path d="M764.713,27.012l0,131.976l84.774,0l0,-24.375l-57.799,0l0,-107.601l-26.976,0Z" fill="#5f9580"/>
  <path d="M978.688,158.988l-58.789,-134.376l-8.998,0l-58.989,134.376l28.995,0l7.398,-17.2l53.99,0l7.398,17.2l28.995,0Zm-80.785,-39.375l17.397,-44.4l17.396,44.4l-34.793,0Z" fill="#5f9580"/>
  <path d="M1032.1,24.613c-12.609,0 -23.205,3.396 -31.398,10.389c-8.192,6.793 -12.388,15.787 -12.388,26.99c0,17.405 11.389,28.608 31.978,38.01l14.21,6.402c8.606,4.001 11.408,5.201 14.41,9.403c1.601,2 2.402,4.401 2.402,7.001c0,9.003 -7.005,14.605 -18.814,14.605c-12.408,0 -23.206,-6.402 -32.397,-19.206l-18.589,14.004c10.196,17.788 28.58,29.177 50.986,29.177c13.41,0 24.608,-3.597 33.2,-10.789c8.592,-7.193 12.989,-16.787 12.989,-28.791c0,-17.805 -10.391,-28.808 -32.579,-38.61l-15.011,-6.602c-11.208,-5.002 -15.41,-8.202 -15.41,-15.204c0,-8.203 7.004,-12.804 16.411,-12.804c10.007,0 18.413,5.001 25.208,15.204l18.383,-14.204c-8.192,-15.186 -23.378,-24.975 -43.591,-24.975Z" fill="#5f9580"/>
  <path d="M1182.91,27.012l-0.001,50.601l-58.425,0l0,-50.601l-26.975,0l0,131.976l26.975,0l0,-57l58.425,0l0,57l26.976,0l0,-131.976l-26.976,0Z" fill="#5f9580"/>
</svg>