<svg width="100%" height="100%" viewBox="0 0 1279 147" version="1.1" xmlns="http://www.w3.org/2000/svg" xmlns:xlink="http://www.w3.org/1999/xlink" xml:space="preserve" xmlns:serif="http://www.serif.com/" style="fill-rule:evenodd;clip-rule:evenodd;stroke-linecap:square;stroke-linejoin:round;stroke-miterlimit:1.5;"><g transform="matrix(1,0,0,1,-61.0709,65.6482)"><g transform="matrix(200,0,0,200,46.0709,78.7518)"><path d="M0.075,-0.71l0,0.71l0.159,0l0,-0.438l0.208,0.287l0.207,-0.286l0,0.437l0.16,0l0,-0.71l-0.145,0l-0.223,0.306l-0.221,-0.306l-0.145,0Z" style="fill:#12895a;fill-rule:nonzero;"/></g><g transform="matrix(200,0,0,200,222.871,78.7518)"><rect x="0.075" y="-0.71" width="0.159" height="0.71" style="fill:#12895a;fill-rule:nonzero;"/></g><g transform="matrix(200,0,0,200,284.671,78.7518)"><path d="M0.402,0.012c0.147,0 0.271,-0.078 0.332,-0.194l-0.14,-0.076c-0.04,0.072 -0.103,0.116 -0.192,0.116c-0.116,0 -0.207,-0.098 -0.207,-0.213c0,-0.115 0.091,-0.213 0.207,-0.213c0.089,0 0.152,0.044 0.192,0.116l0.14,-0.076c-0.061,-0.116 -0.185,-0.194 -0.332,-0.194c-0.203,0 -0.367,0.165 -0.367,0.367c0,0.202 0.164,0.367 0.367,0.367Z" style="fill:#12895a;fill-rule:nonzero;"/></g><g transform="matrix(200,0,0,200,435.071,78.7518)"><path d="M0.075,0l0.159,0l0,-0.293l0.025,0l0.237,0.293l0.191,0l-0.251,-0.313c0.091,-0.032 0.139,-0.091 0.139,-0.183c0,-0.117 -0.086,-0.214 -0.22,-0.214l-0.28,0l0,0.71Zm0.159,-0.428l0,-0.136l0.102,0c0.047,0 0.081,0.025 0.081,0.068c0,0.041 -0.034,0.068 -0.081,0.068l-0.102,0Z" style="fill:#12895a;fill-rule:nonzero;"/></g><g transform="matrix(200,0,0,200,562.271,78.7518)"><path d="M0.402,-0.142c-0.116,0 -0.207,-0.098 -0.207,-0.213c0,-0.115 0.091,-0.213 0.207,-0.213c0.115,0 0.206,0.098 0.206,0.213c0,0.115 -0.091,0.213 -0.206,0.213Zm0,0.154c0.202,0 0.367,-0.165 0.367,-0.367c0,-0.202 -0.165,-0.367 -0.367,-0.367c-0.203,0 -0.367,0.165 -0.367,0.367c0,0.202 0.164,0.367 0.367,0.367Z" style="fill:#dd4222;fill-rule:nonzero;"/></g><g transform="matrix(200,0,0,200,723.071,78.7518)"><path d="M0.075,0l0.159,0l0,-0.278l0.217,0l0,-0.152l-0.217,0l0,-0.128l0.278,0l0,-0.152l-0.437,0l0,0.71Z" style="fill:#12895a;fill-rule:nonzero;"/></g><g transform="matrix(200,0,0,200,832.071,78.7518)"><path d="M0.075,0l0.453,0l0,-0.152l-0.294,0l0,-0.558l-0.159,0l0,0.71Z" style="fill:#12895a;fill-rule:nonzero;"/></g><g transform="matrix(200,0,0,200,942.471,78.7518)"><path d="M-0.001,0l0.166,0l0.063,-0.15l0.294,0l0.063,0.15l0.166,0l-0.304,-0.71l-0.144,0l-0.304,0.71Zm0.376,-0.501l0.089,0.213l-0.179,0l0.09,-0.213Z" style="fill:#12895a;fill-rule:nonzero;"/></g><g transform="matrix(200,0,0,200,1088.47,78.7518)"><path d="M0.287,0.012c0.148,0 0.254,-0.09 0.254,-0.219c0.001,-0.107 -0.066,-0.175 -0.169,-0.212l-0.05,-0.018c-0.076,-0.027 -0.11,-0.043 -0.11,-0.082c0,-0.037 0.043,-0.054 0.086,-0.054c0.045,0 0.09,0.019 0.123,0.059l0.104,-0.11c-0.067,-0.072 -0.142,-0.098 -0.229,-0.098c-0.141,0 -0.245,0.081 -0.245,0.219c0,0.097 0.063,0.166 0.179,0.205l0.05,0.017c0.072,0.024 0.099,0.049 0.099,0.085c0,0.035 -0.033,0.059 -0.086,0.059c-0.052,0 -0.112,-0.03 -0.147,-0.081l-0.122,0.103c0.056,0.08 0.15,0.127 0.263,0.127Z" style="fill:#12895a;fill-rule:nonzero;"/></g><g transform="matrix(200,0,0,200,1203.67,78.7518)"><path d="M0.075,0l0.159,0l0,-0.281l0.286,0l0,0.281l0.159,0l0,-0.71l-0.159,0l0,0.278l-0.286,0l0,-0.278l-0.159,0l0,0.71Z" style="fill:#12895a;fill-rule:nonzero;"/></g></g><circle cx="582.778" cy="73.4" r="46" style="fill:#dd4222;"/><path d="M605.717,69.311l-16.981,19.58l35,0l-18.019,20.67" style="fill:none;stroke:#fff;stroke-width:18px;"/></svg>