<svg viewBox="0 0 899 176" xmlns="http://www.w3.org/2000/svg" fill-rule="evenodd" clip-rule="evenodd" stroke-linecap="round" stroke-linejoin="round" stroke-miterlimit="3"><path d="M211.98 40.192h14.544l34.704 64.656 34.704-64.656h14.544v98.928h-14.544V68.704l-34.704 64.656-34.704-64.656v70.416H211.98V40.192zM340.428 52.288c-2.448 0-4.464-.864-6.048-2.592-1.728-1.728-2.592-3.744-2.592-6.048s.864-4.32 2.592-5.904c1.584-1.728 3.6-2.592 6.048-2.592 2.304 0 4.32.864 6.048 2.592 1.584 1.728 2.448 3.744 2.448 5.904 0 2.304-.864 4.32-2.448 6.048-1.728 1.728-3.744 2.592-6.048 2.592zm-7.2 12.384h14.256v74.448h-14.256V64.672zM403.212 140.848c-6.912 0-13.392-1.728-19.44-5.328-6.048-3.6-10.8-8.352-14.4-14.4-3.6-5.904-5.328-12.384-5.328-19.296 0-6.912 1.872-13.392 5.472-19.296 3.6-5.904 8.352-10.656 14.4-14.256 5.904-3.6 12.384-5.328 19.44-5.328 5.184 0 10.08 1.008 14.832 3.024 4.752 2.016 8.928 4.896 12.528 8.496l-9.648 8.928c-2.16-2.448-4.896-4.464-7.92-5.904a23.747 23.747 0 00-9.936-2.16c-4.464 0-8.496 1.152-12.24 3.6-3.888 2.448-6.912 5.616-9.072 9.792-2.304 4.032-3.456 8.352-3.456 13.104 0 4.752 1.152 9.216 3.456 13.392 2.16 4.032 5.184 7.2 9.072 9.648 3.744 2.448 7.92 3.6 12.384 3.6 3.456 0 6.768-.72 9.936-2.16 3.168-1.584 5.904-3.6 8.208-6.192l9.648 8.784c-3.744 3.744-7.92 6.624-12.816 8.784-4.752 2.16-9.792 3.168-15.12 3.168zM461.388 78.928c2.448-5.04 6.048-8.928 10.944-11.808 4.752-2.736 10.368-4.176 16.704-4.176v12.384c-7.632 0-13.968 2.016-19.152 5.76-4.896 4.032-7.776 9.216-8.496 15.696v42.336h-14.256V64.672h14.256v14.256zM536.124 140.848c-7.056 0-13.536-1.728-19.584-5.328-5.904-3.6-10.8-8.352-14.256-14.4-3.6-5.904-5.472-12.384-5.472-19.296 0-6.912 1.872-13.392 5.472-19.296 3.6-5.904 8.352-10.656 14.4-14.256 5.904-3.6 12.384-5.328 19.44-5.328 6.912 0 13.392 1.728 19.44 5.328 5.904 3.6 10.656 8.352 14.256 14.256 3.6 5.904 5.328 12.384 5.328 19.296 0 6.912-1.728 13.392-5.328 19.44-3.6 5.904-8.352 10.656-14.4 14.256-5.904 3.6-12.384 5.328-19.296 5.328zm0-12.384c4.464 0 8.496-1.152 12.24-3.6 3.888-2.448 6.912-5.616 9.072-9.792 2.304-4.032 3.456-8.496 3.456-13.248 0-4.752-1.152-9.072-3.456-13.104-2.16-4.176-5.184-7.344-9.072-9.792-3.744-2.448-7.776-3.6-12.24-3.6s-8.64 1.152-12.528 3.6c-3.888 2.448-6.912 5.616-9.216 9.792-2.16 4.032-3.312 8.352-3.312 13.104 0 4.752 1.152 9.216 3.312 13.392 2.304 4.032 5.328 7.2 9.216 9.648 3.888 2.448 8.064 3.6 12.528 3.6zM611.436 64.672h17.568v12.096h-17.568v62.352h-13.968V76.768h-11.232V64.672h11.232v-8.928c0-5.904 1.872-10.8 5.472-14.688 3.6-3.744 8.352-5.616 14.112-5.616 2.736 0 5.328.432 7.92 1.44 2.592 1.008 4.896 2.304 6.912 3.888l-5.184 9.504c-.72-.72-1.872-1.44-3.312-1.872-1.296-.576-2.736-.864-4.32-.864-2.16 0-3.888.864-5.472 2.448-1.44 1.728-2.16 3.888-2.16 6.48v8.208zM643.692 38.464h14.112V139.12h-14.112zM709.788 62.944c9.792 0 17.424 2.88 22.896 8.496 5.472 5.616 8.208 13.248 8.208 22.608v45.072h-13.968v-10.224c-2.736 3.744-6.336 6.624-10.944 8.784a31.304 31.304 0 01-13.824 3.168c-8.064 0-14.688-2.16-19.872-6.48-5.04-4.32-7.632-10.08-7.632-17.28 0-4.752 1.296-9.072 3.888-12.816 2.736-3.888 6.336-6.768 10.8-8.784 4.608-2.16 9.648-3.168 15.12-3.168 7.056 0 14.544 1.296 22.464 4.032v-2.304c0-5.472-1.44-10.08-4.464-13.68-3.024-3.744-7.92-5.616-14.688-5.616-5.904 0-12.96 2.016-21.024 6.192l-5.184-10.512c9.936-5.04 19.44-7.488 28.224-7.488zm-4.896 66.672c5.04 0 9.648-1.152 13.824-3.6 4.32-2.592 7.056-5.904 8.208-10.224v-9.936c-6.192-1.872-12.96-2.88-20.304-2.88-5.04 0-9.36 1.296-12.96 3.888-3.6 2.592-5.328 5.904-5.328 9.792s1.584 7.056 4.752 9.504c3.024 2.304 7.056 3.456 11.808 3.456zM788.412 140.848c-5.616 0-11.232-1.008-16.848-2.88-5.616-1.872-10.512-4.608-14.976-8.208l6.768-10.224c8.352 6.048 16.704 9.072 25.2 9.072 4.176 0 7.632-.864 10.224-2.592 2.592-1.872 3.888-4.176 3.888-7.056 0-3.024-1.296-5.328-4.032-6.912-2.736-1.584-6.912-3.168-12.816-4.752-9.072-2.448-15.696-5.328-19.728-8.496-3.888-3.168-5.904-7.632-5.904-13.536 0-6.768 2.592-12.096 7.632-16.128 5.04-4.176 11.52-6.192 19.44-6.192 4.752 0 9.504.72 14.112 2.304 4.896 1.584 9.216 3.6 13.392 6.336l-6.336 10.512c-7.344-4.608-14.4-6.912-21.168-6.912-3.888 0-6.912.864-9.504 2.448-2.304 1.584-3.6 3.6-3.6 6.336 0 1.872.576 3.456 1.728 4.608 1.008 1.152 2.736 2.16 4.896 3.168 2.16 1.008 5.76 2.16 10.512 3.6 5.328 1.584 9.792 3.168 13.104 4.608 3.456 1.584 6.336 3.744 8.784 6.624 2.304 2.88 3.456 6.624 3.456 11.232 0 6.912-2.592 12.528-7.92 16.704-5.328 4.176-12.096 6.336-20.304 6.336zM871.068 62.944c5.328 0 10.224 1.296 14.4 3.744 4.32 2.448 7.632 5.76 9.936 10.224 2.448 4.32 3.6 9.216 3.6 14.832v47.376h-13.968V94.192c0-5.616-1.584-10.08-4.896-13.68-3.168-3.456-7.2-5.184-12.24-5.184-3.6 0-7.056.72-10.224 2.304-3.168 1.584-5.616 3.744-7.488 6.48-2.016 2.736-2.88 5.616-2.88 8.784v46.224h-14.112V38.464h14.112V75.76c2.304-3.888 5.616-6.912 9.792-9.216 4.32-2.448 8.928-3.6 13.968-3.6z" fill="#38a68d" fill-rule="nonzero"/><g><circle cx="87.997" cy="88" r="88" fill="#db0b2f"/><path d="M114.329 90.391h30.103l-16.729 27.069 22.091-.033-49.915 34.677 16.95-28.992H93.794l20.535-32.721z" fill="#fff" stroke="#fff" stroke-width="2"/></g></svg>