<svg width="100%" height="100%" viewBox="0 0 942 176" version="1.1" xmlns="http://www.w3.org/2000/svg" style="fill-rule:evenodd;clip-rule:evenodd;stroke-linecap:round;stroke-linejoin:round;stroke-miterlimit:1.5;"><circle cx="87.976" cy="88" r="88" style="fill:#dd4222;"/><path d="M119.585,83.098l-20.358,23.474l41.961,0l-21.603,24.782" style="fill:none;fill-rule:nonzero;stroke:#fff;stroke-width:15px;"/><g transform="matrix(1,0,0,1,-13.6224,33.5434)"><g transform="matrix(144,0,0,144,220.468,109.045)"><path d="M0.075,-0.71l0,0.71l0.159,0l0,-0.438l0.208,0.287l0.207,-0.286l0,0.437l0.16,0l0,-0.71l-0.145,0l-0.223,0.306l-0.221,-0.306l-0.145,0Z" style="fill:#128758;fill-rule:nonzero;"/></g><g transform="matrix(144,0,0,144,347.764,109.045)"><path d="M0.06,0l0,-0.545l0.152,0l0,0.545l-0.152,0Zm0.076,-0.616c-0.022,0 -0.041,-0.007 -0.057,-0.022c-0.016,-0.015 -0.024,-0.033 -0.024,-0.054c0,-0.022 0.008,-0.04 0.024,-0.054c0.016,-0.015 0.035,-0.023 0.057,-0.023c0.023,0 0.042,0.008 0.058,0.023c0.016,0.014 0.024,0.032 0.024,0.054c0,0.021 -0.008,0.039 -0.024,0.054c-0.016,0.015 -0.035,0.022 -0.058,0.022Z" style="fill:#128758;fill-rule:nonzero;"/></g><g transform="matrix(144,0,0,144,386.935,109.045)"><path d="M0.307,0.011c-0.056,0 -0.104,-0.012 -0.144,-0.036c-0.04,-0.024 -0.071,-0.057 -0.093,-0.099c-0.021,-0.043 -0.032,-0.091 -0.032,-0.147c0,-0.055 0.011,-0.105 0.033,-0.147c0.022,-0.042 0.052,-0.075 0.092,-0.099c0.04,-0.024 0.088,-0.036 0.143,-0.036c0.048,0 0.089,0.009 0.125,0.026c0.036,0.018 0.064,0.042 0.085,0.073c0.021,0.031 0.032,0.068 0.034,0.11l-0.142,0c-0.004,-0.027 -0.015,-0.049 -0.032,-0.066c-0.017,-0.016 -0.04,-0.025 -0.067,-0.025c-0.035,0 -0.064,0.014 -0.085,0.043c-0.021,0.028 -0.032,0.068 -0.032,0.119c0,0.052 0.011,0.093 0.032,0.121c0.021,0.029 0.049,0.043 0.085,0.043c0.026,0 0.048,-0.008 0.065,-0.024c0.018,-0.015 0.029,-0.038 0.034,-0.067l0.142,0c-0.002,0.042 -0.013,0.078 -0.033,0.11c-0.021,0.032 -0.049,0.057 -0.084,0.074c-0.036,0.018 -0.078,0.027 -0.126,0.027Z" style="fill:#128758;fill-rule:nonzero;"/></g><g transform="matrix(144,0,0,144,471.514,109.045)"><path d="M0.06,0l0,-0.545l0.147,0l0,0.095l0.006,0c0.01,-0.034 0.026,-0.06 0.05,-0.077c0.023,-0.018 0.05,-0.026 0.081,-0.026c0.017,0 0.032,0.002 0.047,0.005l0,0.134c-0.007,-0.002 -0.017,-0.004 -0.029,-0.006c-0.013,-0.001 -0.024,-0.002 -0.035,-0.002c-0.033,0 -0.061,0.011 -0.083,0.032c-0.021,0.021 -0.032,0.048 -0.032,0.081l0,0.309l-0.152,0Z" style="fill:#128758;fill-rule:nonzero;"/></g><g transform="matrix(144,0,0,144,526.69,109.045)"><path d="M0.307,0.011c-0.055,0 -0.103,-0.012 -0.143,-0.036c-0.04,-0.023 -0.071,-0.056 -0.093,-0.098c-0.022,-0.043 -0.033,-0.092 -0.033,-0.148c0,-0.056 0.011,-0.105 0.033,-0.148c0.022,-0.042 0.053,-0.075 0.093,-0.098c0.04,-0.024 0.088,-0.036 0.143,-0.036c0.055,0 0.103,0.012 0.143,0.036c0.04,0.023 0.071,0.056 0.093,0.098c0.021,0.043 0.032,0.092 0.032,0.148c0,0.056 -0.011,0.105 -0.032,0.148c-0.022,0.042 -0.053,0.075 -0.093,0.098c-0.04,0.024 -0.088,0.036 -0.143,0.036Zm0.001,-0.118c0.037,0 0.065,-0.015 0.085,-0.046c0.019,-0.032 0.029,-0.071 0.029,-0.119c0,-0.047 -0.01,-0.087 -0.029,-0.118c-0.02,-0.031 -0.048,-0.047 -0.085,-0.047c-0.039,0 -0.067,0.016 -0.087,0.047c-0.019,0.031 -0.029,0.071 -0.029,0.118c0,0.048 0.01,0.087 0.029,0.119c0.02,0.031 0.048,0.046 0.087,0.046Z" style="fill:#128758;fill-rule:nonzero;"/></g><g transform="matrix(144,0,0,144,615.054,109.045)"><path d="M0.354,-0.545l0,0.113l-0.109,0l0,0.432l-0.151,0l0,-0.432l-0.077,0l0,-0.113l0.077,0l0,-0.04c0,-0.059 0.017,-0.104 0.051,-0.133c0.034,-0.029 0.077,-0.043 0.128,-0.043c0.023,0 0.045,0.001 0.064,0.005c0.019,0.004 0.034,0.007 0.043,0.01l-0.027,0.113c-0.006,-0.002 -0.013,-0.003 -0.022,-0.005c-0.008,-0.002 -0.017,-0.003 -0.026,-0.003c-0.023,0 -0.038,0.006 -0.047,0.016c-0.008,0.01 -0.013,0.025 -0.013,0.043l0,0.037l0.109,0Z" style="fill:#128758;fill-rule:nonzero;"/></g><g transform="matrix(144,0,0,144,670.588,109.045)"><rect x="0.06" y="-0.727" width="0.151" height="0.727" style="fill:#128758;fill-rule:nonzero;"/></g><g transform="matrix(144,0,0,144,709.758,109.045)"><path d="M0.216,0.01c-0.052,0 -0.095,-0.013 -0.13,-0.041c-0.034,-0.027 -0.051,-0.067 -0.051,-0.121c0,-0.041 0.009,-0.073 0.029,-0.096c0.019,-0.023 0.044,-0.04 0.075,-0.051c0.031,-0.011 0.065,-0.018 0.101,-0.021c0.047,-0.005 0.081,-0.01 0.101,-0.015c0.021,-0.005 0.031,-0.017 0.031,-0.034l0,-0.002c0,-0.023 -0.007,-0.04 -0.021,-0.053c-0.014,-0.012 -0.034,-0.018 -0.06,-0.018c-0.027,0 -0.049,0.006 -0.065,0.018c-0.016,0.011 -0.027,0.027 -0.032,0.045l-0.14,-0.012c0.01,-0.049 0.036,-0.089 0.078,-0.118c0.041,-0.029 0.094,-0.044 0.16,-0.044c0.04,0 0.078,0.007 0.113,0.02c0.035,0.012 0.064,0.032 0.086,0.059c0.021,0.028 0.032,0.063 0.032,0.106l0,0.368l-0.143,0l0,-0.076l-0.005,0c-0.013,0.026 -0.033,0.046 -0.059,0.062c-0.027,0.016 -0.06,0.024 -0.1,0.024Zm0.043,-0.104c0.033,0 0.061,-0.01 0.082,-0.029c0.021,-0.019 0.032,-0.043 0.032,-0.072l0,-0.058c-0.006,0.004 -0.015,0.008 -0.028,0.011c-0.012,0.003 -0.025,0.006 -0.039,0.008c-0.015,0.002 -0.027,0.004 -0.038,0.006c-0.027,0.003 -0.048,0.011 -0.064,0.022c-0.017,0.011 -0.025,0.027 -0.025,0.049c0,0.021 0.008,0.036 0.023,0.047c0.015,0.011 0.034,0.016 0.057,0.016Z" style="fill:#128758;fill-rule:nonzero;"/></g><g transform="matrix(144,0,0,144,793.315,109.045)"><path d="M0.514,-0.39l-0.138,0.009c-0.004,-0.018 -0.014,-0.033 -0.029,-0.045c-0.015,-0.013 -0.036,-0.019 -0.063,-0.019c-0.023,0 -0.043,0.005 -0.059,0.014c-0.016,0.01 -0.024,0.023 -0.024,0.04c0,0.013 0.005,0.024 0.015,0.033c0.011,0.009 0.029,0.016 0.054,0.021l0.099,0.02c0.105,0.022 0.157,0.071 0.158,0.148c0,0.036 -0.011,0.067 -0.032,0.094c-0.021,0.027 -0.049,0.048 -0.086,0.063c-0.036,0.015 -0.078,0.023 -0.125,0.023c-0.072,0 -0.13,-0.015 -0.173,-0.046c-0.043,-0.03 -0.068,-0.071 -0.075,-0.123l0.149,-0.008c0.005,0.022 0.016,0.039 0.033,0.051c0.017,0.011 0.039,0.017 0.066,0.017c0.027,0 0.048,-0.006 0.064,-0.016c0.016,-0.01 0.025,-0.024 0.025,-0.04c-0.001,-0.027 -0.024,-0.045 -0.07,-0.054l-0.095,-0.019c-0.105,-0.021 -0.158,-0.073 -0.157,-0.156c0,-0.052 0.021,-0.094 0.063,-0.124c0.042,-0.03 0.098,-0.046 0.168,-0.046c0.069,0 0.123,0.015 0.163,0.044c0.039,0.029 0.063,0.069 0.069,0.119Z" style="fill:#128758;fill-rule:nonzero;"/></g><g transform="matrix(144,0,0,144,874.213,109.045)"><path d="M0.212,-0.315l0,0.315l-0.152,0l0,-0.727l0.147,0l0,0.278l0.007,0c0.012,-0.032 0.032,-0.058 0.06,-0.076c0.027,-0.018 0.061,-0.028 0.103,-0.028c0.057,0 0.102,0.019 0.137,0.055c0.034,0.037 0.052,0.087 0.051,0.151l0,0.347l-0.151,0l0,-0.32c0,-0.034 -0.008,-0.06 -0.025,-0.079c-0.017,-0.018 -0.041,-0.028 -0.072,-0.028c-0.031,0 -0.056,0.01 -0.076,0.029c-0.019,0.02 -0.029,0.047 -0.029,0.083Z" style="fill:#128758;fill-rule:nonzero;"/></g></g></svg>