<svg width="100%" height="100%" viewBox="0 0 880 176" version="1.1" xmlns="http://www.w3.org/2000/svg" style="fill-rule:evenodd;clip-rule:evenodd;stroke-linecap:round;stroke-linejoin:round;stroke-miterlimit:1.5;"><circle cx="88.604" cy="88" r="88" style="fill:#dd4222;"/><path d="M120.213,83.098l-20.358,23.474l41.961,0l-21.603,24.782" style="fill:none;fill-rule:nonzero;stroke:#fff;stroke-width:15px;"/><path d="M252.953,96.783l-40.173,-51.542l-6.33,0l0,96.75l19.422,0l0,-50.823l23.912,30.091l6.338,0l23.912,-30.091l0,50.823l19.422,0l0,-96.75l-6.33,0l-40.173,51.542Z" style="fill:#128758;fill-rule:nonzero;"/><path d="M341.504,44.8c0,-6.907 -5.468,-12.087 -12.375,-12.087c-6.907,0 -12.519,5.18 -12.519,12.087c0,6.763 5.612,11.943 12.519,11.943c6.907,0 12.375,-5.18 12.375,-11.943Zm-22.158,25.911l0,71.28l19.422,0l0,-71.28l-19.422,0Z" style="fill:#128758;fill-rule:nonzero;"/><path d="M392.192,69.145c-10.656,0 -19.727,3.596 -27.064,10.789c-7.337,7.049 -11.078,15.837 -11.078,26.354c0,10.517 3.741,19.449 11.078,26.642c7.337,7.193 16.408,10.789 27.064,10.789c13.824,0 24.768,-6.761 30.96,-17.694l-13.536,-10.373c-4.752,6.771 -10.512,10.229 -17.136,10.229c-10.944,0 -18.72,-8.212 -18.72,-19.593c0,-11.093 7.776,-19.449 18.72,-19.449c6.768,0 12.528,3.458 17.136,10.373l13.536,-10.517c-6.192,-10.933 -16.992,-17.55 -30.96,-17.55Z" style="fill:#128758;fill-rule:nonzero;"/><path d="M474.992,69.865c-8.208,0 -14.688,3.165 -19.583,9.495l0,-8.632l-17.839,0l0,71.263l19.422,0l0,-35.568c0,-12.24 7.488,-18.576 19.152,-18.576l5.184,0l0,-17.119c-1.872,-0.575 -3.888,-0.863 -6.336,-0.863Z" style="fill:#128758;fill-rule:nonzero;"/><path d="M526.121,69.145c-10.661,0 -19.736,3.596 -27.073,10.789c-7.337,7.049 -11.078,15.837 -11.078,26.354c0,10.517 3.597,19.449 10.934,26.642c7.337,7.049 16.412,10.645 27.073,10.645c10.661,0 19.736,-3.596 27.217,-10.789c7.481,-7.193 11.222,-15.981 11.222,-26.498c0,-10.517 -3.741,-19.305 -11.222,-26.354c-7.481,-7.193 -16.556,-10.789 -27.073,-10.789Zm0,17.694c10.517,0 18.441,8.5 18.441,19.593c0,11.093 -7.924,19.305 -18.441,19.305c-10.805,0 -18.441,-7.924 -18.441,-19.305c0,-11.381 7.636,-19.593 18.441,-19.593Z" style="fill:#128758;fill-rule:nonzero;"/><path d="M582.866,70.729l-10.08,0l0,16.398l10.08,0l0,54.864l19.422,0l0,-54.864l15.706,0l0,-16.398l-15.706,0l0,-9.944c0,-8.071 4.179,-11.098 12.968,-11.098c1.729,0 3.602,0.144 5.764,0.432l0,-16.256c-3.314,-1.007 -6.917,-1.582 -10.663,-1.582c-17.133,0 -27.491,8.919 -27.491,26.774l0,11.674Zm48.096,71.262l19.422,0l0,-107.984l-19.422,0l0,107.984Z" style="fill:#128758;fill-rule:nonzero;"/><path d="M698.922,69.145c-12.537,0 -22.898,4.891 -31.098,14.672l10.07,11.961c6.187,-6.487 12.526,-9.803 18.867,-9.803c8.646,0 13.257,4.613 13.257,12.542l0,3.172l-17.869,0c-16.556,0 -26.915,7.909 -26.915,20.727c0,12.53 9.495,21.303 24.61,21.303c9.078,0 16.283,-2.876 21.757,-8.629l0,6.901l17.839,0l0,-42.32c0,-19.738 -11.941,-30.526 -30.518,-30.526Zm-3.891,60.336c-6.196,0 -10.231,-3.028 -10.231,-7.785c0,-4.758 3.314,-7.209 9.943,-7.209l15.275,0l0,0.865c0,8.218 -6.485,14.129 -14.987,14.129Z" style="fill:#128758;fill-rule:nonzero;"/><path d="M772.361,69.145c-15.553,0 -26.199,8.055 -26.199,21.422c0,10.481 6.33,16.367 19.423,21.68l7.641,3.158c5.334,2.298 7.352,3.446 7.352,6.461c0,3.877 -3.892,5.887 -9.082,5.887c-7.064,0 -13.825,-3.159 -20.011,-9.62l-9.787,11.778c7.053,9.205 16.836,13.808 29.509,13.808c8.074,0 14.694,-2.014 19.873,-6.041c5.323,-4.028 7.912,-9.637 7.912,-16.673c0,-10.481 -6.186,-16.081 -20,-21.68l-6.92,-2.872c-5.622,-2.153 -7.496,-3.589 -7.496,-6.317c0,-3.302 2.595,-5.025 7.641,-5.025c5.91,0 11.238,2.297 15.986,6.748l9.782,-11.926c-6.474,-7.192 -14.961,-10.788 -25.624,-10.788Z" style="fill:#128758;fill-rule:nonzero;"/><path d="M852.717,69.145c-7.925,0 -14.554,2.589 -19.597,7.624l0,-42.76l-19.422,0l0,107.982l19.422,0l0,-41.472c0,-8.208 5.62,-13.824 13.545,-13.824c7.925,0 13.257,5.616 13.257,13.824l0,41.472l19.278,0l0,-44.208c0,-17.274 -10.358,-28.638 -26.483,-28.638Z" style="fill:#128758;fill-rule:nonzero;"/></svg>