<svg viewBox="0 0 888 176" xmlns="http://www.w3.org/2000/svg" fill-rule="evenodd" clip-rule="evenodd" stroke-linecap="round" stroke-linejoin="round" stroke-miterlimit="3"><circle cx="88" cy="88" r="88" fill="#d10022"/><path d="M114.332 90.391h30.103l-16.729 27.069 22.091-.033-49.915 34.677 16.95-28.992H93.797l20.535-32.721z" fill="#fff" stroke="#fff" stroke-width="2"/><g><path d="M216.025 39.035v102.24h13.392V61.787l36.864 49.536 36.864-49.535v79.488h13.248V39.035h-12.096l-38.16 50.975-37.872-50.975h-12.24zM347.785 49.98c5.04 0 8.64-3.745 8.64-8.785 0-4.752-3.6-8.784-8.64-8.784-5.04 0-8.928 4.032-8.928 8.784 0 5.04 3.888 8.784 8.928 8.784zm-6.336 91.296h12.384v-72h-12.384v72zM409.417 142.715c14.976 0 26.928-7.776 33.264-19.296l-10.8-6.047c-4.032 8.207-12.096 13.823-22.464 13.823-14.976 0-25.2-11.52-25.2-25.92 0-14.4 10.224-25.92 25.2-25.92 10.368 0 18.432 5.617 22.464 13.825l10.8-6.049c-6.336-11.52-18.288-19.295-33.264-19.295-21.888 0-37.728 16.56-37.728 37.44s15.84 37.44 37.728 37.44zM458.665 141.275h12.384v-35.712c0-16.848 9.936-24.768 19.008-24.768 2.448 0 4.464.144 6.768 1.152V69.275c-1.872-.576-3.744-.72-5.616-.72-8.208 0-17.424 5.472-20.16 14.688V69.276h-12.384v72zM540.745 142.715c21.6 0 37.584-16.704 37.584-37.44 0-20.736-15.984-37.44-37.584-37.44-21.888 0-37.728 16.705-37.728 37.44 0 20.736 15.84 37.44 37.728 37.44zm0-11.52c-14.976 0-25.056-11.52-25.056-25.92 0-14.4 10.08-25.92 25.056-25.92s24.912 11.52 24.912 25.92c0 14.4-9.936 25.92-24.912 25.92zM600.937 141.275h12.384V80.651h20.88V69.276h-20.88V56.026c0-9.216 3.888-12.24 11.952-12.24 2.88 0 6.624.432 8.928 1.44V34.283c-3.312-1.152-6.768-1.872-11.232-1.872-12.672 0-22.032 7.344-22.032 22.32v14.544h-15.264v11.376h15.264v60.624zm46.8 0h12.384v-108h-12.384v108zM703.877 143.547c-5.254 0-10.082-.994-14.2-3.124-4.118-2.13-7.384-4.97-9.656-8.662-2.272-3.55-3.408-7.668-3.408-12.354 0-7.668 2.84-13.632 8.662-18.034 5.822-4.26 13.064-6.39 21.868-6.39 4.402 0 8.378.426 12.212 1.42 3.692.994 6.532 1.988 8.52 3.266v-4.402c0-5.396-1.846-9.798-5.68-13.064-3.834-3.266-8.52-4.828-14.342-4.828-4.118 0-7.81.852-11.218 2.556-3.408 1.846-6.106 4.26-8.094 7.384l-9.088-6.816c2.84-4.402 6.816-7.81 11.786-10.224 4.97-2.414 10.366-3.692 16.472-3.692 9.798 0 17.608 2.556 23.146 7.668 5.68 5.254 8.52 12.212 8.52 21.158v45.866h-11.502V130.91h-.568c-2.13 3.55-5.254 6.532-9.372 8.946-4.118 2.414-8.804 3.692-14.058 3.692zm1.136-10.65c4.118 0 7.81-.994 11.36-3.124s6.248-4.828 8.378-8.378 3.124-7.384 3.124-11.502c-2.272-1.562-5.112-2.698-8.378-3.692-3.266-.993-6.816-1.42-10.508-1.42-6.674 0-11.644 1.42-15.052 4.118-3.266 2.698-4.97 6.248-4.97 10.65 0 3.976 1.562 7.242 4.544 9.656 2.982 2.414 6.816 3.692 11.502 3.692zM780.595 142.715c14.4 0 25.056-7.776 25.056-21.6 0-10.943-7.056-17.28-19.584-21.167l-7.92-2.449c-8.064-2.448-10.224-5.904-10.224-10.368 0-5.328 5.76-8.64 11.952-8.64 6.912 0 11.664 3.6 14.976 8.208l9.216-6.336c-4.752-8.064-12.96-12.528-23.76-12.528-13.68 0-24.768 7.489-24.768 19.729 0 10.224 6.048 17.568 18 21.024l7.2 2.304c9.36 2.88 12.528 6.048 12.528 11.232 0 6.192-5.616 9.648-12.528 9.648-8.064 0-15.552-4.032-18.288-11.376l-10.08 5.615c4.464 11.377 15.408 16.705 28.224 16.705zM836.035 141.275v-35.712c0-16.848 9.36-26.352 20.88-26.352 10.224 0 16.992 7.488 16.992 19.584v42.48h12.24V96.923c0-17.856-11.088-29.088-27.216-29.088-9.36 0-17.856 3.889-22.896 12.529V33.274h-12.384v108h12.384z" fill="#249e81" fill-rule="nonzero"/></g></svg>