<svg viewBox="0 0 905 176" xmlns="http://www.w3.org/2000/svg" fill-rule="evenodd" clip-rule="evenodd" stroke-linecap="round" stroke-linejoin="round" stroke-miterlimit="3"><path d="M298.962 140.56V66.976l-30.384 55.728h-8.928l-30.528-55.728v73.584h-16.128V38.32h17.28l33.84 62.496 33.84-62.496h17.28v102.24h-16.272zM336.258 140.56V65.248h15.84v75.312h-15.84zm0-87.696V35.44h15.84v17.424h-15.84zM366.21 102.832c0-5.328.864-10.224 2.736-14.976 1.872-4.752 4.464-8.784 7.776-12.384 3.456-3.6 7.632-6.336 12.384-8.352 4.752-2.16 10.224-3.168 16.128-3.168 7.776 0 14.544 1.728 20.16 5.184 5.472 3.312 9.792 7.92 12.528 13.536l-15.408 4.896c-1.872-3.168-4.32-5.616-7.344-7.344-3.024-1.872-6.48-2.736-10.224-2.736-3.168 0-6.192.576-8.928 1.872-2.736 1.296-5.04 3.024-7.056 5.184-2.016 2.304-3.6 5.04-4.752 8.064-1.152 3.024-1.728 6.48-1.728 10.224 0 3.6.576 7.056 1.728 10.224 1.296 3.024 2.88 5.76 4.896 8.064 2.16 2.304 4.464 4.176 7.2 5.472 2.736 1.296 5.76 1.872 8.784 1.872 1.872 0 3.888-.288 5.76-.72 1.872-.576 3.6-1.296 5.184-2.304 1.728-1.008 3.024-2.016 4.176-3.312 1.296-1.296 2.16-2.592 2.736-4.032l15.552 4.608c-2.448 5.616-6.624 10.368-12.528 13.968-5.904 3.456-12.816 5.328-20.736 5.328-5.904 0-11.232-1.008-15.984-3.168-4.752-2.16-8.928-5.04-12.384-8.496-3.312-3.6-5.904-7.776-7.92-12.528-1.728-4.752-2.736-9.648-2.736-14.976zM493.938 78.928c-6.192.144-11.52 1.584-16.272 4.176-4.896 2.736-8.208 6.48-10.224 11.376v46.08h-15.84V65.248h14.688v16.848c2.592-5.184 6.048-9.36 10.224-12.528 4.176-3.024 8.64-4.752 13.392-5.04h2.448c.576 0 1.152 0 1.584.144v14.256zM535.554 142c-5.904 0-11.232-1.008-15.984-3.168-4.896-2.16-8.928-4.896-12.24-8.496-3.312-3.6-5.904-7.632-7.776-12.384-1.872-4.752-2.736-9.792-2.736-14.976 0-5.184.864-10.224 2.736-14.832 1.872-4.896 4.464-8.928 7.776-12.528 3.456-3.6 7.488-6.336 12.24-8.496 4.896-2.16 10.08-3.168 15.984-3.168s11.232 1.008 15.84 3.168c4.896 2.16 8.928 4.896 12.384 8.496 3.312 3.6 5.904 7.632 7.776 12.528 1.872 4.608 2.736 9.648 2.736 14.832 0 5.184-.864 10.224-2.736 14.976-1.872 4.752-4.464 8.784-7.92 12.384-3.312 3.6-7.488 6.336-12.24 8.496S541.458 142 535.554 142zm-22.464-38.88c0 3.6.576 7.056 1.728 10.08 1.152 3.024 2.736 5.76 4.752 7.92 2.016 2.304 4.32 4.176 7.056 5.472 2.736 1.296 5.76 1.872 8.928 1.872 3.168 0 6.048-.576 8.784-1.872a22.249 22.249 0 007.2-5.472c2.016-2.304 3.6-5.04 4.752-8.064 1.152-3.024 1.728-6.48 1.728-10.08 0-3.6-.576-6.912-1.728-10.08-1.152-3.024-2.736-5.76-4.752-8.064-2.016-2.304-4.464-4.032-7.2-5.328-2.736-1.44-5.616-2.016-8.784-2.016-3.024 0-6.048.72-8.784 2.016-2.736 1.296-5.04 3.168-7.056 5.472-2.016 2.304-3.6 5.04-4.896 8.064-1.152 3.168-1.728 6.48-1.728 10.08zM591.57 140.56v-61.2h-10.08V67.12h10.08v-3.024c0-9.36 2.16-16.704 6.48-22.032C602.37 36.736 608.274 34 615.618 34c3.024 0 6.048.432 9.072 1.296 3.024.72 5.76 1.872 8.496 3.312l-3.456 11.808c-1.44-.864-3.168-1.584-5.04-2.16-2.016-.576-3.888-.864-5.76-.864-3.744 0-6.624 1.44-8.496 4.176-2.016 2.736-3.024 6.768-3.024 12.096v3.456h19.296v12.24H607.41v61.2h-15.84zM641.622 35.44h15.84v83.376c0 2.736.72 5.04 2.16 6.624 1.44 1.584 3.456 2.304 6.048 2.304 1.008 0 2.304-.144 3.6-.576 1.44-.432 2.736-.864 4.032-1.296l2.304 12.384c-2.304 1.008-5.04 1.872-8.208 2.448-3.168.72-6.048 1.008-8.496 1.008-5.472 0-9.792-1.44-12.816-4.464-3.024-3.024-4.464-7.2-4.464-12.672V35.44zM704.838 142c-3.6 0-7.056-.576-10.224-1.872-3.024-1.152-5.76-2.736-8.064-4.896-2.16-2.16-4.032-4.608-5.328-7.488-1.296-2.88-1.872-6.048-1.872-9.36 0-3.6.72-6.768 2.304-9.648 1.584-2.88 3.744-5.328 6.48-7.488 2.88-2.16 6.192-3.744 10.08-4.896 3.888-1.152 8.208-1.728 12.96-1.728 3.6 0 7.056.288 10.512 1.008 3.456.576 6.624 1.44 9.36 2.448v-5.184c0-5.616-1.584-9.936-4.752-12.96-3.168-3.168-7.776-4.752-13.68-4.752-4.032 0-8.064.72-11.952 2.304-3.744 1.44-7.776 3.6-11.952 6.336l-4.896-10.08c9.648-6.48 19.728-9.792 30.24-9.792 10.368 0 18.432 2.592 24.192 7.92 5.76 5.328 8.64 12.816 8.64 22.752v27.216c0 3.312 1.44 5.04 4.176 5.184v13.536c-1.584.288-2.88.432-3.888.576-1.152.144-2.304.144-3.312.144-3.024 0-5.472-.72-7.056-2.304-1.728-1.584-2.736-3.456-3.168-5.904l-.432-4.752c-3.312 4.464-7.488 7.776-12.384 10.224-5.04 2.304-10.368 3.456-15.984 3.456zm4.32-11.664c3.888 0 7.488-.72 10.944-2.016 3.312-1.44 6.048-3.456 7.92-5.904 2.016-1.728 3.024-3.6 3.024-5.472v-9.936c-2.736-1.008-5.472-1.872-8.496-2.448a48.029 48.029 0 00-8.928-.864c-5.616 0-10.224 1.296-13.824 3.744-3.6 2.448-5.472 5.616-5.472 9.648 0 3.744 1.44 6.912 4.176 9.504 2.736 2.448 6.336 3.744 10.656 3.744zM793.398 142c-6.048 0-12.096-1.008-18.144-3.024-5.904-1.872-11.088-4.752-15.408-8.352l6.336-10.08c4.464 3.312 8.928 5.76 13.392 7.488 4.464 1.584 8.928 2.448 13.536 2.448 4.752 0 8.352-.864 11.232-2.736 2.592-1.872 4.032-4.464 4.032-7.776 0-3.168-1.584-5.472-4.608-6.912-3.024-1.44-7.92-3.024-14.4-4.752-4.752-1.296-8.784-2.448-12.096-3.6-3.312-1.152-6.048-2.448-8.208-4.032s-3.6-3.312-4.608-5.328c-1.008-2.016-1.44-4.464-1.44-7.344 0-3.888.72-7.2 2.16-10.224 1.584-3.024 3.6-5.472 6.192-7.488 2.736-2.16 5.76-3.744 9.36-4.752a42.018 42.018 0 0111.52-1.584c5.616 0 10.944.864 15.84 2.592 4.896 1.728 9.216 4.176 13.104 7.488l-6.768 9.504c-7.056-5.616-14.4-8.352-22.32-8.352-4.032 0-7.488.864-10.224 2.592-2.736 1.584-4.032 4.32-4.032 7.92 0 1.584.288 2.88.864 3.888.576 1.008 1.44 2.016 2.736 2.736 1.296.72 3.024 1.44 5.04 2.016 2.16.72 4.752 1.44 7.776 2.16 5.04 1.296 9.504 2.448 13.104 3.744 3.744 1.296 6.768 2.736 9.216 4.32 2.448 1.728 4.176 3.744 5.328 5.904 1.152 2.304 1.728 5.04 1.728 8.208 0 7.2-2.736 12.816-8.208 16.992-5.328 4.176-12.672 6.336-22.032 6.336zM904.998 140.56h-15.84V98.368c0-6.912-1.296-12.096-3.744-15.408-2.448-3.312-5.904-4.896-10.512-4.896-2.16 0-4.464.432-6.624 1.296-2.16.864-4.32 2.016-6.336 3.6-1.872 1.584-3.6 3.456-5.184 5.616-1.584 2.16-2.736 4.608-3.456 7.2v44.784h-15.84V35.44h15.84v44.928c2.88-5.184 6.768-9.216 11.664-12.096 5.04-2.88 10.368-4.32 16.272-4.32 4.752 0 8.496.864 11.52 2.592 3.024 1.584 5.472 3.888 7.344 6.624 1.872 2.736 3.024 6.048 3.744 9.792.72 3.6 1.152 7.488 1.152 11.664v45.936z" fill="#38a68d" fill-rule="nonzero"/><g><circle cx="88.002" cy="88" r="88" fill="#db0b2f"/><path d="M114.334 90.391h30.103l-16.729 27.069 22.091-.033-49.915 34.677 16.95-28.992H93.799l20.535-32.721z" fill="#fff" stroke="#fff" stroke-width="2"/></g></svg>