<svg width="100%" height="100%" viewBox="0 0 888 176" version="1.1" xmlns="http://www.w3.org/2000/svg" style="fill-rule:evenodd;clip-rule:evenodd;stroke-linecap:round;stroke-linejoin:round;stroke-miterlimit:3;"><g id="icon"><circle cx="88" cy="88" r="88" style="fill:#d10022;"/><path d="M114.332,90.391l30.103,0l-16.729,27.069l22.091,-0.033l-49.915,34.677l16.95,-28.992l-23.035,0l20.535,-32.721Z" style="fill:#fff;stroke:#fff;stroke-width:2px;"/></g><g transform="matrix(1,0,0,1,-26.26,48.4154)"><g transform="matrix(144,0,0,144,228.749,92.8601)"><path d="M0.094,-0.71l0,0.71l0.093,0l0,-0.552l0.256,0.344l0.256,-0.344l0,0.552l0.092,0l0,-0.71l-0.084,0l-0.265,0.354l-0.263,-0.354l-0.085,0Z" style="fill:#249e81;fill-rule:nonzero;"/></g><g transform="matrix(144,0,0,144,356.045,92.8601)"><path d="M0.125,-0.634c0.035,0 0.06,-0.026 0.06,-0.061c0,-0.033 -0.025,-0.061 -0.06,-0.061c-0.035,0 -0.062,0.028 -0.062,0.061c0,0.035 0.027,0.061 0.062,0.061Zm-0.044,0.634l0.086,0l0,-0.5l-0.086,0l0,0.5Z" style="fill:#249e81;fill-rule:nonzero;"/></g><g transform="matrix(144,0,0,144,391.901,92.8601)"><path d="M0.304,0.01c0.104,0 0.187,-0.054 0.231,-0.134l-0.075,-0.042c-0.028,0.057 -0.084,0.096 -0.156,0.096c-0.104,0 -0.175,-0.08 -0.175,-0.18c0,-0.1 0.071,-0.18 0.175,-0.18c0.072,0 0.128,0.039 0.156,0.096l0.075,-0.042c-0.044,-0.08 -0.127,-0.134 -0.231,-0.134c-0.152,0 -0.262,0.115 -0.262,0.26c0,0.145 0.11,0.26 0.262,0.26Z" style="fill:#249e81;fill-rule:nonzero;"/></g><g transform="matrix(144,0,0,144,473.261,92.8601)"><path d="M0.081,0l0.086,0l0,-0.248c0,-0.117 0.069,-0.172 0.132,-0.172c0.017,0 0.031,0.001 0.047,0.008l0,-0.088c-0.013,-0.004 -0.026,-0.005 -0.039,-0.005c-0.057,0 -0.121,0.038 -0.14,0.102l0,-0.097l-0.086,0l0,0.5Z" style="fill:#249e81;fill-rule:nonzero;"/></g><g transform="matrix(144,0,0,144,523.373,92.8601)"><path d="M0.303,0.01c0.15,0 0.261,-0.116 0.261,-0.26c0,-0.144 -0.111,-0.26 -0.261,-0.26c-0.152,0 -0.262,0.116 -0.262,0.26c0,0.144 0.11,0.26 0.262,0.26Zm0,-0.08c-0.104,0 -0.174,-0.08 -0.174,-0.18c0,-0.1 0.07,-0.18 0.174,-0.18c0.104,0 0.173,0.08 0.173,0.18c0,0.1 -0.069,0.18 -0.173,0.18Z" style="fill:#249e81;fill-rule:nonzero;"/></g><g transform="matrix(144,0,0,144,609.485,92.8601)"><path d="M0.123,0l0.086,0l0,-0.421l0.145,0l0,-0.079l-0.145,0l0,-0.092c0,-0.064 0.027,-0.085 0.083,-0.085c0.02,0 0.046,0.003 0.062,0.01l0,-0.076c-0.023,-0.008 -0.047,-0.013 -0.078,-0.013c-0.088,0 -0.153,0.051 -0.153,0.155l0,0.101l-0.106,0l0,0.079l0.106,0l0,0.421Zm0.325,0l0.086,0l0,-0.75l-0.086,0l0,0.75Z" style="fill:#249e81;fill-rule:nonzero;"/></g><g transform="matrix(142,0,0,142,698.045,92.8601)"><path d="M0.226,0.016c-0.037,0 -0.071,-0.007 -0.1,-0.022c-0.029,-0.015 -0.052,-0.035 -0.068,-0.061c-0.016,-0.025 -0.024,-0.054 -0.024,-0.087c0,-0.054 0.02,-0.096 0.061,-0.127c0.041,-0.03 0.092,-0.045 0.154,-0.045c0.031,0 0.059,0.003 0.086,0.01c0.026,0.007 0.046,0.014 0.06,0.023l0,-0.031c0,-0.038 -0.013,-0.069 -0.04,-0.092c-0.027,-0.023 -0.06,-0.034 -0.101,-0.034c-0.029,0 -0.055,0.006 -0.079,0.018c-0.024,0.013 -0.043,0.03 -0.057,0.052l-0.064,-0.048c0.02,-0.031 0.048,-0.055 0.083,-0.072c0.035,-0.017 0.073,-0.026 0.116,-0.026c0.069,0 0.124,0.018 0.163,0.054c0.04,0.037 0.06,0.086 0.06,0.149l0,0.323l-0.081,0l0,-0.073l-0.004,0c-0.015,0.025 -0.037,0.046 -0.066,0.063c-0.029,0.017 -0.062,0.026 -0.099,0.026Zm0.008,-0.075c0.029,0 0.055,-0.007 0.08,-0.022c0.025,-0.015 0.044,-0.034 0.059,-0.059c0.015,-0.025 0.022,-0.052 0.022,-0.081c-0.016,-0.011 -0.036,-0.019 -0.059,-0.026c-0.023,-0.007 -0.048,-0.01 -0.074,-0.01c-0.047,0 -0.082,0.01 -0.106,0.029c-0.023,0.019 -0.035,0.044 -0.035,0.075c0,0.028 0.011,0.051 0.032,0.068c0.021,0.017 0.048,0.026 0.081,0.026Z" style="fill:#249e81;fill-rule:nonzero;"/></g><g transform="matrix(144,0,0,144,773.447,92.8601)"><path d="M0.232,0.01c0.1,0 0.174,-0.054 0.174,-0.15c0,-0.076 -0.049,-0.12 -0.136,-0.147l-0.055,-0.017c-0.056,-0.017 -0.071,-0.041 -0.071,-0.072c0,-0.037 0.04,-0.06 0.083,-0.06c0.048,0 0.081,0.025 0.104,0.057l0.064,-0.044c-0.033,-0.056 -0.09,-0.087 -0.165,-0.087c-0.095,0 -0.172,0.052 -0.172,0.137c0,0.071 0.042,0.122 0.125,0.146l0.05,0.016c0.065,0.02 0.087,0.042 0.087,0.078c0,0.043 -0.039,0.067 -0.087,0.067c-0.056,0 -0.108,-0.028 -0.127,-0.079l-0.07,0.039c0.031,0.079 0.107,0.116 0.196,0.116Z" style="fill:#249e81;fill-rule:nonzero;"/></g><g transform="matrix(144,0,0,144,838.247,92.8601)"><path d="M0.167,0l0,-0.248c0,-0.117 0.065,-0.183 0.145,-0.183c0.071,0 0.118,0.052 0.118,0.136l0,0.295l0.085,0l0,-0.308c0,-0.124 -0.077,-0.202 -0.189,-0.202c-0.065,0 -0.124,0.027 -0.159,0.087l0,-0.327l-0.086,0l0,0.75l0.086,0Z" style="fill:#249e81;fill-rule:nonzero;"/></g></g></svg>