<svg width="100%" height="100%" viewBox="0 0 1210 186" version="1.1" xmlns="http://www.w3.org/2000/svg"><path d="M552.1,0.662c-50.959,0 -92.3,41.341 -92.3,92.3c0,50.959 41.341,92.3 92.3,92.3c50.959,0 92.3,-41.341 92.3,-92.3c0,-50.959 -41.341,-92.3 -92.3,-92.3Z" fill="#dd4222"/><path d="M573.657,155.893l9.298,-25.948l-16.672,-5.974c-2.319,-0.831 -2.987,-3.9 -1.118,-5.564l39.168,-36.674c2.498,-2.429 6.566,0.231 5.375,3.553l-9.41,26.262l15.92,5.704c2.319,0.831 2.947,3.815 1.203,5.524l-38.304,36.63c-2.582,2.469 -6.65,-0.191 -5.46,-3.513Z" fill="#fff"/><path d="M62.087,96.071l-53.564,-68.723l-8.44,0l0,129l25.896,0l0,-67.764l31.882,40.121l8.451,0l31.883,-40.121l0,67.764l25.896,0l0,-129l-8.44,0l-53.564,68.723Z" fill="#12895a"/><rect x="153.299" y="29.652" width="25.896" height="126.696" fill="#12895a"/><path d="M268.475,27.348c-19.008,0 -34.944,6.33 -47.994,18.989c-13.044,12.477 -19.566,28.034 -19.566,46.663c0,18.629 6.522,34.186 19.374,46.855c13.05,12.467 28.986,18.797 47.994,18.797c24.384,0 45.12,-11.7 56.064,-31.466l-19.584,-13.828c-9.024,14.212 -21.12,21.318 -36.288,21.318c-11.904,0 -21.696,-3.841 -29.376,-11.523c-7.68,-7.875 -11.52,-17.862 -11.52,-29.961c0,-12.292 3.84,-22.278 11.52,-30.153c7.68,-7.874 17.472,-11.715 29.376,-11.715c15.168,0 27.264,7.106 36.288,21.318l19.584,-13.828c-11.328,-19.766 -31.872,-31.466 -55.872,-31.466Z" fill="#12895a"/><path d="M417.487,106.433c13.812,-6.904 22.252,-19.758 22.252,-35.897c0,-12.296 -4.22,-22.088 -12.852,-29.568c-8.441,-7.48 -19.384,-11.316 -32.832,-11.316l-47.604,0l0,126.696l25.896,0l0,-44.736l19.019,0l32.835,44.736l29.17,0l-35.884,-49.915Zm-23.432,-53.957c11.719,0 19.212,7.301 19.212,18.06c0,10.951 -7.109,18.252 -19.212,18.252l-21.708,0l0,-36.312l21.708,0Z" fill="#12895a"/><path d="M664.75,29.652l0,126.696l25.896,0l0,-48.192l47.04,0l0,-23.4l-47.04,0l0,-31.704l57.408,0l0,-23.4l-83.304,0Z" fill="#12895a"/><path d="M767.47,29.652l0,126.696l81.384,0l0,-23.4l-55.488,0l0,-103.296l-25.896,0Z" fill="#12895a"/><path d="M977.686,156.348l-56.437,-129l-8.639,0l-56.628,129l27.834,0l7.103,-16.512l51.829,0l7.103,16.512l27.835,0Zm-77.553,-37.8l16.7,-42.624l16.701,42.624l-33.401,0Z" fill="#12895a"/><path d="M1033.76,27.348c-12.105,0 -22.278,3.261 -30.142,9.974c-7.865,6.521 -11.893,15.155 -11.893,25.91c0,16.709 10.933,27.464 30.699,36.49l13.641,6.146c8.262,3.841 10.952,4.993 13.834,9.026c1.537,1.921 2.306,4.225 2.306,6.722c0,8.643 -6.725,14.02 -18.061,14.02c-11.913,0 -22.278,-6.146 -31.102,-18.437l-17.845,13.444c9.789,17.076 27.436,28.009 48.947,28.009c12.873,0 23.623,-3.452 31.872,-10.357c8.248,-6.905 12.469,-16.116 12.469,-27.639c0,-17.093 -9.975,-27.656 -31.276,-37.066l-14.41,-6.338c-10.76,-4.801 -14.794,-7.874 -14.794,-14.596c0,-7.874 6.724,-12.292 15.755,-12.292c9.606,0 17.676,4.802 24.199,14.597l17.648,-13.636c-7.865,-14.579 -22.443,-23.977 -41.847,-23.977Z" fill="#12895a"/><path d="M1183.34,29.652l0,48.576l-56.088,0l0,-48.576l-25.896,0l0,126.696l25.896,0l0,-54.72l56.088,0l0,54.72l25.896,0l0,-126.696l-25.896,0Z" fill="#12895a"/></svg>