<svg width="100%" height="100%" viewBox="0 0 914 176" version="1.1" xmlns="http://www.w3.org/2000/svg" style="fill-rule:evenodd;clip-rule:evenodd;stroke-linecap:round;stroke-linejoin:round;stroke-miterlimit:1.5;"><g id="icon"><circle cx="88" cy="88" r="88" style="fill:#dd4222;"/><path d="M119.609,83.098l-20.358,23.474l41.961,0l-21.603,24.782" style="fill:none;fill-rule:nonzero;stroke:#fff;stroke-width:15px;"/></g><g transform="matrix(1,0,0,1,0.0398672,34.3517)"><g transform="matrix(144,0,0,144,205.102,105.704)"><path d="M0.075,-0.71l0,0.71l0.159,0l0,-0.438l0.208,0.287l0.207,-0.286l0,0.437l0.16,0l0,-0.71l-0.145,0l-0.223,0.306l-0.221,-0.306l-0.145,0Z" style="fill:#128758;fill-rule:nonzero;"/></g><g transform="matrix(144,0,0,144,332.398,105.704)"><path d="M0.067,0l0,-0.497l0.152,0l0,0.497l-0.152,0Zm-0.013,-0.649c0,-0.012 0.002,-0.023 0.007,-0.034c0.005,-0.011 0.011,-0.021 0.019,-0.029c0.008,-0.008 0.017,-0.014 0.028,-0.019c0.011,-0.005 0.022,-0.007 0.034,-0.007c0.025,0 0.047,0.009 0.064,0.026c0.017,0.017 0.026,0.038 0.026,0.063c0,0.025 -0.009,0.046 -0.026,0.063c-0.017,0.017 -0.039,0.026 -0.064,0.026c-0.012,0 -0.023,-0.002 -0.034,-0.007c-0.011,-0.005 -0.02,-0.011 -0.028,-0.019c-0.008,-0.008 -0.014,-0.017 -0.019,-0.028c-0.005,-0.011 -0.007,-0.023 -0.007,-0.035Z" style="fill:#128758;fill-rule:nonzero;"/></g><g transform="matrix(144,0,0,144,373.438,105.704)"><path d="M0.296,-0.372c-0.016,0 -0.031,0.003 -0.044,0.008c-0.014,0.005 -0.026,0.013 -0.037,0.024c-0.01,0.011 -0.018,0.024 -0.024,0.039c-0.006,0.015 -0.009,0.033 -0.009,0.053c0,0.02 0.003,0.038 0.01,0.052c0.006,0.016 0.014,0.028 0.024,0.039c0.011,0.011 0.023,0.019 0.037,0.024c0.014,0.005 0.029,0.008 0.045,0.008c0.029,0 0.052,-0.008 0.07,-0.023c0.017,-0.015 0.028,-0.032 0.033,-0.051l0.134,0.041c-0.005,0.022 -0.015,0.043 -0.028,0.064c-0.013,0.021 -0.029,0.039 -0.049,0.055c-0.02,0.016 -0.043,0.029 -0.07,0.039c-0.027,0.01 -0.057,0.015 -0.09,0.015c-0.037,0 -0.072,-0.007 -0.105,-0.02c-0.032,-0.013 -0.06,-0.031 -0.084,-0.054c-0.024,-0.023 -0.043,-0.051 -0.057,-0.083c-0.014,-0.032 -0.021,-0.067 -0.021,-0.106c0,-0.039 0.007,-0.074 0.02,-0.106c0.014,-0.033 0.033,-0.061 0.056,-0.084c0.024,-0.023 0.052,-0.041 0.083,-0.054c0.032,-0.013 0.066,-0.02 0.103,-0.02c0.034,0 0.065,0.005 0.092,0.015c0.027,0.009 0.051,0.022 0.071,0.038c0.02,0.016 0.036,0.035 0.049,0.055c0.013,0.022 0.022,0.043 0.027,0.065l-0.136,0.041c-0.003,-0.009 -0.007,-0.018 -0.012,-0.027c-0.005,-0.009 -0.012,-0.017 -0.02,-0.024c-0.008,-0.007 -0.018,-0.013 -0.029,-0.017c-0.011,-0.004 -0.024,-0.006 -0.039,-0.006Z" style="fill:#128758;fill-rule:nonzero;"/></g><g transform="matrix(144,0,0,144,454.222,105.704)"><path d="M0.383,-0.347c-0.009,-0.002 -0.017,-0.003 -0.025,-0.004c-0.008,-0.001 -0.016,-0.001 -0.023,-0.001c-0.015,0 -0.03,0.002 -0.044,0.007c-0.014,0.005 -0.026,0.012 -0.037,0.023c-0.011,0.011 -0.019,0.025 -0.025,0.042c-0.007,0.017 -0.01,0.038 -0.01,0.063l0,0.217l-0.152,0l0,-0.497l0.147,0l0,0.067c0.007,-0.014 0.015,-0.026 0.025,-0.035c0.011,-0.009 0.022,-0.017 0.034,-0.022c0.012,-0.005 0.024,-0.009 0.036,-0.012c0.013,-0.002 0.024,-0.003 0.034,-0.003c0.015,0 0.029,0.002 0.04,0.005l0,0.15Z" style="fill:#128758;fill-rule:nonzero;"/></g><g transform="matrix(144,0,0,144,512.11,105.704)"><path d="M0.295,-0.125c0.015,0 0.029,-0.003 0.042,-0.008c0.013,-0.005 0.025,-0.012 0.036,-0.022c0.01,-0.011 0.018,-0.024 0.025,-0.039c0.006,-0.015 0.009,-0.034 0.009,-0.055c0,-0.021 -0.003,-0.039 -0.01,-0.054c-0.006,-0.016 -0.014,-0.029 -0.025,-0.039c-0.01,-0.01 -0.022,-0.018 -0.035,-0.023c-0.013,-0.005 -0.027,-0.007 -0.042,-0.007c-0.014,0 -0.028,0.003 -0.041,0.008c-0.014,0.005 -0.026,0.012 -0.037,0.022c-0.01,0.01 -0.018,0.023 -0.024,0.038c-0.007,0.016 -0.01,0.034 -0.01,0.055c0,0.021 0.003,0.039 0.01,0.054c0.006,0.016 0.014,0.029 0.024,0.04c0.011,0.01 0.023,0.017 0.037,0.022c0.013,0.006 0.027,0.008 0.041,0.008Zm0,-0.387c0.037,0 0.072,0.007 0.104,0.02c0.032,0.013 0.06,0.031 0.083,0.054c0.024,0.023 0.043,0.051 0.056,0.083c0.014,0.032 0.021,0.067 0.021,0.106c0,0.039 -0.007,0.074 -0.021,0.107c-0.013,0.032 -0.032,0.06 -0.056,0.083c-0.023,0.023 -0.051,0.042 -0.083,0.055c-0.032,0.012 -0.067,0.019 -0.104,0.019c-0.037,0 -0.072,-0.007 -0.104,-0.019c-0.032,-0.013 -0.06,-0.032 -0.084,-0.055c-0.023,-0.023 -0.042,-0.051 -0.056,-0.083c-0.013,-0.033 -0.02,-0.068 -0.02,-0.107c0,-0.039 0.007,-0.074 0.02,-0.106c0.014,-0.032 0.033,-0.06 0.056,-0.083c0.024,-0.023 0.052,-0.041 0.084,-0.054c0.032,-0.013 0.067,-0.02 0.104,-0.02Z" style="fill:#128758;fill-rule:nonzero;"/></g><g transform="matrix(144,0,0,144,597.07,105.704)"><path d="M0.242,-0.369l0,0.369l-0.152,0l0,-0.369l-0.079,0l0,-0.128l0.079,0l0,-0.043c0,-0.029 0.004,-0.055 0.012,-0.078c0.009,-0.023 0.021,-0.043 0.038,-0.061c0.016,-0.016 0.036,-0.03 0.06,-0.039c0.023,-0.009 0.05,-0.014 0.08,-0.014c0.015,0 0.029,0.001 0.042,0.003c0.013,0.002 0.023,0.005 0.03,0.008l0,0.124c-0.004,-0.001 -0.009,-0.002 -0.016,-0.003c-0.007,-0.001 -0.017,-0.002 -0.029,-0.002c-0.007,0 -0.014,0.001 -0.021,0.003c-0.008,0.001 -0.015,0.005 -0.021,0.01c-0.007,0.005 -0.012,0.011 -0.016,0.02c-0.005,0.009 -0.007,0.02 -0.007,0.034l0,0.038l0.108,0l0,0.128l-0.108,0Z" style="fill:#128758;fill-rule:nonzero;"/></g><g transform="matrix(144,0,0,144,650.572,105.704)"><rect x="0.067" y="-0.724" width="0.152" height="0.724" style="fill:#128758;fill-rule:nonzero;"/></g><g transform="matrix(144,0,0,144,691.036,105.704)"><path d="M0.037,-0.137c0,-0.022 0.004,-0.042 0.012,-0.059c0.007,-0.017 0.018,-0.032 0.031,-0.044c0.013,-0.013 0.029,-0.023 0.047,-0.031c0.017,-0.007 0.036,-0.013 0.057,-0.016l0.117,-0.018c0.013,-0.002 0.023,-0.006 0.028,-0.012c0.005,-0.006 0.008,-0.013 0.008,-0.022c0,-0.015 -0.006,-0.027 -0.019,-0.038c-0.012,-0.011 -0.03,-0.016 -0.054,-0.016c-0.027,0 -0.047,0.008 -0.062,0.023c-0.014,0.015 -0.022,0.031 -0.023,0.05l-0.132,-0.027c0.001,-0.018 0.007,-0.037 0.016,-0.056c0.009,-0.019 0.023,-0.037 0.04,-0.053c0.018,-0.016 0.04,-0.029 0.067,-0.04c0.027,-0.011 0.058,-0.016 0.095,-0.016c0.04,0 0.074,0.005 0.102,0.016c0.028,0.01 0.051,0.024 0.069,0.041c0.017,0.018 0.03,0.039 0.037,0.062c0.008,0.023 0.012,0.048 0.012,0.073l0,0.243c0,0.019 0.001,0.036 0.003,0.051c0.001,0.015 0.002,0.023 0.003,0.026l-0.137,0c-0.001,-0.002 -0.002,-0.007 -0.003,-0.016c-0.001,-0.009 -0.002,-0.023 -0.002,-0.04c-0.013,0.021 -0.032,0.038 -0.055,0.051c-0.023,0.013 -0.052,0.019 -0.085,0.019c-0.027,0 -0.052,-0.004 -0.073,-0.013c-0.021,-0.008 -0.039,-0.019 -0.054,-0.033c-0.015,-0.014 -0.026,-0.03 -0.033,-0.048c-0.008,-0.018 -0.012,-0.037 -0.012,-0.057Zm0.209,0.041c0.011,0 0.023,-0.002 0.034,-0.005c0.011,-0.002 0.02,-0.008 0.029,-0.016c0.008,-0.007 0.015,-0.017 0.02,-0.03c0.005,-0.013 0.008,-0.029 0.008,-0.048l0,-0.022l-0.094,0.015c-0.016,0.003 -0.029,0.008 -0.04,0.017c-0.011,0.008 -0.016,0.021 -0.016,0.038c0,0.013 0.005,0.025 0.014,0.035c0.009,0.011 0.024,0.016 0.045,0.016Z" style="fill:#128758;fill-rule:nonzero;"/></g><g transform="matrix(144,0,0,144,769.66,105.704)"><path d="M0.155,-0.164c0.001,0.017 0.008,0.033 0.02,0.047c0.013,0.013 0.032,0.02 0.058,0.02c0.019,0 0.034,-0.004 0.044,-0.013c0.009,-0.009 0.014,-0.019 0.014,-0.03c0,-0.009 -0.004,-0.017 -0.01,-0.024c-0.007,-0.008 -0.02,-0.013 -0.039,-0.017l-0.057,-0.013c-0.027,-0.006 -0.049,-0.014 -0.068,-0.024c-0.019,-0.01 -0.034,-0.022 -0.046,-0.035c-0.012,-0.013 -0.021,-0.028 -0.026,-0.044c-0.005,-0.016 -0.008,-0.033 -0.008,-0.05c0,-0.023 0.005,-0.044 0.014,-0.064c0.009,-0.02 0.023,-0.038 0.04,-0.053c0.017,-0.015 0.037,-0.026 0.06,-0.035c0.023,-0.009 0.049,-0.013 0.077,-0.013c0.036,0 0.066,0.005 0.091,0.015c0.025,0.01 0.045,0.023 0.061,0.037c0.015,0.016 0.027,0.032 0.034,0.049c0.007,0.017 0.012,0.032 0.013,0.047l-0.126,0.023c-0.002,-0.017 -0.008,-0.031 -0.019,-0.043c-0.011,-0.012 -0.029,-0.018 -0.052,-0.018c-0.015,0 -0.027,0.004 -0.038,0.012c-0.011,0.007 -0.016,0.018 -0.016,0.031c0,0.011 0.004,0.019 0.011,0.025c0.007,0.006 0.017,0.01 0.028,0.012l0.066,0.013c0.052,0.011 0.091,0.03 0.116,0.058c0.025,0.029 0.037,0.061 0.037,0.098c0,0.021 -0.004,0.042 -0.012,0.062c-0.008,0.02 -0.02,0.038 -0.037,0.053c-0.017,0.016 -0.037,0.029 -0.062,0.038c-0.025,0.01 -0.054,0.015 -0.087,0.015c-0.039,0 -0.072,-0.006 -0.098,-0.017c-0.027,-0.011 -0.048,-0.024 -0.064,-0.04c-0.016,-0.016 -0.028,-0.033 -0.035,-0.051c-0.008,-0.018 -0.012,-0.034 -0.013,-0.048l0.129,-0.023Z" style="fill:#128758;fill-rule:nonzero;"/></g><g transform="matrix(144,0,0,144,836.764,105.704)"><path d="M0.219,0l-0.152,0l0,-0.724l0.152,0l0,0.259c0.015,-0.015 0.035,-0.027 0.059,-0.034c0.023,-0.007 0.046,-0.011 0.068,-0.011c0.033,0 0.061,0.005 0.084,0.016c0.024,0.01 0.044,0.024 0.059,0.042c0.015,0.018 0.027,0.039 0.034,0.063c0.007,0.024 0.011,0.05 0.011,0.077l0,0.312l-0.152,0l0,-0.286c0,-0.025 -0.007,-0.045 -0.02,-0.061c-0.013,-0.017 -0.033,-0.025 -0.061,-0.025c-0.024,0 -0.043,0.008 -0.058,0.023c-0.015,0.015 -0.023,0.034 -0.024,0.057l0,0.292Z" style="fill:#128758;fill-rule:nonzero;"/></g></g></svg>