<svg viewBox="0 0 888 176" xmlns="http://www.w3.org/2000/svg" fill-rule="evenodd" clip-rule="evenodd" stroke-linecap="round" stroke-linejoin="round" stroke-miterlimit="3"><path d="M212.622 40.048h11.232l36.72 68.976 36.72-68.976h11.232v98.928h-11.232V64.24l-36.72 68.976-36.72-68.976v74.736h-11.232V40.048zM338.334 50.992c-2.016 0-3.744-.72-5.184-2.16-1.296-1.44-2.016-3.168-2.016-5.04 0-1.872.72-3.6 2.016-4.896 1.44-1.44 3.168-2.16 5.184-2.16 1.872 0 3.6.72 4.896 2.16 1.44 1.296 2.16 3.024 2.16 4.896 0 1.872-.72 3.6-2.16 5.04-1.296 1.44-3.024 2.16-4.896 2.16zm-5.472 13.536h10.8v74.448h-10.8V64.528zM399.966 140.704c-6.768 0-13.248-1.728-19.152-5.328-5.904-3.6-10.656-8.352-14.112-14.4-3.6-5.904-5.328-12.384-5.328-19.296 0-6.912 1.728-13.392 5.328-19.296 3.456-5.904 8.208-10.656 14.112-14.256 5.904-3.6 12.384-5.328 19.152-5.328a36.54 36.54 0 0114.256 2.88c4.608 1.872 8.64 4.608 12.24 8.064l-7.488 7.344c-2.448-2.736-5.328-4.752-8.64-6.336-3.312-1.584-6.768-2.304-10.368-2.304-4.896 0-9.504 1.296-13.68 4.032-4.032 2.592-7.344 6.192-9.936 10.656-2.304 4.464-3.6 9.36-3.6 14.544 0 5.328 1.296 10.224 3.6 14.688 2.592 4.464 5.904 7.92 10.08 10.656 4.032 2.736 8.64 4.032 13.536 4.032 3.6 0 7.2-.72 10.512-2.304 3.312-1.584 6.336-3.888 8.928-6.768l7.488 7.344c-3.6 3.6-7.632 6.336-12.384 8.352-4.608 2.016-9.504 3.024-14.544 3.024zM455.262 79.072c2.16-5.04 5.904-8.928 10.944-11.808 5.04-3.024 11.088-4.464 17.856-4.464v9.648c-5.616 0-10.512 1.008-14.832 3.168-4.464 2.16-7.776 5.04-10.368 8.928-2.304 3.744-3.6 8.064-3.6 12.816v41.616h-10.8V64.528h10.8v14.544zM531.15 140.704c-6.768 0-13.248-1.728-19.152-5.328-5.904-3.6-10.656-8.352-14.112-14.4-3.6-5.904-5.328-12.384-5.328-19.296 0-6.912 1.728-13.392 5.328-19.296 3.456-5.904 8.208-10.656 14.112-14.256 5.904-3.6 12.384-5.328 19.152-5.328 6.768 0 13.104 1.728 19.152 5.328 5.76 3.6 10.512 8.352 13.968 14.256 3.6 5.904 5.328 12.384 5.328 19.296 0 6.912-1.728 13.392-5.328 19.44-3.456 5.904-8.208 10.656-14.112 14.256-5.904 3.6-12.24 5.328-19.008 5.328zm0-9.648c4.752 0 9.216-1.296 13.392-4.032 4.176-2.736 7.488-6.192 9.936-10.8 2.448-4.464 3.744-9.216 3.744-14.544 0-5.184-1.296-10.08-3.744-14.544-2.304-4.464-5.616-8.064-9.936-10.8-4.032-2.592-8.64-3.888-13.392-3.888-4.896 0-9.36 1.296-13.536 4.032-4.176 2.592-7.488 6.192-9.936 10.656-2.448 4.464-3.744 9.36-3.744 14.544 0 5.328 1.296 10.224 3.744 14.688 2.448 4.464 5.76 7.92 9.936 10.656 4.176 2.736 8.64 4.032 13.536 4.032zM604.302 64.528h18.288v9.648h-18.288v64.8h-10.8v-64.8h-11.664v-9.648h11.664V54.304c0-5.616 1.728-10.08 5.04-13.68 3.456-3.6 7.776-5.328 13.104-5.328 5.184 0 9.792 1.584 13.824 4.752l-5.328 7.92c-.864-.864-2.016-1.584-3.312-2.16-1.296-.576-2.88-.864-4.464-.864-2.16 0-4.176.864-5.76 2.736-1.584 1.728-2.304 3.888-2.304 6.624v10.224zM637.998 38.32h10.8v100.656h-10.8zM700.926 62.8c9.936 0 17.424 2.88 22.464 8.496 5.184 5.616 7.776 12.96 7.776 22.32v45.36h-10.8v-11.664c-2.592 4.176-6.336 7.488-11.232 9.936-4.752 2.304-9.792 3.456-14.976 3.456-7.92 0-14.544-2.16-19.584-6.48-5.04-4.32-7.632-10.08-7.632-17.28 0-4.752 1.296-9.072 3.888-12.816 2.736-3.888 6.192-6.768 10.656-8.784 4.464-2.16 9.36-3.168 14.688-3.168 7.488 0 15.552 1.44 24.192 4.176v-2.736c0-6.048-1.584-11.088-4.608-15.264-3.024-4.176-8.208-6.336-15.552-6.336-3.312 0-6.768.576-10.368 1.872-3.456 1.152-7.2 2.736-11.376 4.896L674.142 70c9.648-4.752 18.576-7.2 26.784-7.2zm-4.896 68.4c5.328 0 10.512-1.44 15.12-4.176 4.896-2.736 7.92-6.48 9.216-11.376v-11.376a84.48 84.48 0 00-22.464-3.024c-5.616 0-10.512 1.44-14.544 4.32-3.888 2.88-5.904 6.48-5.904 10.944s1.728 8.064 5.328 10.8c3.456 2.592 7.92 3.888 13.248 3.888zM779.55 140.704c-5.328 0-10.656-1.008-16.128-2.88-5.328-1.872-10.224-4.608-14.688-8.208l5.616-7.92c8.496 6.192 16.992 9.36 25.2 9.36 4.896 0 8.928-1.008 11.952-3.168 2.88-2.16 4.464-4.896 4.464-8.496 0-2.448-.864-4.608-2.448-6.336-1.584-1.584-3.6-2.88-6.048-3.888-2.592-1.008-5.904-2.016-10.224-3.312-9.072-2.592-15.552-5.472-19.296-8.496-3.744-3.168-5.616-7.344-5.616-12.672 0-6.624 2.448-11.952 7.344-15.84 4.896-4.032 11.088-6.048 18.72-6.048 4.464 0 9.072.72 13.68 2.304a53.196 53.196 0 0112.96 6.048l-5.184 8.352c-7.344-4.752-14.544-7.056-21.456-7.056-4.464 0-8.064 1.008-10.944 2.88-2.88 1.872-4.32 4.608-4.32 8.064 0 2.16.576 3.888 1.872 5.184 1.296 1.296 3.168 2.592 5.616 3.6 2.448 1.008 6.48 2.448 11.808 4.176 5.328 1.584 9.504 3.168 12.816 4.752 3.312 1.584 6.048 3.6 8.208 6.336s3.312 6.336 3.312 10.8c0 6.768-2.592 12.096-7.632 16.272-5.184 4.176-11.664 6.192-19.584 6.192zM860.046 62.8c5.328 0 10.224 1.296 14.4 3.744 4.32 2.448 7.632 5.76 9.936 10.224 2.448 4.32 3.6 9.216 3.6 14.832v47.376h-10.8V93.04c0-6.048-1.728-10.944-5.184-14.832-3.456-3.888-7.92-5.76-13.392-5.76-4.176 0-7.92.864-11.52 2.592-3.456 1.728-6.192 4.032-8.352 7.056s-3.168 6.192-3.168 9.504v47.376h-10.8V38.32h10.8v38.16c2.16-4.032 5.472-7.344 9.936-9.936 4.464-2.448 9.36-3.744 14.544-3.744z" fill="#38a68d" fill-rule="nonzero"/><g><circle cx="88.018" cy="88" r="88" fill="#db0b2f"/><path d="M114.35 90.391h30.103l-16.729 27.069 22.091-.033L99.9 152.104l16.95-28.992H93.815l20.535-32.721z" fill="#fff" stroke="#fff" stroke-width="2"/></g></svg>