<svg viewBox="0 0 184 174" xmlns="http://www.w3.org/2000/svg" fill-rule="evenodd" clip-rule="evenodd" stroke-linejoin="round" stroke-miterlimit="2"><path d="M45.874 7.107c14.089-8.134 77.189-7.783 91.37.51 14.18 8.292 46.035 63.466 46.126 79.893.091 16.426-31.154 71.248-45.244 79.383-14.089 8.134-77.189 7.783-91.37-.51C32.576 158.091.721 102.917.63 86.49.539 70.064 31.784 15.242 45.874 7.107z" fill="url(#_Radial1)"/><g fill="#fff"><path d="M142.457 102.301c.826-1.264.471-2.29-.793-2.29H123.34c-1.264 0-2.961 1.026-3.787 2.29l-13.046 19.965c-.826 1.264-.47 2.29.794 2.29h18.324c1.264 0 2.961-1.026 3.787-2.29l13.045-19.965z"/><path d="M142.06 119.792c1.758-1.242 1.077-2.757-.443-2.601h-17.61c-.54 0-1.311.51-1.722 1.139l-14.551 22.269c-1.034 1.408.787 2.779 2.168 1.885 5.717-3.702 26.488-18.687 32.158-22.692z"/></g><defs><radialGradient id="_Radial1" cx="0" cy="0" r="1" gradientUnits="userSpaceOnUse" gradientTransform="rotate(-125.809 91.983 26.873) scale(118.9796)"><stop offset="0" stop-color="#e9606a"/><stop offset=".53" stop-color="#df223f"/><stop offset="1" stop-color="#db0b2f"/></radialGradient></defs></svg>