<svg version="1.1" xmlns="http://www.w3.org/2000/svg" viewBox="0 0 250 250" width="100%" height="100%"><title>mongoDB</title><path d="M126.253,175.628l-3.804,-1.3c0,0 0.464,-19.396 -6.497,-20.788c-4.64,-5.384 0.744,-228.309 17.449,-0.743c0,0 -5.755,2.876 -6.776,7.796c-1.114,4.826 -0.372,15.035 -0.372,15.035Z" fill="#fff"/><path d="M126.253,175.628l-3.804,-1.3c0,0 0.464,-19.396 -6.497,-20.788c-4.64,-5.384 0.744,-228.309 17.449,-0.743c0,0 -5.755,2.876 -6.776,7.796c-1.114,4.826 -0.372,15.035 -0.372,15.035Z" fill="#a6a385"/><path d="M128.296,156.881c0,0 33.319,-21.903 25.522,-67.473c-7.517,-33.131 -25.244,-43.99 -27.193,-48.167c-2.134,-2.969 -4.176,-8.166 -4.176,-8.166l1.392,92.157c0,0.094 -2.877,28.214 4.456,31.65" fill="#fff"/><path d="M128.296,156.881c0,0 33.319,-21.903 25.522,-67.473c-7.517,-33.131 -25.244,-43.99 -27.193,-48.167c-2.134,-2.969 -4.176,-8.166 -4.176,-8.166l1.392,92.157c0,0.094 -2.877,28.214 4.456,31.65" fill="#499d4a"/><path d="M120.501,158.087c0,0 -31.278,-21.346 -29.421,-58.933c1.763,-37.587 23.851,-56.056 28.12,-59.397c2.785,-2.97 2.877,-4.084 3.064,-7.054c1.949,4.177 1.577,62.461 1.855,69.328c0.835,26.45 -1.484,51.045 -3.618,56.056Z" fill="#fff"/><path d="M120.501,158.087c0,0 -31.278,-21.346 -29.421,-58.933c1.763,-37.587 23.851,-56.056 28.12,-59.397c2.785,-2.97 2.877,-4.084 3.064,-7.054c1.949,4.177 1.577,62.461 1.855,69.328c0.835,26.45 -1.484,51.045 -3.618,56.056Z" fill="#58aa50"/><path d="M208.814,177.436c-0.215,0.043 -0.43,0.516 -0.43,0.774c-0.043,1.722 -0.086,6.285 -0.086,9.384c0,0.087 0.129,0.259 0.258,0.259c0.646,0.043 2.195,0.086 3.53,0.086c1.851,0 2.927,-0.258 3.53,-0.516c1.549,-0.776 2.281,-2.454 2.281,-4.306c0,-4.175 -2.927,-5.768 -7.275,-5.768c-0.301,-0.043 -1.162,-0.043 -1.808,0.087Zm11.107,19.242c0,-4.262 -3.143,-6.63 -8.825,-6.63c-0.259,0 -2.067,-0.043 -2.497,0.043c-0.129,0.043 -0.301,0.13 -0.301,0.259c0,3.056 -0.043,7.921 0.086,9.814c0.086,0.818 0.689,1.981 1.421,2.325c0.774,0.43 2.539,0.516 3.745,0.516c3.4,0 6.371,-1.894 6.371,-6.327Zm-19.888,-21.61c0.43,0 1.721,0.129 5.036,0.129c3.143,0 5.639,-0.086 8.696,-0.086c3.744,0 8.91,1.334 8.91,6.931c0,2.755 -1.937,4.95 -4.477,6.026c-0.128,0.043 -0.128,0.129 0,0.172c3.616,0.905 6.802,3.143 6.802,7.361c0,4.133 -2.583,6.759 -6.328,8.395c-2.282,0.989 -5.122,1.334 -8.007,1.334c-2.195,0 -8.092,-0.258 -11.364,-0.172c-0.344,-0.13 0.302,-1.679 0.602,-1.937c0.776,-0.044 1.378,-0.087 2.196,-0.345c1.163,-0.301 1.291,-0.646 1.463,-2.41c0.087,-1.507 0.087,-6.845 0.087,-10.633c0,-5.209 0.043,-8.738 0,-10.46c-0.043,-1.334 -0.517,-1.765 -1.464,-2.024c-0.732,-0.128 -1.937,-0.301 -2.927,-0.43c-0.216,-0.215 0.516,-1.679 0.775,-1.851Zm-24.839,26.775c1.034,0.818 3.057,1.162 4.865,1.162c2.325,0 4.649,-0.43 6.888,-2.454c2.281,-2.065 3.874,-5.251 3.874,-10.33c0,-4.865 -1.851,-8.826 -5.639,-11.149c-2.153,-1.336 -4.908,-1.894 -8.093,-1.894c-0.947,0 -1.851,0.043 -2.411,0.301c-0.129,0.086 -0.43,0.473 -0.43,0.688c-0.086,0.861 -0.086,7.49 -0.086,11.365c0,4.003 0,9.599 0.086,10.245c0,0.646 0.301,1.636 0.947,2.066l-0.001,0Zm-9.771,-26.775c0.818,0 3.96,0.129 5.467,0.129c2.712,0 4.649,-0.129 9.771,-0.129c4.305,0 7.921,1.162 10.504,3.357c3.142,2.713 4.779,6.458 4.779,11.02c0,6.501 -2.971,10.246 -5.941,12.398c-2.97,2.195 -6.845,3.487 -12.354,3.487c-2.928,0 -7.964,-0.086 -12.14,-0.13l-0.043,0c-0.215,-0.387 0.344,-1.893 0.689,-1.936c1.119,-0.13 1.421,-0.173 1.98,-0.388c0.904,-0.344 1.076,-0.818 1.206,-2.41c0.128,-2.971 0.085,-6.543 0.085,-10.59c0,-2.884 0.043,-8.523 -0.043,-10.331c-0.129,-1.507 -0.774,-1.894 -2.066,-2.153c-0.645,-0.129 -1.507,-0.301 -2.711,-0.43c-0.173,-0.302 0.602,-1.636 0.817,-1.894l0,0Z" fill="#8e714e"/><path d="M113.337,203.522c-1.077,-0.13 -1.851,-0.301 -2.798,-0.732c-0.13,-0.086 -0.345,-0.516 -0.345,-0.689c-0.086,-1.506 -0.086,-5.811 -0.086,-8.695c0,-2.325 -0.387,-4.348 -1.377,-5.768c-1.163,-1.637 -2.841,-2.583 -4.994,-2.583c-1.894,0 -4.434,1.291 -6.543,3.099c-0.043,0.043 -0.387,0.345 -0.344,-0.129c0,-0.473 0.086,-1.42 0.129,-2.066c0.043,-0.603 -0.302,-0.904 -0.302,-0.904c-1.377,0.688 -5.251,1.592 -6.672,1.721c-1.033,0.216 -1.291,1.206 -0.214,1.55l0.042,0c1.162,0.345 1.937,0.732 2.539,1.12c0.431,0.344 0.388,0.818 0.388,1.205c0.043,3.228 0.043,8.179 -0.086,10.891c-0.043,1.076 -0.344,1.463 -1.119,1.635l0.086,-0.043c-0.603,0.13 -1.076,0.258 -1.808,0.345c-0.258,0.258 -0.258,1.636 0,1.937c0.473,0 2.97,-0.129 5.037,-0.129c2.841,0 4.305,0.129 5.036,0.129c0.301,-0.344 0.388,-1.636 0.215,-1.937c-0.818,-0.043 -1.42,-0.129 -1.98,-0.302c-0.775,-0.172 -0.99,-0.559 -1.033,-1.463c-0.086,-2.282 -0.086,-7.103 -0.086,-10.374c0,-0.904 0.258,-1.335 0.516,-1.593c0.99,-0.861 2.583,-1.464 4.004,-1.464c1.377,0 2.281,0.431 2.97,0.991c0.947,0.774 1.248,1.894 1.377,2.711c0.215,1.851 0.13,5.51 0.13,8.696c0,1.722 -0.13,2.152 -0.775,2.367c-0.302,0.129 -1.076,0.302 -1.98,0.387c-0.302,0.302 -0.215,1.637 0,1.938c1.248,0 2.712,-0.129 4.864,-0.129c2.669,0 4.391,0.129 5.08,0.129c0.214,-0.258 0.301,-1.507 0.129,-1.851Zm11.924,-16.443c-2.282,0 -3.702,1.764 -3.702,4.519c0,2.798 1.248,6.026 4.778,6.026c0.602,0 1.722,-0.258 2.238,-0.861c0.818,-0.774 1.378,-2.324 1.378,-3.96c0,-3.573 -1.765,-5.725 -4.692,-5.725l0,0.001Zm-0.302,19.025c-0.86,0 -1.464,0.259 -1.851,0.474c-1.808,1.162 -2.626,2.281 -2.626,3.616c0,1.248 0.474,2.238 1.507,3.099c1.248,1.076 2.97,1.593 5.165,1.593c4.391,0 6.329,-2.368 6.329,-4.692c0,-1.636 -0.819,-2.712 -2.497,-3.314c-1.205,-0.517 -3.401,-0.776 -6.027,-0.776Zm0.302,11.193c-2.626,0 -4.521,-0.56 -6.156,-1.808c-1.593,-1.205 -2.282,-3.013 -2.282,-4.262c0,-0.344 0.087,-1.291 0.862,-2.152c0.473,-0.517 1.506,-1.507 3.96,-3.186c0.086,-0.042 0.129,-0.085 0.129,-0.172c0,-0.086 -0.087,-0.172 -0.172,-0.215c-2.024,-0.775 -2.626,-2.023 -2.799,-2.712l0,-0.086c-0.042,-0.259 -0.129,-0.516 0.259,-0.775c0.301,-0.215 0.732,-0.473 1.205,-0.774c0.732,-0.431 1.507,-0.905 1.98,-1.292c0.086,-0.086 0.086,-0.172 0.086,-0.258c0,-0.087 -0.086,-0.173 -0.172,-0.215c-3.013,-0.991 -4.519,-3.229 -4.519,-6.587c0,-2.195 0.989,-4.175 2.754,-5.424c1.206,-0.947 4.219,-2.109 6.199,-2.109l0.129,0c2.023,0.043 3.142,0.473 4.735,1.033c0.861,0.302 1.679,0.43 2.799,0.43c1.678,0 2.41,-0.516 3.012,-1.118c0.044,0.086 0.13,0.301 0.173,0.86c0.043,0.56 -0.129,1.378 -0.56,1.981c-0.344,0.473 -1.119,0.818 -1.894,0.818l-0.215,0c-0.775,-0.087 -1.12,-0.173 -1.12,-0.173l-0.171,0.086c-0.043,0.087 0,0.173 0.042,0.302l0.044,0.086c0.086,0.387 0.258,1.549 0.258,1.851c0,3.53 -1.421,5.079 -2.927,6.241c-1.464,1.077 -3.142,1.765 -5.037,1.938c-0.043,0 -0.214,0 -0.602,0.043c-0.216,0 -0.517,0.043 -0.56,0.043l-0.043,0c-0.344,0.086 -1.205,0.516 -1.205,1.248c0,0.645 0.387,1.421 2.238,1.55c0.387,0.043 0.774,0.043 1.205,0.086c2.454,0.172 5.51,0.387 6.931,0.861c1.98,0.731 3.228,2.496 3.228,4.606c0,3.186 -2.281,6.156 -6.069,8.006c-1.851,0.818 -3.702,1.249 -5.725,1.249Zm24.536,-30.003c-0.904,0 -1.722,0.214 -2.325,0.645c-1.678,1.033 -2.539,3.099 -2.539,6.112c0,5.64 2.841,9.6 6.887,9.6c1.206,0 2.153,-0.344 2.97,-1.033c1.249,-1.034 1.895,-3.1 1.895,-5.984c0,-5.596 -2.799,-9.341 -6.888,-9.341l0,0.001Zm0.775,18.423c-7.318,0 -9.944,-5.38 -9.944,-10.417c0,-3.53 1.421,-6.242 4.262,-8.179c2.023,-1.248 4.434,-1.937 6.586,-1.937c5.596,0 9.513,4.003 9.513,9.772c0,3.917 -1.549,7.016 -4.52,8.91c-1.42,0.947 -3.874,1.851 -5.897,1.851l0,0Zm-76.709,-18.424c-0.904,0 -1.722,0.215 -2.325,0.646c-1.678,1.033 -2.54,3.099 -2.54,6.112c0,5.64 2.841,9.6 6.888,9.6c1.205,0 2.152,-0.344 2.97,-1.033c1.248,-1.034 1.894,-3.1 1.894,-5.984c0,-5.596 -2.755,-9.341 -6.887,-9.341Zm0.775,18.424c-7.318,0 -9.944,-5.38 -9.944,-10.417c0,-3.53 1.42,-6.242 4.261,-8.179c2.024,-1.248 4.434,-1.937 6.587,-1.937c5.596,0 9.513,4.003 9.513,9.772c0,3.917 -1.55,7.016 -4.52,8.91c-1.378,0.947 -3.831,1.851 -5.897,1.851Zm-49.203,-0.43c-0.086,-0.129 -0.172,-0.517 -0.129,-0.99c0,-0.345 0.086,-0.56 0.129,-0.646c0.904,-0.129 1.378,-0.259 1.894,-0.387c0.861,-0.216 1.205,-0.689 1.248,-1.765c0.13,-2.583 0.13,-7.491 0.087,-10.891l0,-0.086c0,-0.388 0,-0.862 -0.474,-1.206c-0.689,-0.43 -1.507,-0.817 -2.583,-1.119c-0.387,-0.129 -0.645,-0.344 -0.602,-0.602c0,-0.259 0.258,-0.56 0.818,-0.646c1.42,-0.129 5.122,-1.033 6.585,-1.679c0.087,0.086 0.216,0.345 0.216,0.689l-0.043,0.473c-0.043,0.474 -0.086,1.034 -0.086,1.593c0,0.172 0.172,0.301 0.344,0.301c0.086,0 0.173,-0.043 0.258,-0.086c2.755,-2.152 5.252,-2.927 6.543,-2.927c2.11,0 3.746,0.99 4.994,3.056c0.086,0.13 0.172,0.173 0.302,0.173c0.085,0 0.214,-0.043 0.258,-0.129c2.539,-1.938 5.079,-3.1 6.758,-3.1c4.003,0 6.371,2.97 6.371,8.007c0,1.42 0,3.271 -0.043,4.951c0,1.506 -0.043,2.883 -0.043,3.874c0,0.214 0.301,0.903 0.774,1.032c0.603,0.302 1.421,0.431 2.497,0.603l0.043,0c0.087,0.301 -0.086,1.42 -0.258,1.636c-0.258,0 -0.646,0 -1.076,-0.043c-1.09,-0.057 -2.18,-0.086 -3.272,-0.086c-2.668,0 -4.046,0.043 -5.381,0.129c-0.085,-0.344 -0.129,-1.378 0,-1.636c0.775,-0.129 1.163,-0.258 1.637,-0.387c0.861,-0.259 1.076,-0.646 1.119,-1.765c0,-0.818 0.172,-7.792 -0.087,-9.471c-0.258,-1.721 -1.549,-3.744 -4.391,-3.744c-1.076,0 -2.754,0.43 -4.39,1.678c-0.086,0.086 -0.173,0.301 -0.173,0.431l0,0.043c0.173,0.903 0.173,1.937 0.173,3.53l0,2.798c0,1.937 -0.043,3.745 0,5.122c0,0.947 0.56,1.162 1.033,1.335c0.259,0.042 0.43,0.086 0.646,0.129c0.387,0.086 0.775,0.172 1.377,0.301c0.087,0.173 0.087,0.732 -0.043,1.205c-0.043,0.259 -0.129,0.388 -0.172,0.431c-1.464,-0.043 -2.97,-0.086 -5.165,-0.086c-0.646,0 -1.766,0.043 -2.713,0.043c-0.775,0 -1.506,0.043 -1.936,0.043c-0.044,-0.086 -0.13,-0.387 -0.13,-0.861c0,-0.387 0.086,-0.689 0.173,-0.775c0.215,-0.043 0.387,-0.086 0.602,-0.086c0.516,-0.086 0.947,-0.172 1.377,-0.258c0.733,-0.215 0.991,-0.603 1.034,-1.55c0.129,-2.152 0.258,-8.308 -0.043,-9.858c-0.517,-2.496 -1.937,-3.745 -4.219,-3.745c-1.334,0 -3.014,0.646 -4.391,1.68c-0.215,0.171 -0.387,0.601 -0.387,0.989l0,2.54c0,3.099 0,6.974 0.043,8.653c0.043,0.516 0.215,1.119 1.205,1.334c0.216,0.043 0.56,0.129 0.99,0.172l0.775,0.129c0.086,0.258 0.043,1.292 -0.129,1.636c-0.431,0 -0.947,-0.043 -1.55,-0.043c-0.904,-0.043 -2.066,-0.086 -3.357,-0.086c-1.507,0 -2.583,0.043 -3.444,0.086c-0.603,-0.086 -1.076,-0.086 -1.593,-0.086Z" fill="#442d22"/></svg>