<svg version="1.1" xmlns="http://www.w3.org/2000/svg" viewBox="0 0 250 250" width="100%" height="100%"><title>Oracle Database</title><path d="M25.379,129.793l192.068,0l0,-1.755l-192.068,0l0,1.755Z" fill="#898a89"/><path d="M108.259,106.892l12.74,0l-6.729,-10.84l-12.362,19.589l-5.637,0.005l15.041,-23.518c0.639,-0.948 1.74,-1.529 2.946,-1.529c1.18,0 2.262,0.559 2.904,1.488l15.094,23.559l-5.633,-0.005l-2.654,-4.377l-12.899,0l-2.811,-4.372" fill="#d43733"/><path d="M166.714,111.264l0,-20.427l-4.782,0l0,22.435c0,0.608 0.262,1.206 0.705,1.642c0.461,0.465 1.085,0.727 1.745,0.727l21.757,0l2.84,-4.377l-22.265,0" fill="#d43733"/><path d="M87.706,107.608c4.652,0 8.391,-3.754 8.391,-8.383c0,-4.633 -3.739,-8.388 -8.391,-8.388l-20.9,0l0,24.804l4.779,0l0,-20.421l15.8,0c2.221,0 4.017,1.789 4.017,4.005c0,2.206 -1.796,4.02 -4.017,4.02l-13.466,-0.004l14.261,12.4l6.933,0l-9.582,-8.033l2.175,0" fill="#d43733"/><path d="M37.42,115.641c-6.859,0 -12.42,-5.541 -12.42,-12.396c0,-6.852 5.561,-12.408 12.42,-12.408l14.44,0c6.869,0 12.402,5.556 12.402,12.408c0,6.855 -5.533,12.401 -12.402,12.401l-14.44,-0.005m14.111,-4.37c4.451,0 8.044,-3.596 8.044,-8.026c0,-4.44 -3.593,-8.025 -8.044,-8.025l-13.79,0c-4.44,0 -8.037,3.585 -8.037,8.025c0,4.43 3.597,8.026 8.037,8.026l13.79,0" fill="#d43733"/><path d="M142.231,115.641c-6.869,0 -12.441,-5.541 -12.441,-12.396c0,-6.852 5.572,-12.408 12.441,-12.408l17.151,0l-2.828,4.383l-13.999,0c-4.46,0 -8.047,3.585 -8.047,8.025c0,4.43 3.587,8.026 8.047,8.026l17.203,0l-2.794,4.37l-14.733,0" fill="#d43733"/><path d="M200.634,111.271c-3.676,0 -6.776,-2.463 -7.728,-5.837l20.4,0l2.818,-4.372l-23.218,0c0.942,-3.382 4.052,-5.842 7.728,-5.842l14.013,0l2.8,-4.383l-17.127,0c-6.857,0 -12.416,5.556 -12.416,12.408c0,6.855 5.559,12.396 12.416,12.396l14.735,0l2.806,-4.37l-17.227,0" fill="#d43733"/><path d="M220.014,93.484c0,-1.215 0.979,-2.19 2.199,-2.19c1.23,0 2.199,0.975 2.199,2.19c0,1.209 -0.969,2.186 -2.199,2.186c-1.22,0 -2.199,-0.977 -2.199,-2.186m2.199,2.79c1.551,0 2.787,-1.235 2.787,-2.777c0,-1.542 -1.236,-2.8 -2.787,-2.8c-1.544,0 -2.794,1.258 -2.794,2.8c0,1.542 1.25,2.777 2.794,2.777m-0.26,-4.433c0.419,0 0.606,0.016 0.826,0.084c0.548,0.179 0.591,0.69 0.591,0.871c0,0.041 -0.012,0.143 -0.036,0.256c-0.023,0.122 -0.089,0.375 -0.369,0.542c-0.05,0.023 -0.069,0.04 -0.135,0.074l0.717,1.294l-0.702,0l-0.639,-1.205l-0.413,0l0,1.205l-0.624,0l0,-3.121l0.784,0m0.22,1.414c0.186,0 0.395,-0.021 0.499,-0.203c0.085,-0.07 0.098,-0.164 0.098,-0.267c0,-0.17 -0.098,-0.304 -0.241,-0.384c-0.157,-0.059 -0.282,-0.059 -0.576,-0.059l-0.16,0l0,0.913l0.38,0" fill="#d43733"/><path d="M108.259,106.892l12.74,0l-6.729,-10.84l-12.362,19.589l-5.637,0.005l15.041,-23.518c0.639,-0.948 1.74,-1.529 2.946,-1.529c1.18,0 2.262,0.559 2.904,1.488l15.094,23.559l-5.633,-0.005l-2.654,-4.377l-12.899,0l-2.811,-4.372" fill="#d82f32"/><path d="M166.714,111.264l0,-20.427l-4.782,0l0,22.435c0,0.608 0.262,1.206 0.705,1.642c0.461,0.465 1.085,0.727 1.745,0.727l21.757,0l2.84,-4.377l-22.265,0" fill="#d82f32"/><path d="M87.706,107.608c4.652,0 8.391,-3.754 8.391,-8.383c0,-4.633 -3.739,-8.388 -8.391,-8.388l-20.9,0l0,24.804l4.779,0l0,-20.421l15.8,0c2.221,0 4.017,1.789 4.017,4.005c0,2.206 -1.796,4.02 -4.017,4.02l-13.466,-0.004l14.261,12.4l6.933,0l-9.582,-8.033l2.175,0" fill="#d82f32"/><path d="M37.42,115.641c-6.859,0 -12.42,-5.541 -12.42,-12.396c0,-6.852 5.561,-12.408 12.42,-12.408l14.44,0c6.869,0 12.402,5.556 12.402,12.408c0,6.855 -5.533,12.401 -12.402,12.401l-14.44,-0.005m14.111,-4.37c4.451,0 8.044,-3.596 8.044,-8.026c0,-4.44 -3.593,-8.025 -8.044,-8.025l-13.79,0c-4.44,0 -8.037,3.585 -8.037,8.025c0,4.43 3.597,8.026 8.037,8.026l13.79,0" fill="#d82f32"/><path d="M142.231,115.641c-6.869,0 -12.441,-5.541 -12.441,-12.396c0,-6.852 5.572,-12.408 12.441,-12.408l17.151,0l-2.828,4.383l-13.999,0c-4.46,0 -8.047,3.585 -8.047,8.025c0,4.43 3.587,8.026 8.047,8.026l17.203,0l-2.794,4.37l-14.733,0" fill="#d82f32"/><path d="M200.634,111.271c-3.676,0 -6.776,-2.463 -7.728,-5.837l20.4,0l2.818,-4.372l-23.218,0c0.942,-3.382 4.052,-5.842 7.728,-5.842l14.013,0l2.8,-4.383l-17.127,0c-6.857,0 -12.416,5.556 -12.416,12.408c0,6.855 5.559,12.396 12.416,12.396l14.735,0l2.806,-4.37l-17.227,0" fill="#d82f32"/><path d="M220.014,93.484c0,-1.215 0.979,-2.19 2.199,-2.19c1.23,0 2.199,0.975 2.199,2.19c0,1.209 -0.969,2.186 -2.199,2.186c-1.22,0 -2.199,-0.977 -2.199,-2.186m2.199,2.79c1.551,0 2.787,-1.235 2.787,-2.777c0,-1.542 -1.236,-2.8 -2.787,-2.8c-1.544,0 -2.794,1.258 -2.794,2.8c0,1.542 1.25,2.777 2.794,2.777m-0.26,-4.433c0.419,0 0.606,0.016 0.826,0.084c0.548,0.179 0.591,0.69 0.591,0.871c0,0.041 -0.012,0.143 -0.036,0.256c-0.023,0.122 -0.089,0.375 -0.369,0.542c-0.05,0.023 -0.069,0.04 -0.135,0.074l0.717,1.294l-0.702,0l-0.639,-1.205l-0.413,0l0,1.205l-0.624,0l0,-3.121l0.784,0m0.22,1.414c0.186,0 0.395,-0.021 0.499,-0.203c0.085,-0.07 0.098,-0.164 0.098,-0.267c0,-0.17 -0.098,-0.304 -0.241,-0.384c-0.157,-0.059 -0.282,-0.059 -0.576,-0.059l-0.16,0l0,0.913l0.38,0" fill="#d82f32"/><path d="M25.342,142.058l5.798,0c5.302,-0.047 8.597,2.594 8.597,8.498c0,5.903 -3.295,8.543 -8.597,8.489l-5.798,0l0,-16.987Zm3.654,14.169l1.885,0c4.336,0.042 4.972,-2.969 4.972,-5.671c0,-2.707 -0.636,-5.72 -4.972,-5.673l-1.885,0l0,11.344Z" fill="#737373"/><path d="M51.12,159.045l6.152,-16.987l4.334,0l5.915,16.987l-3.673,0l-1.227,-3.596l-6.741,0l-1.271,3.596l-3.489,0Zm10.58,-6.419l-2.329,-7.249l-0.052,0l-2.494,7.249l4.875,0Z" fill="#737373"/><path d="M76.403,142.058l13.786,0l0,2.825l-5.064,0l0,14.162l-3.652,0l0,-14.162l-5.07,0l0,-2.825" fill="#737373"/><path d="M99.5,159.045l6.15,-16.987l4.333,0l5.916,16.987l-3.676,0l-1.224,-3.596l-6.743,0l-1.273,3.596l-3.483,0Zm10.579,-6.419l-2.332,-7.249l-0.047,0l-2.501,7.249l4.88,0Z" fill="#737373"/><path d="M127.799,159.045l0,-16.987l6.383,0c3.04,-0.184 6.15,1.083 6.15,4.401c0,1.861 -1.294,3.151 -2.988,3.722l0,0.04c2.141,0.447 3.744,1.934 3.744,4.429c0,3.368 -4.239,4.586 -6.857,4.395l-6.432,0Zm6.501,-10.161c1.534,0 2.384,-0.635 2.384,-2.003c0,-1.363 -0.85,-1.998 -2.384,-1.998l-2.848,0l0,4.001l2.848,0Zm0,7.343c1.723,0 2.901,-0.308 2.901,-2.259c0,-1.956 -1.178,-2.26 -2.901,-2.26l-2.848,0l0,4.519l2.848,0Z" fill="#737373"/><path d="M152.21,159.045l6.152,-16.987l4.332,0l5.915,16.987l-3.675,0l-1.223,-3.596l-6.741,0l-1.274,3.596l-3.486,0Zm10.582,-6.419l-2.334,-7.249l-0.046,0l-2.498,7.249l4.878,0Z" fill="#737373"/><path d="M189.607,146.905c-0.143,-1.714 -1.06,-2.564 -2.828,-2.564c-1.348,0 -2.709,0.707 -2.709,2.188c0,1.84 1.648,2.053 3.108,2.403c2.593,0.654 6.407,1.386 6.407,4.798c0,4.215 -3.669,5.671 -7.326,5.671c-3.888,0 -6.643,-1.502 -6.523,-5.788l3.72,0c-0.141,1.881 0.941,3.15 2.852,3.15c1.461,0 3.39,-0.447 3.39,-2.253c0,-2.004 -2.423,-2.141 -3.885,-2.523c-2.381,-0.587 -5.634,-1.669 -5.634,-4.684c0,-3.876 3.582,-5.596 7.07,-5.596c3.301,0 5.868,1.785 5.868,5.198l-3.51,0" fill="#737373"/><path d="M205.985,142.058l11.402,0l0,2.825l-7.751,0l0,3.979l7.26,0l0,2.822l-7.26,0l0,4.543l8.01,0l0,2.818l-11.661,0l0,-16.987" fill="#737373"/></svg>