<svg viewBox="0 0 256 256" xmlns="http://www.w3.org/2000/svg" width="100%" height="100%"><title>Spring Framework</title><path d="M212.922,88.712c7.675,10.803 12.078,23.159 12.078,36.293c0,13.134 -4.403,25.567 -12.155,36.389c-2.178,13.124 -7.819,25.011 -17.135,34.326c-9.152,9.143 -20.895,14.966 -34.403,17.182c-10.802,7.675 -23.168,12.098 -36.302,12.098c-13.134,0 -25.52,-4.385 -36.312,-12.098c-13.508,-2.216 -25.251,-8.039 -34.403,-17.182c-9.316,-9.315 -14.957,-21.202 -17.125,-34.326c-7.752,-10.832 -12.165,-23.226 -12.165,-36.389c0,-13.163 4.413,-25.577 12.165,-36.389c2.158,-13.124 7.78,-25.011 17.125,-34.326c9.152,-9.153 20.895,-14.967 34.403,-17.183c10.792,-7.722 23.168,-12.107 36.312,-12.107c13.143,0 25.471,4.385 36.302,12.107c13.508,2.216 25.251,8.03 34.403,17.183c9.153,9.152 15.005,20.991 17.212,34.422Zm9.44,36.293c-0.066,-10.728 -3.08,-21.233 -8.711,-30.365c0.5,6.216 0.317,12.466 -0.547,18.641c-0.559,3.985 -1.36,7.932 -2.398,11.82c2.686,9.892 3.659,20.172 2.878,30.393c5.673,-9.161 8.708,-19.713 8.768,-30.489l0.01,0Zm-11.897,-12.078c1.109,-7.702 1.083,-15.524 -0.076,-23.217c-6.077,-8.185 -13.613,-15.178 -22.229,-20.627c4.192,8.194 7.388,16.862 9.517,25.817c4.829,7.854 8.695,16.26 11.513,25.04c0.527,-2.342 0.959,-4.673 1.275,-7.013Zm-0.124,47.421c1.467,-10.033 1.083,-20.25 -1.132,-30.143c-2.838,8.748 -6.719,17.123 -11.561,24.943c-2.133,8.927 -5.321,17.567 -9.497,25.74c8.592,-5.433 16.116,-12.395 22.2,-20.54l-0.01,0Zm-2.37,-35.286c-2.082,-7.556 -4.977,-14.864 -8.634,-21.797c2.461,14.433 2.461,29.18 0,43.613c3.664,-6.937 6.562,-14.251 8.644,-21.816l-0.01,0Zm1.285,-41.032c-4.916,-21.506 -21.78,-38.37 -43.286,-43.286c7.851,6.704 14.486,14.714 19.61,23.676c8.961,5.13 16.972,11.767 23.676,19.62l0,-0.01Zm-15.416,109.81c7.582,-7.682 12.895,-17.312 15.35,-27.822c-6.696,7.813 -14.682,14.42 -23.61,19.533c-5.124,8.957 -11.755,16.964 -19.6,23.668c10.53,-2.45 20.176,-7.775 27.86,-15.379Zm-0.873,-106.068c-2.318,-7.458 -5.435,-14.645 -9.297,-21.432c-6.768,-3.85 -13.931,-6.96 -21.365,-9.278c5.907,4.22 11.455,8.921 16.588,14.055c5.149,5.148 9.854,10.723 14.064,16.664l0.01,-0.009Zm-9.297,95.879c3.851,-6.774 6.961,-13.944 9.278,-21.384c-8.44,11.866 -18.8,22.242 -30.653,30.7c7.435,-2.329 14.597,-5.449 21.365,-9.307l0.01,-0.009Zm-2.743,-121.84c-5.448,-8.608 -12.433,-16.14 -20.608,-22.219c-3.863,-0.601 -7.766,-0.902 -11.675,-0.902c-6.223,0.026 -12.425,0.704 -18.507,2.025c8.796,2.838 17.214,6.737 25.069,11.608c8.918,2.143 17.55,5.341 25.711,9.526l0.01,-0.038Zm-20.617,148.568c8.173,-6.077 15.156,-13.61 20.597,-22.219c-8.162,4.175 -16.793,7.359 -25.711,9.488c-7.856,4.868 -16.273,8.767 -25.068,11.608c6.081,1.317 12.284,1.992 18.506,2.016c3.909,0.003 7.813,-0.295 11.676,-0.893Zm3.338,-63.164c14.046,-16.377 8.634,-44.659 3.837,-62.849c-6.072,10.793 -19.791,18.468 -31.313,20.415c-10.822,1.852 -22.651,-1.026 -32.744,2.121c-23.024,7.185 -24.434,34 -12.472,40.821l0.576,0.47c0.096,0 21.107,-2.283 31.41,-5.334c15.062,-4.481 32.062,-16.799 38.375,-31.995c-3.837,15.983 -18.765,30.623 -33.175,36.868c-7.675,3.329 -13.355,4.308 -25.99,7.234c-3,0.754 -5.836,2.055 -8.365,3.837c14.275,-9.094 52.564,8.549 69.871,-11.598l-0.01,0.01Zm-15.014,-111.134c2.284,0 4.518,0.096 6.716,0.278c-18.54,-11.586 -42.16,-11.586 -60.7,0c2.198,-0.182 4.442,-0.278 6.716,-0.278c7.98,0.041 15.922,1.108 23.629,3.175c7.711,-2.069 15.656,-3.136 23.639,-3.175Zm6.716,177.56c-2.201,0.186 -4.439,0.282 -6.716,0.288c-7.98,-0.044 -15.921,-1.111 -23.629,-3.176c-7.709,2.064 -15.65,3.131 -23.629,3.176c-2.284,0 -4.519,-0.096 -6.716,-0.278c18.537,11.593 42.163,11.593 60.7,0l-0.01,-0.01Zm-8.462,-162.988c-6.959,-3.672 -14.301,-6.567 -21.893,-8.634c-7.593,2.066 -14.935,4.961 -21.893,8.634c14.487,-2.476 29.29,-2.476 43.776,0l0.01,0Zm-21.883,157.386c7.592,-2.067 14.934,-4.963 21.893,-8.635c-14.487,2.477 -29.29,2.477 -43.776,0c6.955,3.673 14.293,6.569 21.883,8.635Zm-5.133,-167.295c-6.078,-1.321 -12.277,-1.999 -18.496,-2.025c-3.91,-0.001 -7.813,0.3 -11.676,0.902c-8.181,6.078 -15.17,13.614 -20.617,22.228c8.175,-4.179 16.819,-7.367 25.749,-9.497c7.846,-4.87 16.254,-8.767 25.04,-11.608Zm-18.506,170.528c6.219,-0.024 12.419,-0.699 18.497,-2.016c-8.782,-2.842 -17.187,-6.741 -25.031,-11.608c-8.919,-2.129 -17.554,-5.315 -25.72,-9.488c5.447,8.609 12.433,16.141 20.607,22.219c3.854,0.597 7.747,0.895 11.647,0.893Zm-17.893,-50.416c3.26,-0.057 5.909,-2.754 5.909,-6.014c0,-3.3 -2.715,-6.015 -6.014,-6.015c-3.3,0 -6.016,2.715 -6.016,6.015c0,0.032 0,0.064 0.001,0.095c0.041,3.261 2.735,5.921 5.995,5.921c0.042,0 0.084,-0.001 0.125,-0.002Zm4.232,-103.794c-7.432,2.317 -14.591,5.428 -21.356,9.278c-3.865,6.787 -6.985,13.973 -9.306,21.432c8.452,-11.872 18.828,-22.249 30.7,-30.7l-0.038,-0.01Zm-21.365,126.637c6.769,3.848 13.932,6.958 21.365,9.277c-5.907,-4.22 -11.455,-8.921 -16.588,-14.054c-5.15,-5.154 -9.858,-10.732 -14.074,-16.674c2.322,7.451 5.442,14.63 9.306,21.412l-0.009,0.039Zm-1.92,-119.279c5.128,-8.955 11.758,-16.961 19.6,-23.667c-21.45,4.901 -38.27,21.722 -43.171,43.171c6.683,-7.801 14.657,-14.399 23.571,-19.504Zm19.6,144.865c-7.843,-6.719 -14.474,-14.738 -19.6,-23.705c-8.926,-5.114 -16.908,-11.721 -23.6,-19.533c4.901,21.45 21.722,38.271 43.172,43.172l0.028,0.066Zm-31.659,-114.347c2.133,-8.955 5.332,-17.623 9.527,-25.816c-8.609,5.418 -16.144,12.378 -22.229,20.53c-1.475,10.061 -1.088,20.308 1.142,30.229c2.831,-8.756 6.7,-17.143 11.522,-24.981l0.038,0.038Zm9.527,86.018c-4.195,-8.195 -7.394,-16.862 -9.527,-25.817c-4.816,-7.827 -8.681,-16.201 -11.512,-24.944c-2.23,9.921 -2.618,20.169 -1.142,30.23c6.065,8.128 13.57,15.074 22.142,20.492l0.039,0.039Zm-13.105,-55.951c0.001,-7.286 0.617,-14.558 1.842,-21.74c-3.626,6.918 -6.495,14.207 -8.558,21.74c2.072,7.534 4.951,14.822 8.586,21.739c-1.234,-7.181 -1.859,-14.453 -1.87,-21.739Zm-9.46,0c-2.698,-9.927 -3.671,-20.243 -2.878,-30.499c-11.708,18.611 -11.708,42.387 0,60.997c-0.793,-10.255 0.18,-20.572 2.878,-30.498Z" fill="#68bd45"/><path d="M167.467,84.366c4.797,18.228 10.227,46.472 -3.838,62.849c-17.269,20.146 -55.595,2.494 -69.852,11.512c2.529,-1.783 5.366,-3.083 8.366,-3.837c12.635,-2.879 18.324,-3.905 25.989,-7.234c14.391,-6.246 29.319,-20.886 33.175,-36.869c-6.331,15.196 -23.322,27.524 -38.375,31.995c-10.265,3.051 -31.304,5.334 -31.409,5.334l-0.576,-0.47c-11.982,-6.811 -10.553,-33.626 12.472,-40.821c10.092,-3.147 21.921,-0.269 32.743,-2.12c11.523,-1.881 25.241,-9.556 31.305,-20.339Z" fill="#fff"/></svg>